<svg width="33" height="33" viewBox="0 0 33 33" fill="none" xmlns="http://www.w3.org/2000/svg">
<g clip-path="url(#clip0_15611_65932)">
<rect width="32.4812" height="32.4812" rx="16.2406" fill="#235540"/>
<g clip-path="url(#clip1_15611_65932)">
<path d="M16.123 8.00098C17.7383 8.00098 19.2875 8.64302 20.4297 9.78516C21.5716 10.9272 22.2128 12.4759 22.2129 14.0908C22.2129 18.4557 16.1617 24.2045 16.123 24.2412C16.0788 24.1992 10.0332 18.4537 10.0332 14.0908C10.0333 12.4759 10.6746 10.9272 11.8164 9.78516C12.9585 8.64303 14.5078 8.00099 16.123 8.00098ZM16.123 11.0459C15.3155 11.0459 14.5408 11.3674 13.9697 11.9385C13.3989 12.5094 13.0782 13.2835 13.0781 14.0908C13.0781 14.8983 13.3988 15.6731 13.9697 16.2441C14.5408 16.8152 15.3155 17.1367 16.123 17.1367C16.9307 17.1367 17.7053 16.8152 18.2764 16.2441C18.8473 15.6731 19.168 14.8983 19.168 14.0908C19.1679 13.2835 18.8472 12.5094 18.2764 11.9385C17.7053 11.3674 16.9307 11.0459 16.123 11.0459Z" fill="#F9F3EA"/>
</g>
</g>
<defs>
<clipPath id="clip0_15611_65932">
<rect width="32.4812" height="32.4812" rx="16.2406" fill="white"/>
</clipPath>
<clipPath id="clip1_15611_65932">
<rect width="16.2406" height="16.2406" fill="white" transform="translate(8.12109 8.12012)"/>
</clipPath>
</defs>
</svg>
