<svg width="16" height="16" viewBox="0 0 16 16" fill="none" xmlns="http://www.w3.org/2000/svg">
<path fill-rule="evenodd" clip-rule="evenodd" d="M4.64836 1.64689C4.6948 1.60033 4.74998 1.56339 4.81072 1.53818C4.87147 1.51297 4.93659 1.5 5.00236 1.5C5.06813 1.5 5.13325 1.51297 5.19399 1.53818C5.25474 1.56339 5.30991 1.60033 5.35636 1.64689L11.3564 7.64689C11.4029 7.69334 11.4399 7.74852 11.4651 7.80926C11.4903 7.87001 11.5033 7.93513 11.5033 8.00089C11.5033 8.06666 11.4903 8.13178 11.4651 8.19253C11.4399 8.25327 11.4029 8.30845 11.3564 8.35489L5.35636 14.3549C5.26247 14.4488 5.13513 14.5015 5.00236 14.5015C4.86958 14.5015 4.74224 14.4488 4.64836 14.3549C4.55447 14.261 4.50173 14.1337 4.50173 14.0009C4.50173 13.8681 4.55447 13.7408 4.64836 13.6469L10.2954 8.00089L4.64836 2.35489C4.6018 2.30845 4.56485 2.25327 4.53965 2.19253C4.51444 2.13178 4.50146 2.06666 4.50146 2.00089C4.50146 1.93513 4.51444 1.87001 4.53965 1.80926C4.56485 1.74852 4.6018 1.69334 4.64836 1.64689Z" fill="#F9F3EA"/>
</svg>
