<svg width="33" height="33" viewBox="0 0 33 33" fill="none" xmlns="http://www.w3.org/2000/svg">
<g clip-path="url(#clip0_14170_134533)">
<rect y="0.5" width="32.4812" height="32.4812" rx="16.2406" fill="#B83D13"/>
<g clip-path="url(#clip1_14170_134533)">
<path d="M16.2427 8.62207C17.8579 8.62207 19.4072 9.26411 20.5493 10.4062C21.6912 11.5483 22.3324 13.0969 22.3325 14.7119C22.3325 19.0788 16.276 24.8307 16.2427 24.8623C16.2011 24.8228 10.1528 19.0757 10.1528 14.7119C10.1529 13.097 10.7942 11.5483 11.936 10.4062C13.0782 9.26413 14.6275 8.62209 16.2427 8.62207ZM16.2427 11.667C15.4352 11.667 14.6604 11.9876 14.0894 12.5586C13.5184 13.1296 13.1979 13.9044 13.1978 14.7119C13.1978 15.5194 13.5184 16.2942 14.0894 16.8652C14.6604 17.4363 15.4351 17.7578 16.2427 17.7578C17.0503 17.7578 17.8249 17.4363 18.396 16.8652C18.967 16.2942 19.2876 15.5195 19.2876 14.7119C19.2875 13.9044 18.967 13.1296 18.396 12.5586C17.8249 11.9877 17.0502 11.667 16.2427 11.667Z" fill="#F9F3EA"/>
</g>
</g>
<defs>
<clipPath id="clip0_14170_134533">
<rect y="0.5" width="32.4812" height="32.4812" rx="16.2406" fill="white"/>
</clipPath>
<clipPath id="clip1_14170_134533">
<rect width="16.2406" height="16.2406" fill="white" transform="translate(8.12012 8.62012)"/>
</clipPath>
</defs>
</svg>
