<svg width="17" height="17" viewBox="0 0 17 17" fill="none" xmlns="http://www.w3.org/2000/svg">
<g clip-path="url(#clip0_14170_134666)">
<path d="M8.12207 0.00195312C10.2756 0.00195313 12.3414 0.857165 13.8643 2.37988C15.3871 3.90273 16.2432 5.96843 16.2432 8.12207C16.2432 10.2757 15.3871 12.3414 13.8643 13.8643C12.3414 15.387 10.2756 16.2422 8.12207 16.2422C5.96872 16.2421 3.90358 15.3868 2.38086 13.8643C0.858009 12.3414 0.00195494 10.2757 0.00195312 8.12207C0.00195313 5.96843 0.858008 3.90273 2.38086 2.37988C3.90358 0.857301 5.96872 0.00206797 8.12207 0.00195312ZM7.94043 10.7705C7.34784 10.7707 6.91699 11.1644 6.91699 11.7246C6.91709 12.2651 7.34742 12.6634 7.94043 12.6641C8.55954 12.6641 8.98526 12.2655 8.98535 11.7246C8.98535 11.1643 8.55859 10.7705 7.94043 10.7705ZM8.12793 3.55469C6.84188 3.55469 5.43237 4.1535 5.33594 5.875C5.33459 5.9076 5.33995 5.94022 5.35156 5.9707C5.36326 6.00128 5.38146 6.02928 5.4043 6.05273C5.42721 6.07622 5.45501 6.09495 5.48535 6.10742C5.51565 6.11984 5.54832 6.12558 5.58105 6.125H6.41797C6.55794 6.125 6.67008 6.01099 6.68848 5.87207C6.77983 5.20621 7.23672 4.7207 8.05078 4.7207C8.74696 4.72082 9.38379 5.06898 9.38379 5.90625C9.38378 6.55079 9.00418 6.84718 8.4043 7.29785C7.72137 7.79411 7.18031 8.3738 7.21875 9.31445L7.22168 9.53516C7.22278 9.6017 7.25041 9.66524 7.29785 9.71191C7.34524 9.75854 7.40911 9.78508 7.47559 9.78516H8.29883C8.36613 9.78516 8.43093 9.75755 8.47852 9.70996C8.52592 9.66246 8.55265 9.59835 8.55273 9.53125V9.4248C8.55273 8.69601 8.83004 8.48342 9.57812 7.91602C10.1963 7.44606 10.8408 6.9243 10.8408 5.8291C10.8408 4.29551 9.5458 3.55481 8.12793 3.55469Z" fill="#B83D13"/>
</g>
<defs>
<clipPath id="clip0_14170_134666">
<rect width="16.2406" height="16.2406" fill="white"/>
</clipPath>
</defs>
</svg>
