<svg width="16" height="16" viewBox="0 0 16 16" fill="none" xmlns="http://www.w3.org/2000/svg">
<g clip-path="url(#clip0_14170_134671)">
<path d="M7.58057 0C9.59063 0 11.5186 0.798398 12.9399 2.21973C14.361 3.64095 15.1596 5.56831 15.1597 7.57812C15.1597 9.58813 14.3612 11.5162 12.9399 12.9375C11.5186 14.3588 9.59063 15.1572 7.58057 15.1572C5.57055 15.1572 3.64249 14.3588 2.22119 12.9375C0.800016 11.5162 0.00146484 9.58807 0.00146484 7.57812C0.00156003 5.56837 0.800181 3.64093 2.22119 2.21973C3.64249 0.798429 5.57055 3.39512e-05 7.58057 0ZM6.29346 6.5127L6.21533 6.87402L6.64307 6.9502C6.92043 7.01745 6.97513 7.11807 6.91455 7.39551L6.21533 10.6807C6.03155 11.5304 6.315 11.9306 6.98096 11.9307C7.49718 11.9307 8.09669 11.692 8.36865 11.3643L8.45264 10.9697C8.26411 11.1365 7.98604 11.2031 7.80225 11.2031C7.54185 11.2031 7.4479 11.0202 7.51416 10.6982L8.46045 6.24121L6.29346 6.5127ZM7.58057 3.31543C7.32935 3.31546 7.08828 3.41514 6.91064 3.59277C6.73302 3.77043 6.6333 4.01147 6.6333 4.2627C6.6333 4.51392 6.73302 4.75496 6.91064 4.93262C7.08828 5.11025 7.32935 5.20993 7.58057 5.20996C7.83179 5.20996 8.07283 5.11024 8.25049 4.93262C8.42815 4.75495 8.52783 4.51395 8.52783 4.2627C8.52783 4.01144 8.42815 3.77044 8.25049 3.59277C8.07283 3.41515 7.83179 3.31543 7.58057 3.31543Z" fill="#B83D13"/>
</g>
<defs>
<clipPath id="clip0_14170_134671">
<rect width="15.1579" height="15.1579" fill="white"/>
</clipPath>
</defs>
</svg>
