<svg width="17" height="17" viewBox="0 0 17 17" fill="none" xmlns="http://www.w3.org/2000/svg">
<g clip-path="url(#clip0_14170_134661)">
<path d="M8.12256 0.00195312C8.82297 0.00202276 9.99306 0.271968 11.0942 0.569336C12.078 0.840074 13.0554 1.13425 14.0249 1.45215C14.3041 1.54453 14.5514 1.71382 14.7388 1.94043C14.9262 2.1672 15.0463 2.44265 15.0845 2.73438C15.6893 7.27837 14.2856 10.6461 12.5825 12.874C11.8603 13.8271 10.9991 14.6668 10.0278 15.3643C9.69195 15.6056 9.33537 15.8182 8.96338 15.999C8.6784 16.1329 8.37409 16.2421 8.12256 16.2422C7.87087 16.2422 7.56494 16.133 7.28076 15.999C6.97224 15.8539 6.60902 15.6413 6.21729 15.3643C5.24593 14.6668 4.38488 13.8271 3.6626 12.874C1.95941 10.6461 0.554834 7.27851 1.15967 2.73438C1.1979 2.44294 1.31808 2.16793 1.50537 1.94141C1.69282 1.71481 1.94097 1.54534 2.22021 1.45312C2.88807 1.23491 4.02353 0.874752 5.1499 0.570312C6.25122 0.270876 7.42218 0.00195312 8.12256 0.00195312ZM8.12451 10.1523C7.85535 10.1523 7.59709 10.2589 7.40674 10.4492C7.21638 10.6396 7.10889 10.8978 7.10889 11.167C7.10889 11.4362 7.21638 11.6944 7.40674 11.8848C7.59708 12.0751 7.85535 12.1816 8.12451 12.1816C8.39365 12.1816 8.65197 12.0751 8.84229 11.8848C9.03258 11.6944 9.13916 11.4362 9.13916 11.167C9.13916 10.8978 9.03258 10.6396 8.84229 10.4492C8.65197 10.2589 8.39365 10.1524 8.12451 10.1523ZM8.12256 4.05664C7.99383 4.05664 7.86613 4.08339 7.74854 4.13574C7.63109 4.18805 7.52601 4.26484 7.43994 4.36035C7.35386 4.456 7.28829 4.56902 7.24854 4.69141C7.20883 4.81375 7.19505 4.94337 7.2085 5.07129L7.56396 8.63184C7.57599 8.77152 7.64038 8.90126 7.74365 8.99609C7.84703 9.09102 7.98221 9.14453 8.12256 9.14453C8.26281 9.14446 8.39815 9.09096 8.50146 8.99609C8.60456 8.90129 8.66815 8.77138 8.68018 8.63184L9.03564 5.07129C9.0491 4.94335 9.03532 4.81377 8.99561 4.69141C8.95584 4.56907 8.89123 4.45597 8.80518 4.36035C8.71906 4.26472 8.61317 4.1881 8.49561 4.13574C8.37819 4.08353 8.25106 4.05668 8.12256 4.05664Z" fill="#B83D13"/>
</g>
<defs>
<clipPath id="clip0_14170_134661">
<rect width="16.2406" height="16.2406" fill="white"/>
</clipPath>
</defs>
</svg>
