<svg width="33" height="33" viewBox="0 0 33 33" fill="none" xmlns="http://www.w3.org/2000/svg">
<g clip-path="url(#clip0_14170_134528)">
<rect y="0.5" width="32.4812" height="32.4812" rx="16.2406" fill="#235540"/>
<g clip-path="url(#clip1_14170_134528)">
<path d="M14.4653 8.62891C16.1268 8.56494 17.7509 9.1307 19.0132 10.2129C20.2755 11.2951 21.0824 12.814 21.2729 14.4658C21.4634 16.1173 21.023 17.7791 20.0405 19.1201C20.0819 19.1509 20.1215 19.185 20.1577 19.2217L24.0659 23.1299C24.2561 23.3203 24.3628 23.5786 24.3628 23.8477C24.3627 24.1169 24.2553 24.3751 24.0649 24.5654C23.8745 24.7557 23.6164 24.8624 23.3472 24.8623C23.078 24.8622 22.8197 24.7557 22.6294 24.5654L18.7212 20.6572C18.6847 20.6197 18.652 20.5806 18.6216 20.54C17.2813 21.5235 15.6199 21.9656 13.9683 21.7764C12.3164 21.5871 10.7965 20.781 9.71338 19.5195C8.63032 18.2581 8.06373 16.6341 8.12646 14.9727C8.1893 13.3111 8.87692 11.7338 10.0522 10.5576C11.2276 9.38157 12.8039 8.69292 14.4653 8.62891ZM14.7202 9.63672C13.2396 9.63672 11.8199 10.2255 10.7729 11.2725C9.72599 12.3194 9.13721 13.7391 9.13721 15.2197C9.13721 15.9528 9.28146 16.6791 9.56201 17.3564C9.84257 18.0337 10.2546 18.6486 10.7729 19.167C11.2913 19.6853 11.9062 20.0974 12.5835 20.3779C13.2608 20.6585 13.9871 20.8027 14.7202 20.8027C15.4533 20.8027 16.1797 20.6585 16.8569 20.3779C17.5342 20.0974 18.1491 19.6853 18.6675 19.167C19.1857 18.6487 19.5969 18.0336 19.8774 17.3564C20.158 16.6791 20.3032 15.9528 20.3032 15.2197C20.3032 13.7391 19.7144 12.3194 18.6675 11.2725C17.6206 10.2255 16.2008 9.63676 14.7202 9.63672Z" fill="#F9F3EA"/>
</g>
</g>
<defs>
<clipPath id="clip0_14170_134528">
<rect y="0.5" width="32.4812" height="32.4812" rx="16.2406" fill="white"/>
</clipPath>
<clipPath id="clip1_14170_134528">
<rect width="16.2406" height="16.2406" fill="white" transform="translate(8.12012 8.62012)"/>
</clipPath>
</defs>
</svg>
