<svg width="33" height="33" viewBox="0 0 33 33" fill="none" xmlns="http://www.w3.org/2000/svg">
<g clip-path="url(#clip0_15611_65927)">
<rect width="32.4812" height="32.4812" rx="16.2406" fill="#281414"/>
<g clip-path="url(#clip1_15611_65927)">
<path d="M14.3457 8.00781C16.0072 7.94384 17.6313 8.50961 18.8936 9.5918C20.1559 10.674 20.9638 12.1929 21.1543 13.8447C21.3447 15.4962 20.9034 17.158 19.9209 18.499C19.9623 18.5298 20.0018 18.5639 20.0381 18.6006L23.9463 22.5088C24.1364 22.6992 24.2432 22.9575 24.2432 23.2266C24.2431 23.4958 24.1357 23.754 23.9453 23.9443C23.7549 24.1346 23.4968 24.2413 23.2275 24.2412C22.9584 24.2411 22.7001 24.1347 22.5098 23.9443L18.6016 20.0361C18.5651 19.9986 18.5324 19.9595 18.502 19.9189C17.1617 20.9024 15.5002 21.3445 13.8486 21.1553C12.1967 20.966 10.6769 20.16 9.59375 18.8984C8.51069 17.637 7.94411 16.013 8.00684 14.3516C8.06967 12.69 8.75729 11.1127 9.93262 9.93652C11.1079 8.76046 12.6843 8.07183 14.3457 8.00781ZM14.6006 9.01562C13.12 9.01562 11.7003 9.60443 10.6533 10.6514C9.60636 11.6983 9.01758 13.118 9.01758 14.5986C9.01758 15.3317 9.16183 16.058 9.44238 16.7354C9.72294 17.4126 10.135 18.0275 10.6533 18.5459C11.1716 19.0642 11.7867 19.4753 12.4639 19.7559C13.1412 20.0364 13.8675 20.1816 14.6006 20.1816C15.3337 20.1816 16.06 20.0364 16.7373 19.7559C17.4144 19.4753 18.0296 19.0642 18.5479 18.5459C19.0661 18.0276 19.4773 17.4125 19.7578 16.7354C20.0384 16.058 20.1836 15.3317 20.1836 14.5986C20.1836 13.118 19.5948 11.6983 18.5479 10.6514C17.5009 9.60443 16.0812 9.01566 14.6006 9.01562Z" fill="#F9F3EA"/>
</g>
</g>
<defs>
<clipPath id="clip0_15611_65927">
<rect width="32.4812" height="32.4812" rx="16.2406" fill="white"/>
</clipPath>
<clipPath id="clip1_15611_65927">
<rect width="16.2406" height="16.2406" fill="white" transform="translate(8.12109 8.12012)"/>
</clipPath>
</defs>
</svg>
