<svg width="32" height="39" viewBox="0 0 32 39" fill="none" xmlns="http://www.w3.org/2000/svg">
<g filter="url(#filter0_d_14170_134400)">
<path d="M30.2585 15.5975C30.2585 23.3515 16.2186 36.0192 16.2186 36.0192C16.2186 36.0192 2.17871 23.3515 2.17871 15.5975C2.17871 7.84349 8.46458 1.55762 16.2186 1.55762C23.9726 1.55762 30.2585 7.84349 30.2585 15.5975Z" fill="#FFB300"/>
<g clip-path="url(#clip0_14170_134400)">
<path d="M17.4326 8.58984C17.7474 8.58984 18.0499 8.71493 18.2725 8.9375C18.4949 9.16002 18.6201 9.46176 18.6201 9.77637V10.5674H21.3887C21.4936 10.5674 21.5948 10.6094 21.6689 10.6836C21.743 10.7577 21.7841 10.8582 21.7842 10.9629C21.7842 11.0678 21.7431 11.169 21.6689 11.2432C21.5948 11.3174 21.4936 11.3594 21.3887 11.3594H20.9629L20.2881 19.793C20.2563 20.1894 20.0764 20.5593 19.7842 20.8291C19.4918 21.0989 19.1087 21.2491 18.7109 21.249H13.7812C13.3835 21.249 13.0003 21.0988 12.708 20.8291C12.4158 20.5593 12.2359 20.1894 12.2041 19.793L11.5293 11.3594H11.1035C10.9986 11.3594 10.8974 11.3174 10.8232 11.2432C10.7491 11.169 10.708 11.0678 10.708 10.9629C10.7081 10.8582 10.7493 10.7577 10.8232 10.6836C10.8974 10.6094 10.9986 10.5674 11.1035 10.5674H13.873V9.77637C13.8731 9.4618 13.9974 9.16001 14.2197 8.9375C14.4423 8.71493 14.7448 8.58984 15.0596 8.58984H17.4326ZM13.8477 12.1426C13.7951 12.1457 13.7435 12.1594 13.6963 12.1826C13.6492 12.2059 13.6067 12.2377 13.5723 12.2773C13.5378 12.317 13.5115 12.3632 13.4951 12.4131C13.4787 12.463 13.4724 12.516 13.4766 12.5684L13.873 19.2939C13.8752 19.3463 13.887 19.3978 13.9092 19.4453C13.9315 19.493 13.9639 19.536 14.0029 19.5713C14.0419 19.6065 14.0872 19.634 14.1367 19.6514C14.1864 19.6688 14.2395 19.676 14.292 19.6729C14.3443 19.6697 14.3954 19.6559 14.4424 19.6328C14.4896 19.6096 14.5319 19.5768 14.5664 19.5371C14.6008 19.4974 14.6271 19.4513 14.6436 19.4014C14.6599 19.3514 14.6663 19.2985 14.6621 19.2461L14.2666 12.5215C14.2645 12.4689 14.2518 12.4168 14.2295 12.3691C14.2072 12.3217 14.1756 12.2793 14.1367 12.2441C14.0977 12.2088 14.0516 12.1815 14.002 12.1641C13.9524 12.1467 13.9001 12.1394 13.8477 12.1426ZM16.2461 12.1504C16.1414 12.1504 16.0409 12.1917 15.9668 12.2656C15.8926 12.3398 15.8506 12.441 15.8506 12.5459V19.2705C15.8506 19.3754 15.8926 19.4766 15.9668 19.5508C16.0409 19.6248 16.1413 19.667 16.2461 19.667C16.351 19.667 16.4522 19.625 16.5264 19.5508C16.6004 19.4766 16.6416 19.3753 16.6416 19.2705V12.5459C16.6416 12.441 16.6005 12.3398 16.5264 12.2656C16.4522 12.1914 16.351 12.1504 16.2461 12.1504ZM18.6436 12.1514C18.5389 12.1453 18.4358 12.1803 18.3574 12.25C18.2792 12.3197 18.2318 12.4179 18.2256 12.5225L17.8301 19.248C17.8267 19.3511 17.8641 19.4512 17.9336 19.5273C18.0031 19.6034 18.0993 19.6502 18.2021 19.6562C18.3052 19.6622 18.4074 19.6272 18.4854 19.5596C18.5631 19.492 18.6116 19.3966 18.6201 19.2939L19.0156 12.5684C19.0216 12.4639 18.9855 12.3614 18.916 12.2832C18.8463 12.2049 18.7482 12.1575 18.6436 12.1514ZM15.0596 9.38086C14.9546 9.38086 14.8535 9.42288 14.7793 9.49707C14.7053 9.5712 14.6641 9.67164 14.6641 9.77637V10.5674H17.8281V9.77637C17.8281 9.6716 17.7869 9.57121 17.7129 9.49707C17.6387 9.42288 17.5375 9.38086 17.4326 9.38086H15.0596Z" fill="#281414"/>
</g>
</g>
<defs>
<filter id="filter0_d_14170_134400" x="0.593406" y="0.85432" width="31.0715" height="37.406" filterUnits="userSpaceOnUse" color-interpolation-filters="sRGB">
<feFlood flood-opacity="0" result="BackgroundImageFix"/>
<feColorMatrix in="SourceAlpha" type="matrix" values="0 0 0 0 0 0 0 0 0 0 0 0 0 0 0 0 0 0 127 0" result="hardAlpha"/>
<feOffset dy="0.703297"/>
<feGaussianBlur stdDeviation="0.703297"/>
<feColorMatrix type="matrix" values="0 0 0 0 0 0 0 0 0 0 0 0 0 0 0 0 0 0 0.3 0"/>
<feBlend mode="normal" in2="BackgroundImageFix" result="effect1_dropShadow_14170_134400"/>
<feBlend mode="normal" in="SourceGraphic" in2="effect1_dropShadow_14170_134400" result="shape"/>
</filter>
<clipPath id="clip0_14170_134400">
<rect width="12.6593" height="12.6593" fill="white" transform="translate(9.91504 8.58984)"/>
</clipPath>
</defs>
</svg>
