<svg width="32" height="38" viewBox="0 0 32 38" fill="none" xmlns="http://www.w3.org/2000/svg">
<g filter="url(#filter0_d_14170_134394)">
<path d="M30 14.8184C30 22.5503 16 35.182 16 35.182C16 35.182 2 22.5503 2 14.8184C2 7.08637 8.26801 0.818359 16 0.818359C23.732 0.818359 30 7.08637 30 14.8184Z" fill="#B83D13"/>
<g clip-path="url(#clip0_14170_134394)">
<path d="M22.5698 17.6807C22.628 17.6804 22.686 17.6916 22.7397 17.7139C22.7935 17.7362 22.8424 17.7691 22.8833 17.8105C22.9242 17.8519 22.9564 17.9011 22.978 17.9551C22.9997 18.0091 23.0102 18.0669 23.0093 18.125C23.0083 18.1832 22.9956 18.2407 22.9722 18.2939C22.9487 18.3472 22.9148 18.3955 22.8726 18.4355C22.8303 18.4755 22.7805 18.5068 22.7261 18.5273L21.188 19.1426C20.6665 19.3512 20.0845 19.3512 19.563 19.1426L18.6763 18.7871C18.3634 18.662 18.0136 18.662 17.7007 18.7871L16.813 19.1426C16.2915 19.3512 15.7095 19.3512 15.188 19.1426L14.3013 18.7871C13.9884 18.662 13.6386 18.662 13.3257 18.7871L12.438 19.1426C11.9165 19.3512 11.3345 19.3512 10.813 19.1426L9.27588 18.5273C9.16822 18.4842 9.08224 18.3996 9.03662 18.293C8.99113 18.1865 8.98973 18.0665 9.03271 17.959C9.07587 17.8514 9.15956 17.7644 9.26611 17.7188C9.37266 17.6732 9.49348 17.6718 9.60107 17.7148L11.1382 18.3301C11.4511 18.4552 11.8009 18.4552 12.1138 18.3301L13.0005 17.9756C13.522 17.767 14.104 17.767 14.6255 17.9756L15.5132 18.3301C15.8261 18.4552 16.1759 18.4552 16.4888 18.3301L17.3755 17.9756C17.897 17.767 18.479 17.767 19.0005 17.9756L19.8882 18.3301C20.2011 18.4552 20.5509 18.4552 20.8638 18.3301L22.4009 17.7148C22.4543 17.6922 22.5118 17.681 22.5698 17.6807ZM22.5698 15.0557C22.628 15.0554 22.686 15.0666 22.7397 15.0889C22.7935 15.1112 22.8424 15.1441 22.8833 15.1855C22.9242 15.2269 22.9564 15.2761 22.978 15.3301C22.9997 15.3841 23.0102 15.4419 23.0093 15.5C23.0083 15.5582 22.9956 15.6157 22.9722 15.6689C22.9487 15.7222 22.9148 15.7705 22.8726 15.8105C22.8303 15.8505 22.7805 15.8818 22.7261 15.9023L21.188 16.5176C20.6665 16.7262 20.0845 16.7262 19.563 16.5176L18.6763 16.1621C18.3634 16.037 18.0136 16.037 17.7007 16.1621L16.813 16.5176C16.2915 16.7262 15.7095 16.7262 15.188 16.5176L14.3013 16.1621C13.9884 16.037 13.6386 16.037 13.3257 16.1621L12.438 16.5176C11.9165 16.7262 11.3345 16.7262 10.813 16.5176L9.27588 15.9023C9.16822 15.8592 9.08224 15.7746 9.03662 15.668C8.99113 15.5615 8.98973 15.4415 9.03271 15.334C9.07587 15.2264 9.15956 15.1394 9.26611 15.0938C9.37266 15.0482 9.49348 15.0468 9.60107 15.0898L11.1382 15.7051C11.4511 15.8302 11.8009 15.8302 12.1138 15.7051L13.0005 15.3506C13.522 15.142 14.104 15.142 14.6255 15.3506L15.5132 15.7051C15.8261 15.8302 16.1759 15.8302 16.4888 15.7051L17.3755 15.3506C17.897 15.142 18.479 15.142 19.0005 15.3506L19.8882 15.7051C20.2011 15.8302 20.5509 15.8302 20.8638 15.7051L22.4009 15.0898C22.4543 15.0672 22.5118 15.056 22.5698 15.0557ZM22.5698 12.4307C22.628 12.4304 22.686 12.4416 22.7397 12.4639C22.7935 12.4862 22.8424 12.5191 22.8833 12.5605C22.9242 12.6019 22.9564 12.6511 22.978 12.7051C22.9997 12.7591 23.0102 12.8169 23.0093 12.875C23.0083 12.9332 22.9956 12.9907 22.9722 13.0439C22.9487 13.0972 22.9148 13.1455 22.8726 13.1855C22.8303 13.2255 22.7805 13.2568 22.7261 13.2773L21.188 13.8926C20.6665 14.1012 20.0845 14.1012 19.563 13.8926L18.6763 13.5371C18.3634 13.412 18.0136 13.412 17.7007 13.5371L16.813 13.8926C16.2915 14.1012 15.7095 14.1012 15.188 13.8926L14.3013 13.5371C13.9884 13.412 13.6386 13.412 13.3257 13.5371L12.438 13.8926C11.9165 14.1012 11.3345 14.1012 10.813 13.8926L9.27588 13.2773C9.16822 13.2342 9.08224 13.1496 9.03662 13.043C8.99113 12.9365 8.98973 12.8165 9.03271 12.709C9.07587 12.6014 9.15956 12.5144 9.26611 12.4688C9.37266 12.4232 9.49348 12.4218 9.60107 12.4648L11.1382 13.0801C11.4511 13.2052 11.8009 13.2052 12.1138 13.0801L13.0005 12.7256C13.522 12.517 14.104 12.517 14.6255 12.7256L15.5132 13.0801C15.8261 13.2052 16.1759 13.2052 16.4888 13.0801L17.3755 12.7256C17.897 12.517 18.479 12.517 19.0005 12.7256L19.8882 13.0801C20.2011 13.2052 20.5509 13.2052 20.8638 13.0801L22.4009 12.4648C22.4543 12.4422 22.5118 12.431 22.5698 12.4307ZM22.5698 9.80566C22.628 9.80542 22.686 9.81655 22.7397 9.83887C22.7935 9.8612 22.8424 9.89412 22.8833 9.93555C22.9242 9.97695 22.9564 10.0261 22.978 10.0801C22.9997 10.1341 23.0102 10.1919 23.0093 10.25C23.0083 10.3082 22.9956 10.3657 22.9722 10.4189C22.9487 10.4722 22.9148 10.5205 22.8726 10.5605C22.8303 10.6005 22.7805 10.6318 22.7261 10.6523L21.188 11.2676C20.6665 11.4762 20.0845 11.4762 19.563 11.2676L18.6763 10.9121C18.3634 10.787 18.0136 10.787 17.7007 10.9121L16.813 11.2676C16.2915 11.4762 15.7095 11.4762 15.188 11.2676L14.3013 10.9121C13.9884 10.787 13.6386 10.787 13.3257 10.9121L12.438 11.2676C11.9165 11.4762 11.3345 11.4762 10.813 11.2676L9.27588 10.6523C9.16822 10.6092 9.08224 10.5246 9.03662 10.418C8.99113 10.3115 8.98973 10.1915 9.03271 10.084C9.07587 9.9764 9.15956 9.88939 9.26611 9.84375C9.37266 9.79818 9.49348 9.79684 9.60107 9.83984L11.1382 10.4551C11.4511 10.5802 11.8009 10.5802 12.1138 10.4551L13.0005 10.1006C13.522 9.89197 14.104 9.89197 14.6255 10.1006L15.5132 10.4551C15.8261 10.5802 16.1759 10.5802 16.4888 10.4551L17.3755 10.1006C17.897 9.89197 18.479 9.89197 19.0005 10.1006L19.8882 10.4551C20.2011 10.5802 20.5509 10.5802 20.8638 10.4551L22.4009 9.83984C22.4543 9.81717 22.5118 9.80595 22.5698 9.80566Z" fill="#F9F3EA"/>
</g>
</g>
<defs>
<filter id="filter0_d_14170_134394" x="0.727273" y="0.181996" width="30.5455" height="36.9087" filterUnits="userSpaceOnUse" color-interpolation-filters="sRGB">
<feFlood flood-opacity="0" result="BackgroundImageFix"/>
<feColorMatrix in="SourceAlpha" type="matrix" values="0 0 0 0 0 0 0 0 0 0 0 0 0 0 0 0 0 0 127 0" result="hardAlpha"/>
<feOffset dy="0.636364"/>
<feGaussianBlur stdDeviation="0.636364"/>
<feColorMatrix type="matrix" values="0 0 0 0 0 0 0 0 0 0 0 0 0 0 0 0 0 0 0.3 0"/>
<feBlend mode="normal" in2="BackgroundImageFix" result="effect1_dropShadow_14170_134394"/>
<feBlend mode="normal" in="SourceGraphic" in2="effect1_dropShadow_14170_134394" result="shape"/>
</filter>
<clipPath id="clip0_14170_134394">
<rect width="14" height="14" fill="white" transform="translate(8.99951 7.18457)"/>
</clipPath>
</defs>
</svg>
