<svg width="17" height="17" viewBox="0 0 17 17" fill="none" xmlns="http://www.w3.org/2000/svg">
<path d="M5.33594 4.67383C5.20333 4.67383 5.07615 4.72651 4.98238 4.82027C4.88862 4.91404 4.83594 5.04122 4.83594 5.17383C4.83594 5.30644 4.88862 5.43361 4.98238 5.52738C5.07615 5.62115 5.20333 5.67383 5.33594 5.67383H11.3359C11.4685 5.67383 11.5957 5.62115 11.6895 5.52738C11.7833 5.43361 11.8359 5.30644 11.8359 5.17383C11.8359 5.04122 11.7833 4.91404 11.6895 4.82027C11.5957 4.72651 11.4685 4.67383 11.3359 4.67383H5.33594ZM4.83594 7.17383C4.83594 7.04122 4.88862 6.91404 4.98238 6.82027C5.07615 6.72651 5.20333 6.67383 5.33594 6.67383H11.3359C11.4685 6.67383 11.5957 6.72651 11.6895 6.82027C11.7833 6.91404 11.8359 7.04122 11.8359 7.17383C11.8359 7.30644 11.7833 7.43361 11.6895 7.52738C11.5957 7.62115 11.4685 7.67383 11.3359 7.67383H5.33594C5.20333 7.67383 5.07615 7.62115 4.98238 7.52738C4.88862 7.43361 4.83594 7.30644 4.83594 7.17383ZM5.33594 8.67383C5.20333 8.67383 5.07615 8.72651 4.98238 8.82027C4.88862 8.91404 4.83594 9.04122 4.83594 9.17383C4.83594 9.30644 4.88862 9.43361 4.98238 9.52738C5.07615 9.62115 5.20333 9.67383 5.33594 9.67383H11.3359C11.4685 9.67383 11.5957 9.62115 11.6895 9.52738C11.7833 9.43361 11.8359 9.30644 11.8359 9.17383C11.8359 9.04122 11.7833 8.91404 11.6895 8.82027C11.5957 8.72651 11.4685 8.67383 11.3359 8.67383H5.33594ZM5.33594 10.6738C5.20333 10.6738 5.07615 10.7265 4.98238 10.8203C4.88862 10.914 4.83594 11.0412 4.83594 11.1738C4.83594 11.3064 4.88862 11.4336 4.98238 11.5274C5.07615 11.6212 5.20333 11.6738 5.33594 11.6738H8.33594C8.46855 11.6738 8.59572 11.6212 8.68949 11.5274C8.78326 11.4336 8.83594 11.3064 8.83594 11.1738C8.83594 11.0412 8.78326 10.914 8.68949 10.8203C8.59572 10.7265 8.46855 10.6738 8.33594 10.6738H5.33594Z" fill="#F9F3EA"/>
<path d="M2.33594 2.67383C2.33594 2.1434 2.54665 1.63469 2.92172 1.25961C3.2968 0.884542 3.8055 0.673828 4.33594 0.673828H12.3359C12.8664 0.673828 13.3751 0.884542 13.7502 1.25961C14.1252 1.63469 14.3359 2.1434 14.3359 2.67383V14.6738C14.3359 15.2043 14.1252 15.713 13.7502 16.088C13.3751 16.4631 12.8664 16.6738 12.3359 16.6738H4.33594C3.8055 16.6738 3.2968 16.4631 2.92172 16.088C2.54665 15.713 2.33594 15.2043 2.33594 14.6738V2.67383ZM12.3359 1.67383H4.33594C4.07072 1.67383 3.81637 1.77918 3.62883 1.96672C3.44129 2.15426 3.33594 2.40861 3.33594 2.67383V14.6738C3.33594 14.939 3.44129 15.1934 3.62883 15.3809C3.81637 15.5685 4.07072 15.6738 4.33594 15.6738H12.3359C12.6012 15.6738 12.8555 15.5685 13.043 15.3809C13.2306 15.1934 13.3359 14.939 13.3359 14.6738V2.67383C13.3359 2.40861 13.2306 2.15426 13.043 1.96672C12.8555 1.77918 12.6012 1.67383 12.3359 1.67383Z" fill="#F9F3EA"/>
</svg>
