<svg width="24" height="24" viewBox="0 0 24 24" fill="none" xmlns="http://www.w3.org/2000/svg">
<path d="M15 0.00195312C15.1989 0.00195313 15.3896 0.0810765 15.5303 0.22168C15.6709 0.362314 15.75 0.553069 15.75 0.751953V4.50195H17.25C17.4489 4.50195 17.6396 4.58108 17.7803 4.72168C17.9209 4.86231 18 5.05307 18 5.25195V9.75195C18 11.1443 17.4465 12.4793 16.4619 13.4639C15.4773 14.4484 14.1424 15.002 12.75 15.002C12.747 15.6529 12.7354 16.2695 12.6904 16.832C12.6289 17.6029 12.5012 18.3363 12.2148 18.9678C11.9244 19.6356 11.4095 20.181 10.7598 20.5098C10.0878 20.8518 9.2535 21.002 8.25 21.002C6.75305 21.002 5.83505 21.4971 5.28906 22.0791C4.79614 22.5997 4.51476 23.2852 4.5 24.002H3C3.00002 23.078 3.34784 21.9513 4.19531 21.0498C5.0608 20.1318 6.39154 19.502 8.25 19.502C9.12145 19.502 9.69315 19.3703 10.0771 19.1738C10.4386 18.9894 10.6767 18.7235 10.8477 18.3486C11.0291 17.9497 11.1379 17.4172 11.1934 16.7139C11.2339 16.2039 11.246 15.6365 11.249 15.002C9.8569 15.0016 8.52135 14.4484 7.53711 13.4639C6.55289 12.4793 6 11.1441 6 9.75195V5.25195C6.00002 5.05307 6.07909 4.86231 6.21973 4.72168C6.36036 4.58105 6.55112 4.50197 6.75 4.50195H8.25V0.751953C8.25002 0.553069 8.32909 0.362314 8.46973 0.22168C8.61036 0.0810458 8.80112 0.00197384 9 0.00195312C9.19888 0.00195313 9.38963 0.0810763 9.53027 0.22168C9.67091 0.362314 9.74998 0.553069 9.75 0.751953V4.50195H14.25V0.751953C14.25 0.553069 14.3291 0.362314 14.4697 0.22168C14.6104 0.081046 14.8011 0.00197384 15 0.00195312Z" fill="#D49500"/>
</svg>
