<svg width="40" height="30" viewBox="0 0 40 30" fill="none" xmlns="http://www.w3.org/2000/svg">
<path d="M4.03307 13.7394C4.03307 13.7394 4.03796 13.7467 4.04283 13.7467H4.46187C6.31106 13.7369 7.95317 14.9186 8.53302 16.6752L8.83512 17.5888C8.83512 17.5888 8.84243 17.5985 8.84974 17.5961L28.8936 10.979C28.8936 10.979 28.9033 10.9717 28.9009 10.9644L28.5988 10.0532C28.0189 8.299 28.6353 6.36941 30.1264 5.27549L30.5649 4.95389C30.5649 4.95389 30.5698 4.94658 30.5698 4.94171L30.2653 4.0159C29.4637 1.58685 26.8422 0.266351 24.4132 1.06791L6.66677 6.92733C4.23773 7.72889 2.91723 10.3504 3.71879 12.7794L4.03551 13.7418L4.03307 13.7394Z" fill="#281414"/>
<path d="M8.21674 22.3297C7.68805 20.729 6.56488 17.3254 6.56488 17.323C5.98991 15.581 3.88002 15.6955 2.40116 15.7662C2.39872 15.7662 2.39629 15.7662 2.39385 15.7662C1.45586 16.1194 0.88332 17.1695 1.22441 18.2074L2.84701 23.1191C4.00915 22.6659 5.39299 22.3151 7.53211 22.3151C7.77087 22.3151 7.99745 22.32 8.21916 22.3297H8.21674Z" fill="#281414"/>
<path d="M30.0354 20.8946L30.8711 20.6193L31.9187 20.2734C31.9187 20.2734 31.9309 20.2734 31.9333 20.2807L32.0917 20.7582C32.2695 21.2966 32.8201 21.6499 33.3707 21.5208C33.992 21.3746 34.3428 20.7314 34.1455 20.1394L33.9701 19.6107C33.9701 19.6107 33.9701 19.5985 33.9774 19.5961L35.1054 19.2233C37.3785 18.4729 38.6113 16.0219 37.8609 13.7488C37.8609 13.7488 35.5903 6.86857 35.5878 6.8637C35.3539 6.15472 34.7229 5.63578 33.9847 5.54076C33.6387 5.49691 33.3147 5.57731 33.0053 5.72349C32.3938 6.01585 31.8505 6.57378 31.3461 6.9441C30.5787 7.5069 30.262 8.49849 30.5616 9.40238L32.4669 15.1717C32.6374 15.6906 32.4133 16.2826 31.9114 16.4995C31.3461 16.7431 30.7054 16.4459 30.5153 15.8733L29.5505 12.9546C29.5505 12.9546 29.5432 12.9448 29.5359 12.9473L9.49208 19.5644C9.49208 19.5644 9.48233 19.5717 9.48477 19.579L10.4325 22.4466C10.4496 22.4978 10.4593 22.5489 10.469 22.6001C13.283 23.1994 14.4062 24.5833 17.6002 25.0048L30.0354 20.8995V20.8946Z" fill="#281414"/>
<path d="M19.6346 27.312C13.5802 27.312 13.5802 24.5029 7.52589 24.5029C3.54977 24.5029 2.18297 25.7162 0 26.547V30.0773H40V26.6323C37.3176 25.7796 36.2017 24.5029 31.7432 24.5029C25.6889 24.5029 25.6889 27.312 19.6346 27.312Z" fill="#281414"/>
</svg>
