<svg width="24" height="24" viewBox="0 0 24 24" fill="none" xmlns="http://www.w3.org/2000/svg">
<path d="M11.9996 0.00195312C13.0345 0.00195312 14.7638 0.40136 16.3912 0.84082C17.845 1.24091 19.2895 1.67573 20.7223 2.14551C21.135 2.28205 21.5009 2.53214 21.7779 2.86719C22.0549 3.2023 22.2322 3.60894 22.2887 4.04004C23.1826 10.7555 21.1074 15.7329 18.5904 19.0254C17.5232 20.4337 16.2504 21.6735 14.815 22.7041C14.3187 23.0608 13.7925 23.3744 13.2428 23.6416C12.8213 23.8396 12.3716 24.002 11.9996 24.002C11.6276 24.0019 11.1764 23.8396 10.7564 23.6416C10.3004 23.4271 9.76318 23.1136 9.18418 22.7041C7.7489 21.6734 6.47607 20.4336 5.40879 19.0254C2.89179 15.7329 0.817524 10.7555 1.71152 4.04004C1.76805 3.60926 1.9444 3.20296 2.22129 2.86816C2.49822 2.5334 2.86443 2.28376 3.27695 2.14746C4.26395 1.82496 5.94301 1.2918 7.60801 0.841797C9.23536 0.399347 10.9647 0.00197309 11.9996 0.00195312ZM12.0025 15.002C11.6048 15.002 11.2233 15.1601 10.942 15.4414C10.6607 15.7227 10.5026 16.1042 10.5025 16.502C10.5025 16.8997 10.6608 17.2812 10.942 17.5625C11.2233 17.8438 11.6048 18.0019 12.0025 18.002C12.4003 18.002 12.7818 17.8438 13.0631 17.5625C13.3444 17.2812 13.5025 16.8998 13.5025 16.502C13.5025 16.1042 13.3444 15.7227 13.0631 15.4414C12.7818 15.1602 12.4003 15.002 12.0025 15.002ZM11.9996 5.99414C11.8094 5.99415 11.6216 6.03497 11.4479 6.1123C11.274 6.18972 11.1181 6.30289 10.9908 6.44434C10.8637 6.58565 10.7673 6.75182 10.7086 6.93262C10.6499 7.1135 10.6301 7.30502 10.65 7.49414L11.1744 12.7549C11.1921 12.9615 11.2873 13.1546 11.44 13.2949C11.5927 13.4349 11.7924 13.5127 11.9996 13.5127C12.207 13.5127 12.4074 13.4352 12.5602 13.2949C12.7129 13.1546 12.8072 12.9615 12.8248 12.7549L13.3492 7.49414C13.3691 7.30501 13.3493 7.11351 13.2906 6.93262C13.2319 6.75181 13.1356 6.58566 13.0084 6.44434C12.8812 6.30301 12.726 6.18972 12.5523 6.1123C12.3785 6.03489 12.1899 5.99414 11.9996 5.99414Z" fill="#B83D13"/>
</svg>
