<svg width="24" height="24" viewBox="0 0 24 24" fill="none" xmlns="http://www.w3.org/2000/svg">
<path d="M18 0.00195312C18.7956 0.00195313 19.5585 0.318299 20.1211 0.880859C20.6837 1.44345 21 2.20633 21 3.00195V21.002C21 21.7976 20.6837 22.5604 20.1211 23.123C19.5585 23.6857 18.7956 24.002 18 24.002H6C5.20438 24.0019 4.4415 23.6856 3.87891 23.123C3.31635 22.5604 3 21.7976 3 21.002V3.00195C3.00002 2.20633 3.31632 1.44345 3.87891 0.880859C4.4415 0.318269 5.20438 0.00197384 6 0.00195312H18ZM12 18.002C8.06555 18.002 5.78099 19.2413 4.5 20.6348V21.002C4.5 21.3997 4.6582 21.7812 4.93945 22.0625C5.22074 22.3438 5.6022 22.5019 6 22.502H18C18.3978 22.502 18.7792 22.3438 19.0605 22.0625C19.3419 21.7812 19.5 21.3998 19.5 21.002V20.6348C18.219 19.2398 15.9345 18.002 12 18.002ZM12 7.50195C10.8066 7.50197 9.66225 7.97642 8.81836 8.82031C7.97446 9.66421 7.50002 10.8085 7.5 12.002C7.5 13.1954 7.97449 14.3397 8.81836 15.1836C9.66225 16.0275 10.8066 16.5019 12 16.502C13.1935 16.502 14.3377 16.0275 15.1816 15.1836C16.0256 14.3397 16.5 13.1954 16.5 12.002C16.5 10.8085 16.0255 9.66421 15.1816 8.82031C14.3377 7.97645 13.1934 7.50195 12 7.50195ZM9.75 3.00195C9.55112 3.00197 9.36036 3.08105 9.21973 3.22168C9.07909 3.36231 9.00002 3.55307 9 3.75195C9 3.95083 9.07912 4.14158 9.21973 4.28223C9.36036 4.42286 9.55112 4.50193 9.75 4.50195H14.25C14.4489 4.50195 14.6396 4.42288 14.7803 4.28223C14.9209 4.14157 15 3.95087 15 3.75195C15 3.55307 14.9209 3.36231 14.7803 3.22168C14.6396 3.08108 14.4489 3.00195 14.25 3.00195H9.75Z" fill="#B83D13"/>
</svg>
