<?xml version="1.0" encoding="UTF-8"?>
<svg width="20" height="20" fill="none" version="1.1" viewBox="0 0 20 20" xmlns="http://www.w3.org/2000/svg">
 <path d="m9.9141 1.0098c-.14171 8e-7-.28251.049369-.39648.14844l-7.1348 6.207c.42635.15475.91185.29492 1.7246.29492.1365 0 .26174-.0035656.38086-.0097656 1.6034-.08108 1.7319-.66602 3.5723-.66602.22337 0 .42132.0081275.59961.023438 1.4027.12038 1.6.65234 3.3535.65234 1.9774 0 1.9782-.67578 3.9551-.67578.4707 0 .8272.029202 1.125.076172l-6.7832-5.9023c-.11395-.099072-.25477-.14844-.39648-.14844zm-9.0801 7.0859v1.5488c.41999.05557.73111.12775 1.0059.20312.65584.17997 1.1077.37305 2.3516.37305h.0019532c.13655 0 .2621-.002312.38086-.007812 1.6046-.0761 1.7318-.62657 3.5723-.62695h.0019531c.22261 0 .41777.0074944.5957.021484 1.4036.11269 1.6034.61328 3.3574.61328 1.9775 0 1.9781-.63477 3.9551-.63477h.001953c1.0597 0 1.5615.22441 2.1035.41016.2926.10028.59706.18851 1.0059.22461v-1.5703c-.4167-.06839-.71946-.15473-1.0059-.23828l.001953.0019531c-.5396-.15661-1.0238-.30273-2.1074-.30273-1.9775 0-1.9772.63477-3.9551.63477-1.754 0-1.9523-.5002-3.3555-.61328-.17834-.01438-.37617-.021484-.59961-.021484-1.8409 0-1.9685.55079-3.5723.62695-.11917.0058301-.24626.0078125-.38281.0078126-1.219 0-1.6995-.29671-2.3516-.49023-.27972-.08316-.59166-.14734-1.0059-.16016zm0 2.9238v1.5469c.41999.0556.73111.12978 1.0059.20508.65584.18 1.1077.37305 2.3516.37305h.0019532c.13655 0 .2621-.004365.38086-.009765 1.6046-.0762 1.7318-.62665 3.5723-.62695h.0019531c.22261 0 .41777.009438.5957.023438 1.4036.1127 1.6034.61328 3.3574.61328 1.9775 0 1.9781-.63672 3.9551-.63672h.001953c1.0597 0 1.5615.22446 2.1035.41016.2926.1003.59706.18851 1.0059.22461v-1.5684c-.41587-.068263-.71802-.15494-1.0039-.23828h-.001953c-.53889-.15641-1.023-.30274-2.1055-.30274-1.9775 0-1.9772.63672-3.9551.63672-1.754 0-1.9523-.50018-3.3555-.61328-.17834-.0144-.37617-.023438-.59961-.023438-1.8409 0-1.9685.55075-3.5723.62695-.11917.0058-.24626.009766-.38281.009766-1.219 0-1.6995-.29673-2.3516-.49023-.27972-.083201-.59166-.14736-1.0059-.16016zm7.3125 2.6562c-1.8404 0-1.9681.55416-3.5723.63086-.11875.0058-.24473.009765-.38086.009765h-.0019532c-1.2438 0-1.6957-.1943-2.3516-.375-.27515-.0759-.58629-.15113-1.0059-.20703v1.4863c.41998.0559.73112.12918 1.0059.20508.65583.1811 1.1078.375 2.3516.375h.0019532c.13655 0 .26211-.001912.38086-.007812 1.6046-.0767 1.7318-.63241 3.5723-.63281h.0019531c.22261 0 .41974.008938.59766.023438 1.4035.1135 1.6015.61719 3.3555.61719 1.9774 0 1.9781-.64062 3.9551-.64062 1.0584 0 1.5623.22551 2.1035.41211.2929.1013.59781.19172 1.0078.22852v-1.4844c-.4088-.0364-.71376-.12752-1.0059-.22852-.5421-.187-1.0438-.41211-2.1035-.41211h-.001953c-1.977 0-1.9781.64062-3.9551.64062h-.007812c-1.7477-.0011-1.9466-.50339-3.3477-.61719-.17833-.0145-.377-.023438-.59961-.023438zm-7.3125 2.9219v2.3926h18.303v-.05664c.0095 9e-4.02175.002606.03125.003906v-1.7285c-1.2003-.2172-1.4535-.59335-3.1094-.59375h-.001953v-.001953c-.0616 0-.12179.000653-.17969.001953-1.8003.0411-1.8601.69922-3.7754.69922h-.009765c-1.9678-.0021-1.9713-.70117-3.9453-.70117-1.9157 0-1.9756.65822-3.7754.69922-.05792.0013-.11608.001953-.17773.001953h-.0039063c-1.7398-8e-4-1.9769-.6685-3.3555-.7168z" fill="#281414"/>
</svg>
