<?xml version="1.0" encoding="UTF-8"?>
<svg width="20" height="20" fill="none" version="1.1" viewBox="0 0 20 20" xmlns="http://www.w3.org/2000/svg">
 <path d="m10.133.9668c-.14307 0-.28556.049098-.40039.14844l-7.625 6.5898c-.13362.11531-.21094.28158-.21094.45703v7.3184c.66184.1759 1.1198.36483 2.375.36523.13779 0 .26493-.004365.38477-.009765v-7.6074c0-.27707.22693-.50195.50586-.50195h3.1992c.27893 0 .50586.22488.50586.50195v7.0156c1.4155.1107 1.6166.60156 3.3867.60156 1.9956 0 1.9971-.62305 3.9922-.62305 1.0694 0 1.578.21869 2.125.40039v-7.4609c0-.17587-.077338-.34172-.21094-.45703l-7.625-6.5898c-.11505-.09934-.25928-.14844-.40234-.14844zm1.5547 6.7598h3.5684c.1954 0 .35352.15745.35352.35156v2.3105c0 .1941-.15812.35156-.35352.35156h-3.5684c-.1954 0-.35156-.15746-.35156-.35156v-2.3105c0-.19411.15656-.35156.35156-.35156zm-3.541 8.916c-1.9157 0-1.9756.66182-3.7754.70312-.05792.0013-.11608.001953-.17773.001953h-.0039063c-1.7398-4e-4-1.9769-.61781-3.3555-.66211v2.3477h18.303v-.054687c.0095 9e-4.02175.000653.03125.001953v-1.7383c-1.2003-.2186-1.4531-.59911-3.1094-.59961h-.001953c-.0616 0-.12179.000653-.17969.001953-1.8003.0413-1.8601.70312-3.7754.70312h-.009765c-1.9674-.0021-1.9713-.70508-3.9453-.70508z" fill="#281414"/>
</svg>
