<?xml version="1.0" encoding="UTF-8"?>
<svg width="20" height="20" fill="none" version="1.1" viewBox="0 0 20 20" xmlns="http://www.w3.org/2000/svg">
 <path d="m10 .96484c-.1407 0-.28135.051837-.39453.15234l-7.502 6.668c-.13146.11667-.20703.28538-.20703.46289v2.2461c.64745.1192 1.1261.30273 2.3359.30273.13557 0 .26254-.002559.38086-.005859v-2.4766c0-.28033.22166-.50781.49609-.50781h3.1484c.27442 0 .49609.22748.49609.50781v2.1055c1.1528.0575 1.487.27686 2.5547.35156-.0768-.0651-.12695-.16148-.12695-.27148v-2.3379c0-.1964.15741-.35547.34961-.35547h3.5098c.1923 0 .34766.15907.34766.35547v2.2578c.1848-.0096.3909-.015625.625-.015625 1.076 0 1.5561.091 2.0918.1875v-2.3438c0-.17793-.075632-.34622-.20703-.46289l-7.5039-6.668c-.11315-.10051-.25383-.15234-.39453-.15234zm-9.166 10.098v1.5488c.41999.0556.73111.12772 1.0059.20312.65584.1799 1.1077.37305 2.3516.37305h.0019532c.13655 0 .2621-.002413.38086-.007812 1.6046-.076201 1.7318-.62655 3.5723-.62695h.0019531c.22261 0 .41777.007485.5957.021485 1.4036.1126 1.6034.61328 3.3574.61328 1.9775 0 1.9781-.63672 3.9551-.63672h.001953c1.0597 0 1.5615.22436 2.1035.41016.2926.1002.59706.19036 1.0059.22656v-1.5703c-.4167-.068301-.71946-.15468-1.0059-.23828l.001953.001953c-.5396-.1566-1.0238-.30469-2.1074-.30469-1.9775 0-1.9772.63672-3.9551.63672-1.754 0-1.9523-.50018-3.3555-.61328-.17834-.0143-.37617-.023437-.59961-.023437-1.8409 0-1.9685.55075-3.5723.62695-.11917.0058-.24626.009766-.38281.009766-1.219 0-1.6995-.29664-2.3516-.49024-.27972-.0831-.59166-.14726-1.0059-.16016zm7.3125 2.6562c-1.8404 0-1.9681.55611-3.5723.63281-.11875.005901-.24473.007813-.38086.007813h-.0019532c-1.2438 0-1.6957-.1942-2.3516-.375-.27515-.0759-.58629-.14908-1.0059-.20508v1.4844c.41998.0559.73112.12918 1.0059.20508.65583.1811 1.1078.37695 2.3516.37695h.0019532c.13655 0 .26211-.003865.38086-.009765 1.6046-.076601 1.7318-.63046 3.5723-.63086h.0019531c.22261 0 .41974.008938.59766.023438 1.4035.1134 1.6015.61719 3.3555.61719 1.9774 0 1.9781-.64062 3.9551-.64062 1.0584 0 1.5623.22541 2.1035.41211.2929.1013.59781.18976 1.0078.22656v-1.4844c-.4088-.0364-.71376-.12566-1.0059-.22656-.5421-.187-1.0438-.41406-2.1035-.41406h-.001953c-1.977 0-1.9781.64062-3.9551.64062h-.007812c-1.7477-.0012-1.9466-.50329-3.3477-.61719-.17833-.014401-.377-.023438-.59961-.023438zm-7.3125 2.9238v2.3906h18.303v-.054687c.0095 8e-4.02175.000653.03125.001953v-1.7266c-1.2003-.2173-1.4535-.5952-3.1094-.5957h-.001953c-.0616 0-.12179.000653-.17969.001953-1.8003.041-1.8601.69727-3.7754.69727h-.009765c-1.9678-.0022-1.9713-.69922-3.9453-.69922-1.9157 0-1.9756.65617-3.7754.69727-.05792.0012-.11608.001953-.17773.001953h-.0039063c-1.7398-9e-4-1.9769-.66644-3.3555-.71484z" fill="#281414"/>
</svg>
