<?xml version="1.0" encoding="UTF-8"?>
<svg width="20" height="20" fill="none" version="1.1" viewBox="0 0 20 20" xmlns="http://www.w3.org/2000/svg">
 <path d="m18.12 9.0774-7.7149-6.7127c-.2327-.20236-.57916-.20236-.81151 0l-7.7153 6.7127c-.13519.11744-.21249.2877-.21249.46641v7.6244c0 .3413.2767.6185.61847.6185h2.1744v-8.1766c0-.28222.22855-.51078.51075-.51078h3.2373c.2822 0 .51075.22856.51075.51078v8.1766h8.9966c.3414 0 .6185-.2768.6185-.6185v-7.6244c0-.17913-.0773-.34897-.2125-.46641zm-2.5804 2.7338c0 .1977-.1601.3578-.3578.3578h-3.6099c-.1977 0-.3578-.1601-.3578-.3578v-2.354c0-.19772.1601-.35784.3578-.35784h3.6099c.1977 0 .3578.16012.3578.35784v2.354z" fill="#281414"/>
</svg>
