<?xml version="1.0" encoding="UTF-8"?>
<svg width="20" height="20" fill="none" version="1.1" viewBox="0 0 20 20" xmlns="http://www.w3.org/2000/svg">
 <path d="m10 .9668c-.14077 0-.2796.049685-.39258.15039l-7.5039 6.6816c-.13146.11689-.20703.28503-.20703.46289v4.5898c.65116.1627 1.101.33594 2.3359.33594h.0019531c.13557 0 .26059-.002813.37891-.007812v-4.8516c0-.28089.22166-.50781.49609-.50781h3.1484c.27443 0 .49609.22692.49609.50781v4.3066c1.3927.1022 1.5905.55273 3.332.55273h.001953c1.9633 0 1.9628-.57422 3.9258-.57422h.001953c1.0522 0 1.5516.20329 2.0898.37109v-4.7227c0-.17828-.075632-.346-.20703-.46289l-7.502-6.6816c-.1132-.10071-.25572-.15039-.39648-.15039zm1.5312 6.8535h3.5098c.1922 0 .34766.15869.34766.35547v2.3437c0 .1968-.15586.35547-.34766.35547h-3.5098c-.1923 0-.34766-.15867-.34766-.35547v-2.3437c0-.19678.15536-.35547.34766-.35547zm-3.3828 5.8984c-1.8404 0-1.9701.62474-3.5742.71094-.11875.0066-.24432.009765-.38086.009765h-.0019532c-1.2438 0-1.6958-.21848-2.3516-.42188-.27515-.0854-.5863-.16747-1.0059-.23047v1.6699c.41997.063.73112.14507 1.0059.23047.65581.2038 1.1078.42383 2.3516.42383h.0019532c.13654 0 .26169-.003166.38086-.009766 1.6042-.0862 1.7338-.71044 3.5742-.71094.2226 0 .41974.009091.59766.025391 1.4035.1276 1.6016.69531 3.3555.69531 1.9773 0 1.9781-.7207 3.9551-.7207 1.0584 0 1.5623.25299 2.1035.46289.293.114.59781.21446 1.0078.25586v-1.6699c-.4088-.0409-.71376-.14226-1.0059-.25586-.542-.2104-1.0439-.46484-2.1035-.46484h-.001953c-1.977 0-1.9782.7207-3.9551.7207h-.005859c-1.7477-.0014-1.9486-.56526-3.3496-.69336-.17833-.0163-.37505-.027344-.59766-.027344zm-7.3145 2.9238v2.3906h18.303v-.054687c.0095 8e-4.02175.000653.03125.001953v-1.7266c-1.2003-.2173-1.4531-.5952-3.1094-.5957h-.001953c-.0616 0-.12179.000653-.17969.001953-1.8003.041-1.8601.69727-3.7754.69727h-.009765c-1.9674-.0022-1.9713-.69922-3.9453-.69922-1.9157 0-1.9756.65617-3.7754.69727-.05792.0012-.11608.001953-.17773.001953h-.0039063c-1.7398-9e-4-1.9769-.66644-3.3555-.71484z" fill="#281414"/>
</svg>
