<svg width="32" height="33" viewBox="0 0 32 33" fill="none" xmlns="http://www.w3.org/2000/svg">
<g filter="url(#filter0_d_14170_134841)">
<path d="M2 9.5C2 5.08172 5.58172 1.5 10 1.5H22C26.4183 1.5 30 5.08172 30 9.5V21.5C30 25.9183 26.4183 29.5 22 29.5H10C5.58172 29.5 2 25.9183 2 21.5V9.5Z" fill="#281414"/>
<g clip-path="url(#clip0_14170_134841)">
<path d="M16.0022 7.50098C16.3418 7.50098 16.6174 7.77659 16.6174 8.11621V9.99609C19.183 10.2798 21.2228 12.3202 21.5071 14.8857H23.387C23.7266 14.8858 24.0022 15.1613 24.0022 15.501C24.0022 15.8406 23.7266 16.1161 23.387 16.1162H21.5071C21.2234 18.6817 19.183 20.7216 16.6174 21.0059V22.8857C16.6174 23.2254 16.3418 23.501 16.0022 23.501C15.6626 23.501 15.387 23.2254 15.387 22.8857V21.0059C12.8214 20.7222 10.7816 18.6817 10.4973 16.1162H8.61743C8.27781 16.1161 8.0022 15.8406 8.0022 15.501C8.0022 15.1613 8.27781 14.8858 8.61743 14.8857H10.4973C10.781 12.3202 12.8214 10.2804 15.387 9.99609V8.11621C15.387 7.77659 15.6626 7.50098 16.0022 7.50098ZM16.0022 11.1934C13.625 11.1934 11.6946 13.1237 11.6946 15.501C11.6946 17.8782 13.625 19.8086 16.0022 19.8086C18.3794 19.8086 20.3098 17.8782 20.3098 15.501C20.3098 13.1237 18.3794 11.1934 16.0022 11.1934ZM16.0022 12.4238C17.7015 12.4238 19.0793 13.8016 19.0793 15.501C19.0793 17.2003 17.7015 18.5781 16.0022 18.5781C14.3029 18.5781 12.925 17.2003 12.925 15.501C12.925 13.8016 14.3029 12.4238 16.0022 12.4238Z" fill="#F9F3EA"/>
</g>
</g>
<defs>
<filter id="filter0_d_14170_134841" x="-2.38419e-07" y="0.5" width="32" height="32" filterUnits="userSpaceOnUse" color-interpolation-filters="sRGB">
<feFlood flood-opacity="0" result="BackgroundImageFix"/>
<feColorMatrix in="SourceAlpha" type="matrix" values="0 0 0 0 0 0 0 0 0 0 0 0 0 0 0 0 0 0 127 0" result="hardAlpha"/>
<feOffset dy="1"/>
<feGaussianBlur stdDeviation="1"/>
<feColorMatrix type="matrix" values="0 0 0 0 0 0 0 0 0 0 0 0 0 0 0 0 0 0 0.3 0"/>
<feBlend mode="normal" in2="BackgroundImageFix" result="effect1_dropShadow_14170_134841"/>
<feBlend mode="normal" in="SourceGraphic" in2="effect1_dropShadow_14170_134841" result="shape"/>
</filter>
<clipPath id="clip0_14170_134841">
<rect width="16" height="16" fill="white" transform="translate(8 7.5)"/>
</clipPath>
</defs>
</svg>
