<svg width="28" height="29" viewBox="0 0 28 29" fill="none" xmlns="http://www.w3.org/2000/svg">
<rect y="0.5" width="28" height="28" rx="14" fill="#B83D13"/>
<g clip-path="url(#clip0_14170_134820)">
<path d="M14.001 8.81738C15.1316 8.81738 16.2161 9.26698 17.0156 10.0664C17.8151 10.8659 18.2646 11.9504 18.2646 13.0811C18.2644 16.1462 14.001 20.1865 14.001 20.1865C13.9898 20.176 9.73852 16.1422 9.73828 13.0811C9.73828 11.9504 10.1878 10.8659 10.9873 10.0664C11.7867 9.2671 12.8705 8.81751 14.001 8.81738ZM14.001 10.9492C13.4359 10.9493 12.8938 11.1737 12.4941 11.5732C12.0944 11.973 11.8701 12.5157 11.8701 13.0811C11.8702 13.6462 12.0945 14.1882 12.4941 14.5879C12.8938 14.9875 13.4358 15.2118 14.001 15.2119C14.5663 15.2119 15.109 14.9876 15.5088 14.5879C15.9084 14.1882 16.1327 13.6462 16.1328 13.0811C16.1328 12.5157 15.9085 11.973 15.5088 11.5732C15.1091 11.1736 14.5663 10.9492 14.001 10.9492Z" fill="#F9F3EA"/>
</g>
<defs>
<clipPath id="clip0_14170_134820">
<rect width="11.3684" height="11.3684" fill="white" transform="translate(8.3158 8.81543)"/>
</clipPath>
</defs>
</svg>
