<svg width="32" height="32" viewBox="0 0 32 32" fill="none" xmlns="http://www.w3.org/2000/svg">
<g id="wrapper">
<path id="Union" fill-rule="evenodd" clip-rule="evenodd" d="M15.2972 9.2931C15.3901 9.19997 15.5004 9.12609 15.6219 9.07568C15.7434 9.02526 15.8736 8.99931 16.0052 8.99931C16.1367 8.99931 16.2669 9.02526 16.3884 9.07568C16.5099 9.12609 16.6203 9.19997 16.7132 9.2931L28.7132 21.2931C28.9009 21.4809 29.0064 21.7355 29.0064 22.0011C29.0064 22.2667 28.9009 22.5213 28.7132 22.7091C28.5254 22.8969 28.2707 23.0024 28.0052 23.0024C27.7396 23.0024 27.4849 22.8969 27.2972 22.7091L16.0052 11.4151L4.71317 22.7091C4.5254 22.8969 4.27072 23.0024 4.00517 23.0024C3.73962 23.0024 3.48494 22.8969 3.29717 22.7091C3.1094 22.5213 3.00391 22.2667 3.00391 22.0011C3.00391 21.7355 3.1094 21.4809 3.29717 21.2931L15.2972 9.2931Z" fill="#281414"/>
</g>
</svg>
