<svg width="32" height="32" viewBox="0 0 32 32" fill="none" xmlns="http://www.w3.org/2000/svg">
<g id="wrapper">
<path id="Union" fill-rule="evenodd" clip-rule="evenodd" d="M3.29769 9.29309C3.39059 9.19996 3.50094 9.12607 3.62243 9.07566C3.74392 9.02525 3.87416 8.9993 4.00569 8.9993C4.13723 8.9993 4.26747 9.02525 4.38896 9.07566C4.51045 9.12607 4.6208 9.19996 4.71369 9.29309L16.0057 20.5871L27.2977 9.29309C27.3907 9.20011 27.501 9.12636 27.6225 9.07604C27.744 9.02572 27.8742 8.99982 28.0057 8.99982C28.1372 8.99982 28.2674 9.02572 28.3889 9.07604C28.5103 9.12636 28.6207 9.20011 28.7137 9.29309C28.8067 9.38606 28.8804 9.49644 28.9307 9.61792C28.9811 9.7394 29.007 9.8696 29.007 10.0011C29.007 10.1326 28.9811 10.2628 28.9307 10.3843C28.8804 10.5057 28.8067 10.6161 28.7137 10.7091L16.7137 22.7091C16.6208 22.8022 16.5105 22.8761 16.389 22.9265C16.2675 22.9769 16.1372 23.0029 16.0057 23.0029C15.8742 23.0029 15.7439 22.9769 15.6224 22.9265C15.5009 22.8761 15.3906 22.8022 15.2977 22.7091L3.29769 10.7091C3.20457 10.6162 3.13068 10.5058 3.08027 10.3844C3.02986 10.2629 3.00391 10.1326 3.00391 10.0011C3.00391 9.86955 3.02986 9.73931 3.08027 9.61782C3.13068 9.49633 3.20457 9.38598 3.29769 9.29309Z" fill="#281414"/>
</g>
</svg>
