<svg width="14" height="14" viewBox="0 0 14 14" fill="none" xmlns="http://www.w3.org/2000/svg">
<g id="wrapper">
<path id="Union" d="M7 0.00012207C8.85652 0.00012207 10.637 0.73762 11.9497 2.05037C13.2625 3.36313 14 5.14361 14 7.00012C14 8.85664 13.2625 10.6371 11.9497 11.9499C10.637 13.2626 8.85652 14.0001 7 14.0001C5.14348 14.0001 3.36301 13.2626 2.05025 11.9499C0.737498 10.6371 0 8.85664 0 7.00012C0 5.14361 0.737498 3.36313 2.05025 2.05037C3.36301 0.73762 5.14348 0.00012207 7 0.00012207ZM3.9375 6.56262C3.82147 6.56262 3.71019 6.60872 3.62814 6.69076C3.54609 6.77281 3.5 6.88409 3.5 7.00012C3.5 7.11615 3.54609 7.22743 3.62814 7.30948C3.71019 7.39153 3.82147 7.43762 3.9375 7.43762H9.00638L7.12775 9.31537C7.08707 9.35605 7.05481 9.40434 7.03279 9.45749C7.01078 9.51063 6.99945 9.5676 6.99945 9.62512C6.99945 9.68265 7.01078 9.73961 7.03279 9.79276C7.05481 9.8459 7.08707 9.8942 7.12775 9.93487C7.16843 9.97555 7.21672 10.0078 7.26986 10.0298C7.32301 10.0518 7.37997 10.0632 7.4375 10.0632C7.49503 10.0632 7.55199 10.0518 7.60514 10.0298C7.65828 10.0078 7.70657 9.97555 7.74725 9.93487L10.3722 7.30987C10.413 7.26923 10.4453 7.22095 10.4674 7.1678C10.4894 7.11465 10.5008 7.05767 10.5008 7.00012C10.5008 6.94258 10.4894 6.88559 10.4674 6.83244C10.4453 6.77929 10.413 6.73101 10.3722 6.69037L7.74725 4.06537C7.70657 4.02469 7.65828 3.99243 7.60514 3.97041C7.55199 3.9484 7.49503 3.93707 7.4375 3.93707C7.37997 3.93707 7.32301 3.9484 7.26986 3.97041C7.21672 3.99243 7.16843 4.02469 7.12775 4.06537C7.08707 4.10605 7.05481 4.15434 7.03279 4.20749C7.01078 4.26063 6.99945 4.3176 6.99945 4.37512C6.99945 4.43265 7.01078 4.48961 7.03279 4.54276C7.05481 4.5959 7.08707 4.6442 7.12775 4.68487L9.00638 6.56262H3.9375Z" fill="#235540"/>
</g>
</svg>
