<svg width="16" height="17" viewBox="0 0 16 17" fill="none" xmlns="http://www.w3.org/2000/svg">
<path d="M4.00391 0.673828H9.29691C9.5621 0.673885 9.81641 0.779279 10.0039 0.966828L13.7109 4.67383C13.8985 4.86132 14.0038 5.11563 14.0039 5.38083V14.6738C14.0039 15.2043 13.7932 15.713 13.4181 16.088C13.043 16.4631 12.5343 16.6738 12.0039 16.6738H4.00391C3.47347 16.6738 2.96477 16.4631 2.58969 16.088C2.21462 15.713 2.00391 15.2043 2.00391 14.6738V2.67383C2.00391 2.1434 2.21462 1.63469 2.58969 1.25961C2.96477 0.884542 3.47347 0.673828 4.00391 0.673828V0.673828ZM9.50391 2.17383V4.17383C9.50391 4.43904 9.60926 4.6934 9.7968 4.88093C9.98434 5.06847 10.2387 5.17383 10.5039 5.17383H12.5039L9.50391 2.17383Z" fill="#F9F3EA"/>
</svg>
