<?xml version="1.0" encoding="UTF-8"?>
<svg width="41.5" height="41.5" fill="none" version="1.1" viewBox="0 0 41.5 41.5" xmlns="http://www.w3.org/2000/svg">
 <rect x=".75" y=".75" width="40" height="40" rx="8" ry="8" fill="#f9c9b9"/>
 <rect x=".75" y=".75" width="40" height="40" rx="8" ry="8" stroke="#ee6f44" stroke-dasharray="6, 4" stroke-linecap="round" stroke-width="1.5"/>
 <path d="m32.015 26.74c.0997-3e-4.199.0194.291.0576.0919.0383.1752.0944.2452.1651.07.0709.1259.1555.163.248.0372.0927.0554.1922.0537.292-.0016.0996-.0234.1979-.0634.2891-.0402.0913-.0985.1745-.1709.2431s-.1577.1221-.251.1573l-2.6377 1.0547c-.8939.3574-1.8913.3575-2.7852 0l-1.5205-.6094c-.5363-.2145-1.1355-.2145-1.6718 0l-1.5225.6094c-.8939.3574-1.8913.3575-2.7852 0l-1.5205-.6094c-.5363-.2145-1.1355-.2145-1.6718 0l-1.5225.6094c-.8939.3574-1.8913.3575-2.7852 0l-2.6357-1.0547c-.1845-.0741-.332-.2186-.4102-.4014-.0781-.1828-.0807-.3896-.0068-.5742.0741-.1845.2186-.332.4014-.4102s.3896-.0808.5742-.0068l2.6348 1.0547c.5363.2145 1.1355.2145 1.6718 0l1.5205-.6084c.894-.3576 1.8912-.3576 2.7852 0l1.5225.6084c.5363.2145 1.1355.2145 1.6718 0l1.5205-.6084c.894-.3576 1.8912-.3576 2.7852 0l1.5225.6084c.5363.2145 1.1355.2145 1.6718 0l2.6348-1.0547c.0919-.0391.1912-.0592.291-.0596zm0-4.5c.0997-3e-4.199.0194.291.0576.0919.0383.1752.0944.2452.1651.07.0709.1259.1555.163.248.0372.0927.0554.1922.0537.292-.0016.0996-.0234.1979-.0634.2891-.0402.0913-.0985.1745-.1709.2431s-.1577.1221-.251.1573l-2.6377 1.0547c-.8939.3574-1.8913.3575-2.7852 0l-1.5205-.6094c-.5363-.2145-1.1355-.2145-1.6718 0l-1.5225.6094c-.8939.3574-1.8913.3575-2.7852 0l-1.5205-.6094c-.5363-.2145-1.1355-.2145-1.6718 0l-1.5225.6094c-.8939.3574-1.8913.3575-2.7852 0l-2.6357-1.0547c-.1845-.0741-.332-.2186-.4102-.4014-.0781-.1828-.0807-.3896-.0068-.5742.0741-.1845.2186-.332.4014-.4102s.3896-.0808.5742-.0068l2.6348 1.0547c.5363.2145 1.1355.2145 1.6718 0l1.5205-.6084c.894-.3576 1.8912-.3576 2.7852 0l1.5225.6084c.5363.2145 1.1355.2145 1.6718 0l1.5205-.6084c.894-.3576 1.8912-.3576 2.7852 0l1.5225.6084c.5363.2145 1.1355.2145 1.6718 0l2.6348-1.0547c.0919-.0391.1912-.0592.291-.0596zm0-4.5c.0997-3e-4.199.0194.291.0576.0919.0383.1752.0944.2452.1651.07.0709.1259.1555.163.248.0372.0927.0554.1922.0537.292-.0016.0996-.0234.1979-.0634.2891-.0402.0913-.0985.1745-.1709.2431s-.1577.1221-.251.1573l-2.6377 1.0547c-.8939.3574-1.8913.3575-2.7852 0l-1.5205-.6094c-.5363-.2145-1.1355-.2145-1.6718 0l-1.5225.6094c-.8939.3574-1.8913.3575-2.7852 0l-1.5205-.6094c-.5363-.2145-1.1355-.2145-1.6718 0l-1.5225.6094c-.8939.3574-1.8913.3575-2.7852 0l-2.6357-1.0547c-.1845-.0741-.332-.2186-.4102-.4014-.0781-.1828-.0807-.3896-.0068-.5742.0741-.1845.2186-.332.4014-.4102s.3896-.0808.5742-.0068l2.6348 1.0547c.5363.2145 1.1355.2145 1.6718 0l1.5205-.6084c.894-.3576 1.8912-.3576 2.7852 0l1.5225.6084c.5363.2145 1.1355.2145 1.6718 0l1.5205-.6084c.894-.3576 1.8912-.3576 2.7852 0l1.5225.6084c.5363.2145 1.1355.2145 1.6718 0l2.6348-1.0547c.0919-.0391.1912-.0592.291-.0596zm0-4.5c.0997-3e-4.199.0194.291.0576.0919.0383.1752.0944.2452.1651.07.0709.1259.1555.163.248.0372.0927.0554.1922.0537.292-.0016.0996-.0234.1979-.0634.2891-.0402.0913-.0985.1745-.1709.2431s-.1577.1221-.251.1573l-2.6377 1.0547c-.8939.3574-1.8913.3575-2.7852 0l-1.5205-.6094c-.5363-.2145-1.1355-.2145-1.6718 0l-1.5225.6094c-.8939.3574-1.8913.3575-2.7852 0l-1.5205-.6094c-.5363-.2145-1.1355-.2145-1.6718 0l-1.5225.6094c-.8939.3574-1.8913.3575-2.7852 0l-2.6357-1.0547c-.1845-.0741-.332-.2186-.4102-.4014-.0781-.1828-.0807-.3896-.0068-.5742.0741-.1845.2186-.332.4014-.4102s.3896-.0808.5742-.0068l2.6348 1.0547c.5363.2145 1.1355.2145 1.6718 0l1.5205-.6084c.894-.3576 1.8912-.3576 2.7852 0l1.5225.6084c.5363.2145 1.1355.2145 1.6718 0l1.5205-.6084c.894-.3576 1.8912-.3576 2.7852 0l1.5225.6084c.5363.2145 1.1355.2145 1.6718 0l2.6348-1.0547c.0919-.0391.1912-.0592.291-.0596z" fill="#ee6f44"/>
</svg>
