<?xml version="1.0" encoding="UTF-8"?>
<svg width="40" height="40" version="1.1" viewBox="0 0 40 40" xmlns="http://www.w3.org/2000/svg">
 <path d="m0 8c0-4.4183 3.5817-8 8-8h24c4.4183 0 8 3.5817 8 8v24c0 4.4183-3.5817 8-8 8h-24c-4.4183 0-8-3.5817-8-8z" fill="#7a280c"/>
 <path d="m31.265 25.995c.0997-4e-4.199.0194.2911.0576.0918.0383.1751.0944.2451.1651.0701.0709.1259.1555.1631.248.0371.0927.0553.1922.0537.292-.0017.0996-.0234.1979-.0635.2891-.0402.0913-.0984.1745-.1709.2431-.0724.0686-.1577.1221-.251.1573l-2.6377 1.0547c-.8939.3574-1.8912.3575-2.7851 0l-1.5205-.6094c-.5364-.2145-1.1356-.2145-1.6719 0l-1.5225.6094c-.8939.3574-1.8912.3575-2.7851 0l-1.5205-.6094c-.5364-.2145-1.1356-.2145-1.6719 0l-1.5225.6094c-.8939.3574-1.8912.3575-2.7851 0l-2.6358-1.0547c-.1844-.0741-.332-.2186-.4101-.4014-.0782-.1828-.0808-.3896-.0069-.5742.0741-.1845.2187-.332.4014-.4102.1828-.0782.3896-.0808.5742-.0068l2.6348 1.0547c.5363.2145 1.1355.2145 1.6719 0l1.5205-.6084c.894-.3576 1.8911-.3576 2.7851 0l1.5225.6084c.5363.2145 1.1355.2145 1.6719 0l1.5205-.6084c.894-.3576 1.8911-.3576 2.7851 0l1.5225.6084c.5363.2145 1.1355.2145 1.6719 0l2.6347-1.0547c.0919-.0391.1912-.0592.291-.0596zm0-4.5c.0997-4e-4.199.0194.2911.0576.0918.0383.1751.0944.2451.1651.0701.0709.1259.1555.1631.248.0371.0927.0553.1922.0537.292-.0017.0996-.0234.1979-.0635.2891-.0402.0913-.0984.1745-.1709.2431-.0724.0686-.1577.1221-.251.1573l-2.6377 1.0547c-.8939.3574-1.8912.3575-2.7851 0l-1.5205-.6094c-.5364-.2145-1.1356-.2145-1.6719 0l-1.5225.6094c-.8939.3574-1.8912.3575-2.7851 0l-1.5205-.6094c-.5364-.2145-1.1356-.2145-1.6719 0l-1.5225.6094c-.8939.3574-1.8912.3575-2.7851 0l-2.6358-1.0547c-.1844-.0741-.332-.2186-.4101-.4014-.0782-.1828-.0808-.3896-.0069-.5742.0741-.1845.2187-.332.4014-.4102.1828-.0782.3896-.0808.5742-.0068l2.6348 1.0547c.5363.2145 1.1355.2145 1.6719 0l1.5205-.6084c.894-.3576 1.8911-.3576 2.7851 0l1.5225.6084c.5363.2145 1.1355.2145 1.6719 0l1.5205-.6084c.894-.3576 1.8911-.3576 2.7851 0l1.5225.6084c.5363.2145 1.1355.2145 1.6719 0l2.6347-1.0547c.0919-.0391.1912-.0592.291-.0596zm0-4.5c.0997-4e-4.199.0194.2911.0576.0918.0383.1751.0944.2451.1651.0701.0709.1259.1555.1631.248.0371.0927.0553.1922.0537.292-.0017.0996-.0234.1979-.0635.2891-.0402.0913-.0984.1745-.1709.2431-.0724.0686-.1577.1221-.251.1573l-2.6377 1.0547c-.8939.3574-1.8912.3575-2.7851 0l-1.5205-.6094c-.5364-.2145-1.1356-.2145-1.6719 0l-1.5225.6094c-.8939.3574-1.8912.3575-2.7851 0l-1.5205-.6094c-.5364-.2145-1.1356-.2145-1.6719 0l-1.5225.6094c-.8939.3574-1.8912.3575-2.7851 0l-2.6358-1.0547c-.1844-.0741-.332-.2186-.4101-.4014-.0782-.1828-.0808-.3896-.0069-.5742.0741-.1845.2187-.332.4014-.4102.1828-.0782.3896-.0808.5742-.0068l2.6348 1.0547c.5363.2145 1.1355.2145 1.6719 0l1.5205-.6084c.894-.3576 1.8911-.3576 2.7851 0l1.5225.6084c.5363.2145 1.1355.2145 1.6719 0l1.5205-.6084c.894-.3576 1.8911-.3576 2.7851 0l1.5225.6084c.5363.2145 1.1355.2145 1.6719 0l2.6347-1.0547c.0919-.0391.1912-.0592.291-.0596zm0-4.5c.0997-4e-4.199.0194.2911.0576.0918.0383.1751.0944.2451.1651.0701.0709.1259.1555.1631.248.0371.0927.0553.1922.0537.292-.0017.0996-.0234.1979-.0635.2891-.0402.0913-.0984.1745-.1709.2431-.0724.0686-.1577.1221-.251.1573l-2.6377 1.0547c-.8939.3574-1.8912.3575-2.7851 0l-1.5205-.6094c-.5364-.2145-1.1356-.2145-1.6719 0l-1.5225.6094c-.8939.3574-1.8912.3575-2.7851 0l-1.5205-.6094c-.5364-.2145-1.1356-.2145-1.6719 0l-1.5225.6094c-.8939.3574-1.8912.3575-2.7851 0l-2.6358-1.0547c-.1844-.0741-.332-.2186-.4101-.4014-.0782-.1828-.0808-.3896-.0069-.5742.0741-.1845.2187-.332.4014-.4102.1828-.0782.3896-.0808.5742-.0068l2.6348 1.0547c.5363.2145 1.1355.2145 1.6719 0l1.5205-.6084c.894-.3576 1.8911-.3576 2.7851 0l1.5225.6084c.5363.2145 1.1355.2145 1.6719 0l1.5205-.6084c.894-.3576 1.8911-.3576 2.7851 0l1.5225.6084c.5363.2145 1.1355.2145 1.6719 0l2.6347-1.0547c.0919-.0391.1912-.0592.291-.0596z" fill="#f9f3ea"/>
</svg>
