<svg width="44" height="44" viewBox="0 0 44 44" fill="none" xmlns="http://www.w3.org/2000/svg">
<g filter="url(#filter0_d_14170_135529)">
<path d="M2 9C2 4.58172 5.58172 1 10 1H34C38.4183 1 42 4.58172 42 9V33C42 37.4183 38.4183 41 34 41H10C5.58172 41 2 37.4183 2 33V9Z" fill="#7A280C"/>
<g clip-path="url(#clip0_14170_135529)">
<path d="M33.2646 26.9951C33.3643 26.9947 33.4636 27.0145 33.5557 27.0527C33.6475 27.091 33.7308 27.1471 33.8008 27.2178C33.8709 27.2887 33.9267 27.3733 33.9639 27.4658C34.001 27.5585 34.0192 27.658 34.0176 27.7578C34.0159 27.8574 33.9942 27.9557 33.9541 28.0469C33.9139 28.1382 33.8557 28.2214 33.7832 28.29C33.7108 28.3586 33.6255 28.4121 33.5322 28.4473L30.8945 29.502C30.0006 29.8594 29.0033 29.8595 28.1094 29.502L26.5889 28.8926C26.0525 28.6781 25.4533 28.6781 24.917 28.8926L23.3945 29.502C22.5006 29.8594 21.5033 29.8595 20.6094 29.502L19.0889 28.8926C18.5525 28.6781 17.9533 28.6781 17.417 28.8926L15.8945 29.502C15.0006 29.8594 14.0033 29.8595 13.1094 29.502L10.4736 28.4473C10.2892 28.3732 10.1416 28.2287 10.0635 28.0459C9.9853 27.8631 9.9827 27.6563 10.0566 27.4717C10.1307 27.2872 10.2753 27.1397 10.458 27.0615C10.6408 26.9833 10.8476 26.9807 11.0322 27.0547L13.667 28.1094C14.2033 28.3239 14.8025 28.3239 15.3389 28.1094L16.8594 27.501C17.7534 27.1434 18.7505 27.1434 19.6445 27.501L21.167 28.1094C21.7033 28.3239 22.3025 28.3239 22.8389 28.1094L24.3594 27.501C25.2534 27.1434 26.2505 27.1434 27.1445 27.501L28.667 28.1094C29.2033 28.3239 29.8025 28.3239 30.3389 28.1094L32.9736 27.0547C33.0655 27.0156 33.1648 26.9955 33.2646 26.9951ZM33.2646 22.4951C33.3643 22.4947 33.4636 22.5145 33.5557 22.5527C33.6475 22.591 33.7308 22.6471 33.8008 22.7178C33.8709 22.7887 33.9267 22.8733 33.9639 22.9658C34.001 23.0585 34.0192 23.158 34.0176 23.2578C34.0159 23.3574 33.9942 23.4557 33.9541 23.5469C33.9139 23.6382 33.8557 23.7214 33.7832 23.79C33.7108 23.8586 33.6255 23.9121 33.5322 23.9473L30.8945 25.002C30.0006 25.3594 29.0033 25.3595 28.1094 25.002L26.5889 24.3926C26.0525 24.1781 25.4533 24.1781 24.917 24.3926L23.3945 25.002C22.5006 25.3594 21.5033 25.3595 20.6094 25.002L19.0889 24.3926C18.5525 24.1781 17.9533 24.1781 17.417 24.3926L15.8945 25.002C15.0006 25.3594 14.0033 25.3595 13.1094 25.002L10.4736 23.9473C10.2892 23.8732 10.1416 23.7287 10.0635 23.5459C9.9853 23.3631 9.9827 23.1563 10.0566 22.9717C10.1307 22.7872 10.2753 22.6397 10.458 22.5615C10.6408 22.4833 10.8476 22.4807 11.0322 22.5547L13.667 23.6094C14.2033 23.8239 14.8025 23.8239 15.3389 23.6094L16.8594 23.001C17.7534 22.6434 18.7505 22.6434 19.6445 23.001L21.167 23.6094C21.7033 23.8239 22.3025 23.8239 22.8389 23.6094L24.3594 23.001C25.2534 22.6434 26.2505 22.6434 27.1445 23.001L28.667 23.6094C29.2033 23.8239 29.8025 23.8239 30.3389 23.6094L32.9736 22.5547C33.0655 22.5156 33.1648 22.4955 33.2646 22.4951ZM33.2646 17.9951C33.3643 17.9947 33.4636 18.0145 33.5557 18.0527C33.6475 18.091 33.7308 18.1471 33.8008 18.2178C33.8709 18.2887 33.9267 18.3733 33.9639 18.4658C34.001 18.5585 34.0192 18.658 34.0176 18.7578C34.0159 18.8574 33.9942 18.9557 33.9541 19.0469C33.9139 19.1382 33.8557 19.2214 33.7832 19.29C33.7108 19.3586 33.6255 19.4121 33.5322 19.4473L30.8945 20.502C30.0006 20.8594 29.0033 20.8595 28.1094 20.502L26.5889 19.8926C26.0525 19.6781 25.4533 19.6781 24.917 19.8926L23.3945 20.502C22.5006 20.8594 21.5033 20.8595 20.6094 20.502L19.0889 19.8926C18.5525 19.6781 17.9533 19.6781 17.417 19.8926L15.8945 20.502C15.0006 20.8594 14.0033 20.8595 13.1094 20.502L10.4736 19.4473C10.2892 19.3732 10.1416 19.2287 10.0635 19.0459C9.9853 18.8631 9.9827 18.6563 10.0566 18.4717C10.1307 18.2872 10.2753 18.1397 10.458 18.0615C10.6408 17.9833 10.8476 17.9807 11.0322 18.0547L13.667 19.1094C14.2033 19.3239 14.8025 19.3239 15.3389 19.1094L16.8594 18.501C17.7534 18.1434 18.7505 18.1434 19.6445 18.501L21.167 19.1094C21.7033 19.3239 22.3025 19.3239 22.8389 19.1094L24.3594 18.501C25.2534 18.1434 26.2505 18.1434 27.1445 18.501L28.667 19.1094C29.2033 19.3239 29.8025 19.3239 30.3389 19.1094L32.9736 18.0547C33.0655 18.0156 33.1648 17.9955 33.2646 17.9951ZM33.2646 13.4951C33.3643 13.4947 33.4636 13.5145 33.5557 13.5527C33.6475 13.591 33.7308 13.6471 33.8008 13.7178C33.8709 13.7887 33.9267 13.8733 33.9639 13.9658C34.001 14.0585 34.0192 14.158 34.0176 14.2578C34.0159 14.3574 33.9942 14.4557 33.9541 14.5469C33.9139 14.6382 33.8557 14.7214 33.7832 14.79C33.7108 14.8586 33.6255 14.9121 33.5322 14.9473L30.8945 16.002C30.0006 16.3594 29.0033 16.3595 28.1094 16.002L26.5889 15.3926C26.0525 15.1781 25.4533 15.1781 24.917 15.3926L23.3945 16.002C22.5006 16.3594 21.5033 16.3595 20.6094 16.002L19.0889 15.3926C18.5525 15.1781 17.9533 15.1781 17.417 15.3926L15.8945 16.002C15.0006 16.3594 14.0033 16.3595 13.1094 16.002L10.4736 14.9473C10.2892 14.8732 10.1416 14.7287 10.0635 14.5459C9.9853 14.3631 9.9827 14.1563 10.0566 13.9717C10.1307 13.7872 10.2753 13.6397 10.458 13.5615C10.6408 13.4833 10.8476 13.4807 11.0322 13.5547L13.667 14.6094C14.2033 14.8239 14.8025 14.8239 15.3389 14.6094L16.8594 14.001C17.7534 13.6434 18.7505 13.6434 19.6445 14.001L21.167 14.6094C21.7033 14.8239 22.3025 14.8239 22.8389 14.6094L24.3594 14.001C25.2534 13.6434 26.2505 13.6434 27.1445 14.001L28.667 14.6094C29.2033 14.8239 29.8025 14.8239 30.3389 14.6094L32.9736 13.5547C33.0655 13.5156 33.1648 13.4955 33.2646 13.4951Z" fill="#F9F3EA"/>
</g>
</g>
<defs>
<filter id="filter0_d_14170_135529" x="0" y="0" width="44" height="44" filterUnits="userSpaceOnUse" color-interpolation-filters="sRGB">
<feFlood flood-opacity="0" result="BackgroundImageFix"/>
<feColorMatrix in="SourceAlpha" type="matrix" values="0 0 0 0 0 0 0 0 0 0 0 0 0 0 0 0 0 0 127 0" result="hardAlpha"/>
<feOffset dy="1"/>
<feGaussianBlur stdDeviation="1"/>
<feColorMatrix type="matrix" values="0 0 0 0 0 0 0 0 0 0 0 0 0 0 0 0 0 0 0.3 0"/>
<feBlend mode="normal" in2="BackgroundImageFix" result="effect1_dropShadow_14170_135529"/>
<feBlend mode="normal" in="SourceGraphic" in2="effect1_dropShadow_14170_135529" result="shape"/>
</filter>
<clipPath id="clip0_14170_135529">
<rect width="24" height="24" fill="white" transform="translate(10 9)"/>
</clipPath>
</defs>
</svg>
