<svg width="44" height="44" viewBox="0 0 44 44" fill="none" xmlns="http://www.w3.org/2000/svg">
<g filter="url(#filter0_d_14170_135532)">
<path d="M2 9C2 4.58172 5.58172 1 10 1H34C38.4183 1 42 4.58172 42 9V33C42 37.4183 38.4183 41 34 41H10C5.58172 41 2 37.4183 2 33V9Z" fill="#AA7700"/>
<g clip-path="url(#clip0_14170_135532)">
<path d="M24.2528 9.00098C24.8495 9.00098 25.4217 9.23825 25.8436 9.66016C26.2656 10.0821 26.5028 10.6543 26.5028 11.251V12.751H31.7528C31.9517 12.751 32.1424 12.8301 32.2831 12.9707C32.4237 13.1113 32.5028 13.3021 32.5028 13.501C32.5028 13.6999 32.4237 13.8906 32.2831 14.0312C32.1424 14.1719 31.9517 14.251 31.7528 14.251H30.9462L29.6669 30.2412C29.6065 30.9929 29.265 31.6946 28.7108 32.2061C28.1566 32.7175 27.4298 33.0011 26.6757 33.001H17.33C16.5761 33.001 15.8499 32.7172 15.2958 32.2061C14.7415 31.6946 14.4001 30.9929 14.3397 30.2412L13.0594 14.251H12.2528C12.0539 14.251 11.8632 14.1719 11.7225 14.0312C11.5819 13.8906 11.5028 13.6999 11.5028 13.501C11.5028 13.3021 11.5819 13.1113 11.7225 12.9707C11.8632 12.8301 12.0539 12.751 12.2528 12.751H17.5028V11.251C17.5028 10.6543 17.74 10.0821 18.162 9.66016C18.5839 9.23822 19.1561 9.001 19.7528 9.00098H24.2528ZM17.4559 15.7363C17.3564 15.7423 17.2583 15.7674 17.1688 15.8115C17.0794 15.8556 16.9999 15.9179 16.9344 15.9932C16.8692 16.0683 16.8191 16.1554 16.788 16.25C16.7568 16.3448 16.7448 16.4455 16.7528 16.5449L17.5028 29.2949C17.5069 29.3944 17.531 29.4919 17.5731 29.582C17.6153 29.6722 17.6751 29.7535 17.7489 29.8203C17.8228 29.8872 17.9097 29.9386 18.0038 29.9717C18.0979 30.0047 18.1982 30.0187 18.2977 30.0127C18.3971 30.0067 18.4945 29.9815 18.5839 29.9375C18.6732 29.8935 18.7529 29.832 18.8182 29.7568C18.8836 29.6816 18.9336 29.5937 18.9647 29.499C18.9959 29.4043 19.0078 29.3035 18.9999 29.2041L18.2499 16.4541C18.2458 16.3547 18.2217 16.2571 18.1796 16.167C18.1373 16.0768 18.0776 15.9956 18.0038 15.9287C17.9298 15.8618 17.843 15.8104 17.7489 15.7773C17.6549 15.7443 17.5554 15.7304 17.4559 15.7363ZM22.0028 15.751C21.8039 15.751 21.6132 15.8301 21.4725 15.9707C21.3319 16.1113 21.2528 16.3021 21.2528 16.501V29.251C21.2528 29.4499 21.3319 29.6406 21.4725 29.7812C21.6132 29.9219 21.8039 30.001 22.0028 30.001C22.2017 30.001 22.3924 29.9219 22.5331 29.7812C22.6737 29.6406 22.7528 29.4499 22.7528 29.251V16.501C22.7528 16.3021 22.6737 16.1113 22.5331 15.9707C22.3924 15.8301 22.2017 15.751 22.0028 15.751ZM26.5477 15.7529C26.3493 15.7415 26.1542 15.8092 26.0057 15.9414C25.8574 16.0736 25.7673 16.2596 25.7557 16.458L25.0057 29.208C24.9994 29.4034 25.0702 29.5939 25.202 29.7383C25.3339 29.8825 25.5167 29.9701 25.7118 29.9814C25.907 29.9928 26.0992 29.927 26.2469 29.7988C26.3946 29.6707 26.4865 29.4898 26.5028 29.2949L27.2528 16.5449C27.2643 16.3465 27.1964 16.1514 27.0643 16.0029C26.9321 15.8544 26.7462 15.7645 26.5477 15.7529ZM19.7528 10.501C19.5539 10.501 19.3632 10.5801 19.2225 10.7207C19.0819 10.8613 19.0028 11.0521 19.0028 11.251V12.751H25.0028V11.251C25.0028 11.0521 24.9237 10.8613 24.7831 10.7207C24.6424 10.5801 24.4517 10.501 24.2528 10.501H19.7528Z" fill="#F9F3EA"/>
</g>
</g>
<defs>
<filter id="filter0_d_14170_135532" x="0" y="0" width="44" height="44" filterUnits="userSpaceOnUse" color-interpolation-filters="sRGB">
<feFlood flood-opacity="0" result="BackgroundImageFix"/>
<feColorMatrix in="SourceAlpha" type="matrix" values="0 0 0 0 0 0 0 0 0 0 0 0 0 0 0 0 0 0 127 0" result="hardAlpha"/>
<feOffset dy="1"/>
<feGaussianBlur stdDeviation="1"/>
<feColorMatrix type="matrix" values="0 0 0 0 0 0 0 0 0 0 0 0 0 0 0 0 0 0 0.3 0"/>
<feBlend mode="normal" in2="BackgroundImageFix" result="effect1_dropShadow_14170_135532"/>
<feBlend mode="normal" in="SourceGraphic" in2="effect1_dropShadow_14170_135532" result="shape"/>
</filter>
<clipPath id="clip0_14170_135532">
<rect width="24" height="24" fill="white" transform="translate(10 9)"/>
</clipPath>
</defs>
</svg>
