<?xml version="1.0" encoding="UTF-8"?>
<svg width="41.5" height="41.5" fill="none" version="1.1" viewBox="0 0 41.5 41.5" xmlns="http://www.w3.org/2000/svg">
 <rect x=".75" y=".75" width="40" height="40" rx="8" ry="8" fill="#ffd97f"/>
 <rect x=".75" y=".75" width="40" height="40" rx="8" ry="8" stroke="#a70" stroke-dasharray="6, 4" stroke-linecap="round" stroke-width="1.5"/>
 <path d="m23.003 8.746c.5967 0 1.1689.2372 1.5908.6592.422.4219.6592.9941.6592 1.5908v1.5h5.25c.1989 0 .3896.0791.5303.2197.1406.1406.2197.3314.2197.5303s-.0791.3896-.2197.5302c-.1407.1407-.3314.2198-.5303.2198h-.8066l-1.2793 15.99c-.0604.7517-.4019 1.4534-.9561 1.9649-.5542.5114-1.281.795-2.0351.7949h-9.3457c-.7539 0-1.4801-.2838-2.0342-.7949-.5543-.5115-.8957-1.2132-.9561-1.9649l-1.2803-15.99h-.8066c-.1989 0-.3896-.0791-.5303-.2198-.1406-.1406-.2197-.3313-.2197-.5302s.0791-.3897.2197-.5303c.1407-.1406.3314-.2197.5303-.2197h5.25v-1.5c0-.5967.2372-1.1689.6592-1.5908.4219-.422.9941-.6592 1.5908-.6592zm-6.7969 6.7353c-.0995.006-.1976.0311-.2871.0752-.0894.0441-.1689.1064-.2344.1817-.0652.0751-.1153.1622-.1464.2568-.0312.0948-.0432.1955-.0352.2949l.75 12.75c.0041.0995.0282.197.0703.2871.0422.0902.102.1715.1758.2383.0739.0669.1608.1183.2549.1514.0941.033.1944.047.2939.041.0994-.006.1968-.0312.2862-.0752.0893-.044.169-.1055.2343-.1807.0654-.0752.1154-.1631.1465-.2578.0312-.0947.0431-.1955.0352-.2949l-.75-12.75c-.0041-.0994-.0282-.197-.0703-.2871-.0423-.0902-.102-.1714-.1758-.2383-.074-.0669-.1608-.1183-.2549-.1514-.094-.033-.1935-.0469-.293-.041zm4.5469.0147c-.1989 0-.3896.0791-.5303.2197-.1406.1406-.2197.3314-.2197.5303v12.75c0 .1989.0791.3896.2197.5302.1407.1407.3314.2198.5303.2198s.3896-.0791.5303-.2198c.1406-.1406.2197-.3313.2197-.5302v-12.75c0-.1989-.0791-.3897-.2197-.5303-.1407-.1406-.3314-.2197-.5303-.2197zm4.5449.0019c-.1984-.0114-.3935.0563-.542.1885-.1483.1322-.2384.3182-.25.5166l-.75 12.75c-.0063.1954.0645.3859.1963.5303.1319.1442.3147.2318.5098.2431.1952.0114.3874-.0544.5351-.1826.1477-.1281.2396-.309.2559-.5039l.75-12.75c.0115-.1984-.0564-.3935-.1885-.542-.1322-.1485-.3181-.2384-.5166-.25zm-6.7949-5.2519c-.1989 0-.3896.0791-.5303.2197-.1406.1406-.2197.3314-.2197.5303v1.5h6v-1.5c0-.1989-.0791-.3897-.2197-.5303-.1407-.1406-.3314-.2197-.5303-.2197z" fill="#a70"/>
</svg>
