<?xml version="1.0" encoding="UTF-8"?>
<svg width="60" height="60" version="1.1" viewBox="0 0 60 60" xmlns="http://www.w3.org/2000/svg">
 <path d="m0 12c0-6.6274 5.3726-12 12-12h36c6.6274 0 12 5.3726 12 12v36c0 6.6274-5.3726 12-12 12h-36c-6.6274 0-12-5.3726-12-12z" fill="#28582e"/>
 <path d="m39.918 24.378-.14505 1.125h-1.8926c-.62145.00015-1.125.50355-1.125 1.125 0 1.9068.8667 3.1148 1.7666 3.7968-.3951.1617-.8358.3834-1.2802.6885-1.2501.85935-2.7378 2.5334-2.7378 5.6382l.0015 3.375c0 .8352.3039 1.6008.81 2.1914-.07545.03765-.15945.0585-.2475.05865h-1.6875c-.2418 0-.4572-.1548-.5346-.38535l-.43515-1.3022-10.434-.01905-.6621 1.4121c-.07755.2301-.2919.38505-.53325.3852h-2.0478c-.2418 0-.4572-.1548-.53475-.3852l-.70605-1.5074c-1.5546-.0017-.98955-.01005-.9741-.0102-.0024 3e-4-.0153.0024-.0279 0-.01005-.0021-.0336-.0088-.0336-.0088-.73275-.07905-1.3089-.6465-1.3872-1.3712l-.65475-6.0761-.2799-2.5958-.79245-6.1362h14.171zm3.5859 6.6576s4.4998.5631 4.5 5.625v3.375c0 1.2432-1.0068 2.25-2.25 2.25h-7.875c-1.243 0-2.25-1.007-2.25-2.25v-3.375c3e-4-5.0508 4.4799-5.6224 4.5-5.625zm1.6509-4.5c.3432 0 .603.3042.55665.64455-.3081 2.2455-2.1906 2.7262-2.2076 2.7304h-3.375c-.0132-.0033-1.8992-.48135-2.2076-2.7304-.04635-.34035.2136-.64455.55665-.64455zm-4.4634-5.625c.31065 0 .56235.31095.5625.5625v1.125c0 .3108-.2517.5625-.5625.5625h-28.125c-.31065 0-.5625-.3108-.5625-.5625v-1.125c3e-4-.3105.252-.56235.5625-.5625zm-2.25-3.375c.2136 0 .4083.11955.504.31065h-.003l.96975 1.9394h-26.569l.96975-1.9394c.09555-.18975.29025-.3105.50385-.31065z" fill="#f9f3ea"/>
</svg>
