<?xml version="1.0" encoding="UTF-8"?>
<svg width="40" height="40" version="1.1" viewBox="0 0 40 40" xmlns="http://www.w3.org/2000/svg">
 <circle cx="20" cy="20" r="20" fill="#35763d"/>
 <path d="m27.913 16.391-.09308.72197h-1.2146c-.39882 9.5e-5-.72197.32316-.72197.72197 0 1.2237.55621 1.9989 1.1337 2.4366-.25356.10377-.53638.24605-.82157.44185-.80225.55149-1.757 1.6258-1.757 3.6183l.000941 2.1659c0 .53599.19503 1.0273.51982 1.4063-.04843.02417-.10232.03754-.15884.03764h-1.083c-.15518 0-.29341-.09934-.34308-.2473l-.27926-.83568-6.6961-.01222-.42491.90622c-.049759.14767-.18733.24711-.34222.2472h-1.3142c-.15518 0-.29341-.09934-.34318-.2472l-.45311-.96743c-.99764-.0011-.63504-.0065-.62512-.0066-.0015.000193-.0098.0015-.0179 0-.0065-.0014-.02157-.0057-.02157-.0057-.47025-.05076-.83999-.41493-.89024-.88l-.42018-3.8993-.17963-1.6659-.50856-3.9379h9.0942zm2.3013 4.2724s2.8878.36137 2.8879 3.6099v2.1659c0 .79783-.64612 1.4438-1.4439 1.4438h-5.0538c-.7977 0-1.4439-.64624-1.4439-1.4438v-2.1659c.000193-3.2414 2.875-3.6082 2.8879-3.6099zm1.0595-2.8879c.22025 0 .38698.19522.35723.41364-.19772 1.4411-1.4058 1.7496-1.4166 1.7522h-2.1659c-.0084-.0021-1.2188-.30891-1.4166-1.7522-.02975-.21842.13708-.41364.35723-.41364zm-2.8644-3.6099c.19936 0 .36089.19955.36099.36099v.72197c0 .19946-.16153.36099-.36099.36099h-18.049c-.19936 0-.36099-.19946-.36099-.36099v-.72197c.000193-.19926.16172-.36089.36099-.36099zm-1.4438-2.1659c.13708 0 .26203.07672.32344.19936h-.002l.62234 1.2446h-17.051l.62234-1.2446c.06132-.12177.18627-.19927.32335-.19936z" fill="#f9f3ea"/>
</svg>
