<svg width="14" height="15" viewBox="0 0 14 15" fill="none" xmlns="http://www.w3.org/2000/svg">
<path d="M12.25 0.5C12.7141 0.5 13.1591 0.684507 13.4873 1.0127C13.8155 1.34088 14 1.78587 14 2.25V12.75C14 13.2141 13.8155 13.6591 13.4873 13.9873C13.1591 14.3155 12.7141 14.5 12.25 14.5H1.75C1.28587 14.5 0.840884 14.3155 0.512695 13.9873C0.184507 13.6591 0 13.2141 0 12.75V2.25C0 1.78587 0.184507 1.34088 0.512695 1.0127C0.840884 0.684507 1.28587 0.5 1.75 0.5H12.25ZM1.75 3.125C1.267 3.125 0.875 3.46112 0.875 3.875V12.875C0.875 13.2889 1.267 13.625 1.75 13.625H12.25C12.733 13.625 13.125 13.2889 13.125 12.875V3.875C13.125 3.46112 12.733 3.125 12.25 3.125H1.75ZM3.0625 10.125C3.29456 10.125 3.51755 10.2168 3.68164 10.3809C3.84573 10.545 3.9375 10.7679 3.9375 11C3.9375 11.2321 3.84573 11.455 3.68164 11.6191C3.51755 11.7832 3.29456 11.875 3.0625 11.875C2.83044 11.875 2.60745 11.7832 2.44336 11.6191C2.27927 11.455 2.1875 11.2321 2.1875 11C2.1875 10.7679 2.27927 10.545 2.44336 10.3809C2.60745 10.2168 2.83044 10.125 3.0625 10.125ZM5.6875 10.125C5.91956 10.125 6.14255 10.2168 6.30664 10.3809C6.47073 10.545 6.5625 10.7679 6.5625 11C6.5625 11.2321 6.47073 11.455 6.30664 11.6191C6.14255 11.7832 5.91956 11.875 5.6875 11.875C5.45544 11.875 5.23245 11.7832 5.06836 11.6191C4.90426 11.455 4.8125 11.2321 4.8125 11C4.8125 10.7679 4.90426 10.545 5.06836 10.3809C5.23245 10.2168 5.45544 10.125 5.6875 10.125ZM8.3125 10.125C8.54456 10.125 8.76755 10.2168 8.93164 10.3809C9.09573 10.545 9.1875 10.7679 9.1875 11C9.1875 11.2321 9.09573 11.455 8.93164 11.6191C8.76755 11.7832 8.54456 11.875 8.3125 11.875C8.08044 11.875 7.85745 11.7832 7.69336 11.6191C7.52927 11.455 7.4375 11.2321 7.4375 11C7.4375 10.7679 7.52927 10.545 7.69336 10.3809C7.85745 10.2168 8.08044 10.125 8.3125 10.125ZM3.0625 7.5C3.29456 7.5 3.51755 7.59176 3.68164 7.75586C3.84573 7.91995 3.9375 8.14294 3.9375 8.375C3.9375 8.60706 3.84573 8.83005 3.68164 8.99414C3.51755 9.15823 3.29456 9.25 3.0625 9.25C2.83044 9.25 2.60745 9.15823 2.44336 8.99414C2.27927 8.83005 2.1875 8.60706 2.1875 8.375C2.1875 8.14294 2.27927 7.91995 2.44336 7.75586C2.60745 7.59176 2.83044 7.5 3.0625 7.5ZM5.6875 7.5C5.91956 7.5 6.14255 7.59176 6.30664 7.75586C6.47073 7.91995 6.5625 8.14294 6.5625 8.375C6.5625 8.60706 6.47073 8.83005 6.30664 8.99414C6.14255 9.15823 5.91956 9.25 5.6875 9.25C5.45544 9.25 5.23245 9.15823 5.06836 8.99414C4.90426 8.83005 4.8125 8.60706 4.8125 8.375C4.8125 8.14294 4.90426 7.91995 5.06836 7.75586C5.23245 7.59176 5.45544 7.5 5.6875 7.5ZM8.3125 7.5C8.54456 7.5 8.76755 7.59176 8.93164 7.75586C9.09573 7.91995 9.1875 8.14294 9.1875 8.375C9.1875 8.60706 9.09573 8.83005 8.93164 8.99414C8.76755 9.15823 8.54456 9.25 8.3125 9.25C8.08044 9.25 7.85745 9.15823 7.69336 8.99414C7.52927 8.83005 7.4375 8.60706 7.4375 8.375C7.4375 8.14294 7.52927 7.91995 7.69336 7.75586C7.85745 7.59176 8.08044 7.5 8.3125 7.5ZM10.9375 7.5C11.1696 7.5 11.3925 7.59176 11.5566 7.75586C11.7207 7.91995 11.8125 8.14294 11.8125 8.375C11.8125 8.60706 11.7207 8.83005 11.5566 8.99414C11.3925 9.15823 11.1696 9.25 10.9375 9.25C10.7054 9.25 10.4825 9.15823 10.3184 8.99414C10.1543 8.83005 10.0625 8.60706 10.0625 8.375C10.0625 8.14294 10.1543 7.91995 10.3184 7.75586C10.4825 7.59176 10.7054 7.5 10.9375 7.5ZM5.6875 4.875C5.91956 4.875 6.14255 4.96676 6.30664 5.13086C6.47073 5.29495 6.5625 5.51794 6.5625 5.75C6.5625 5.98206 6.47073 6.20505 6.30664 6.36914C6.14255 6.53324 5.91956 6.625 5.6875 6.625C5.45544 6.625 5.23245 6.53324 5.06836 6.36914C4.90426 6.20505 4.8125 5.98206 4.8125 5.75C4.8125 5.51794 4.90426 5.29495 5.06836 5.13086C5.23245 4.96676 5.45544 4.875 5.6875 4.875ZM8.3125 4.875C8.54456 4.875 8.76755 4.96676 8.93164 5.13086C9.09573 5.29495 9.1875 5.51794 9.1875 5.75C9.1875 5.98206 9.09573 6.20505 8.93164 6.36914C8.76755 6.53324 8.54456 6.625 8.3125 6.625C8.08044 6.625 7.85745 6.53324 7.69336 6.36914C7.52927 6.20505 7.4375 5.98206 7.4375 5.75C7.4375 5.51794 7.52927 5.29495 7.69336 5.13086C7.85745 4.96676 8.08044 4.875 8.3125 4.875ZM10.9375 4.875C11.1696 4.875 11.3925 4.96676 11.5566 5.13086C11.7207 5.29495 11.8125 5.51794 11.8125 5.75C11.8125 5.98206 11.7207 6.20505 11.5566 6.36914C11.3925 6.53324 11.1696 6.625 10.9375 6.625C10.7054 6.625 10.4825 6.53324 10.3184 6.36914C10.1543 6.20505 10.0625 5.98206 10.0625 5.75C10.0625 5.51794 10.1543 5.29495 10.3184 5.13086C10.4825 4.96676 10.7054 4.875 10.9375 4.875Z" fill="#605E5D"/>
</svg>
