<svg width="24" height="24" viewBox="0 0 24 24" fill="none" xmlns="http://www.w3.org/2000/svg">
<g clip-path="url(#clip0_14170_136062)">
<path d="M20.2529 3C20.3514 3 20.4491 3.01896 20.54 3.05664C20.6311 3.09444 20.7145 3.14992 20.7842 3.21973C20.854 3.2894 20.9095 3.37275 20.9473 3.46387C20.985 3.55488 21.0039 3.65246 21.0039 3.75098C21.0039 3.84947 20.985 3.94709 20.9473 4.03809C20.9095 4.1292 20.854 4.21256 20.7842 4.28223L13.0654 12.001L20.7842 19.7197C20.925 19.8605 21.0039 20.0518 21.0039 20.251C21.0039 20.4501 20.925 20.6414 20.7842 20.7822C20.6433 20.9231 20.4521 21.002 20.2529 21.002C20.0538 21.0019 19.8625 20.923 19.7217 20.7822L12.0029 13.0635L4.28418 20.7822C4.14335 20.9231 3.95209 21.002 3.75293 21.002C3.55379 21.0019 3.36249 20.923 3.22168 20.7822C3.0809 20.6414 3.00195 20.4501 3.00195 20.251C3.00197 20.0518 3.08087 19.8605 3.22168 19.7197L10.9404 12.001L3.22168 4.28223C3.15187 4.21257 3.09639 4.12917 3.05859 4.03809C3.02091 3.94711 3.00195 3.84945 3.00195 3.75098C3.00196 3.65248 3.02089 3.55486 3.05859 3.46387C3.0964 3.37275 3.15184 3.28939 3.22168 3.21973C3.29135 3.14988 3.3747 3.09445 3.46582 3.05664C3.55682 3.01894 3.65443 3.00001 3.75293 3C3.85141 3 3.94906 3.01896 4.04004 3.05664C4.13112 3.09444 4.21453 3.14992 4.28418 3.21973L12.0029 10.9385L19.7217 3.21973C19.7913 3.14988 19.8747 3.09445 19.9658 3.05664C20.0568 3.01894 20.1544 3.00001 20.2529 3Z" fill="#281414"/>
</g>
<defs>
<clipPath id="clip0_14170_136062">
<rect width="24" height="24" fill="white"/>
</clipPath>
</defs>
</svg>
