<?xml version="1.0" encoding="UTF-8"?><svg id="Camada_1" xmlns="http://www.w3.org/2000/svg" viewBox="0 0 1087.85 1022.68"><defs><style>.cls-1{fill:#2b1313;}</style></defs><path class="cls-1" d="M664.34,877.02c-3.37-7.75-6.77-15.55-10.18-23.37-3.16-7.04-6.33-14.09-9.49-21.13-1.58-3.52-3.15-7.03-4.72-10.54-1.62-3.36-3.66-6.58-5.83-9.8-2.17-3.27-4.34-6.53-6.5-9.78-2.11-3.33-3.73-6.95-5.43-10.28-3.38-6.78-6.72-13.49-10.03-20.13-3.38-6.61-6.71-13.13-10-19.55-1.64-3.21-3.28-6.39-4.89-9.55-1.75-3.41-2.26-7.42-2.41-11.19-.2-7.65.64-14.91-1.84-20.12-2.65-5.66-6.8-10.79-10.54-16.14-3.79-5.25-6.97-11.11-8.27-17.17-1.42-5.97-2.02-11.74-3.41-16.7-2.53-9.49-9.5-16.81-14.15-24.44-1.35,2.8-2.68,5.56-3.6,8.29-2.61,6.94-.59,14.34,1.23,22.2.91,3.93,1.79,7.97,1.89,12.13-.24,4.01-.48,8.05-.73,12.12-.3,8.1-1.49,16.31-.83,24.61.59,8.3,1.19,16.68,1.79,25.13.3,8.44.59,16.95.89,25.48.36,7.71.72,15.44,1.08,23.14.17,3.85.35,7.7.52,11.54.27,3.72.99,7.47,1.82,11.25.82,3.84,1.64,7.67,2.45,11.49.75,3.87.92,7.84,1.28,11.55.65,7.54,1.3,15.02,1.95,22.41.72,7.39,1.43,14.68,2.12,21.86.35,3.59.7,7.15,1.05,10.68.38,3.82-.62,7.73-1.87,11.29-1.41,3.87-3.01,7.51-4.17,10.96,2.14-.82,4.27-1.63,6.35-2.3,5.52-1.95,10.77-2.42,16.57-2.38l16.96-.2c5.6.04,11.19.07,16.74.11,5.33.12,10.71,1.39,16.16,2.75,5.46,1.38,10.98,2.87,16.67,3.36,5.74.38,11-.22,16.47-.2,3.8-.01,7.47-.03,11.24-.04-1.55-4.94-3.17-9.88-5.48-14.6-3.59-7.5-7.22-15.08-10.88-22.72Z"/><path class="cls-1" d="M357.68,893.74c2.23-8.01,4.48-16.11,6.75-24.27,2.56-8.05,5.13-16.16,7.71-24.3,2.25-7.39,4.5-14.78,6.75-22.16,1.13-3.69,2.25-7.37,3.38-11.04.99-3.59,1.57-7.36,2.06-11.21.52-3.89,1.03-7.77,1.54-11.64.6-3.9,1.76-7.69,2.67-11.31,1.91-7.33,3.81-14.59,5.69-21.76,1.8-7.2,3.58-14.31,5.34-21.3.87-3.5,1.74-6.97,2.59-10.41.93-3.72,3.18-7.08,5.55-10.01,4.88-5.89,10.29-10.81,11.85-16.37,1.73-6,1.97-12.6,2.67-19.09.6-6.45,2.06-12.95,5.06-18.37,2.86-5.43,6.2-10.17,8.41-14.82,4.43-9,3.86-19.36,5.5-28.29.81-3.25,1.53-6.16,2.25-9.06-.58,1.28-1.12,2.62-1.68,3.97-1.14,2.73-2.37,5.5-4.23,7.83-2.05,2.03-4.13,4.07-6.21,6.12-4.01,4.21-8.75,7.91-12.13,12.85-3.43,4.9-6.89,9.85-10.38,14.83-3.72,4.79-7.47,9.61-11.22,14.44-3.33,4.43-6.66,8.87-9.99,13.29-1.67,2.21-3.33,4.42-4.99,6.62-1.53,2.2-2.73,4.71-3.87,7.31-1.17,2.62-2.34,5.24-3.5,7.85-1.24,2.59-2.96,4.86-4.42,7.12-3.03,4.53-6.03,9.02-8.99,13.46-2.9,4.49-5.77,8.92-8.6,13.28-1.41,2.18-2.8,4.35-4.19,6.49-1.5,2.32-4.08,3.81-6.69,4.93-5.35,2.21-10.98,3.48-13.36,6.87-2.62,3.65-4.06,8.36-5.87,12.8-1.72,4.45-4.19,8.58-7.82,11.25-3.5,2.74-7.29,4.77-10.08,7.22-5.53,4.68-6.95,12.49-10.03,18.31-6.84,10.61-11.84,18.36-14.35,22.25-2.92,3.36-4.74,7.65-7.07,11.57-2.15,4.03-5.76,7.04-9.04,9.27-3.3,2.37-6.61,4.43-9.88,6.16-1.69.82-3.32,1.6-4.87,2.36-.89.35-1.76.68-2.61,1.01-.99.25-1.97.47-3.04.55-8.7.59-17.7-1.68-23.8-3.01-2.5-.62-4.62-1.26-6.57-1.96l-1.17,1.37,1.17-1.37c-2.98-1.07-5.49-2.33-7.66-4.17-3.44-2.91-5.75-7.23-5.12-11.06.37-4.02,4.58-6.75,7.79-10.95.33-.57.66-1.16,1-1.76.26-.7.52-1.43.79-2.16.62-1.55,1.27-3.17,1.95-4.86,1.44-3.29,3.18-6.69,5.19-10.17,2.14-3.54,4.21-6.69,5.65-11.14,1.58-4.29,3.11-9.24,6.46-13.12,2.75-3.57,8.19-10.63,15.62-20.29,3.43-4.82,5.45-12.43,12.44-17.33,3.43-2.38,7.65-4.06,11.29-6.2,3.75-2.04,6.29-4.97,8.51-8.88,2.25-3.8,4.17-8.29,7.51-11.98,3.41-4.07,10.26-4.94,15.7-6.45,2.74-.75,5.18-1.67,6.8-3.16,1.67-1.86,3.36-3.73,5.06-5.62,3.42-3.81,6.89-7.69,10.41-11.62,3.6-3.86,7.24-7.77,10.92-11.71,1.78-1.97,3.57-3.94,5.37-5.92,1.5-2.25,3.02-4.51,4.53-6.77,1.49-2.34,3.05-4.69,4.95-6.81,2.01-1.92,4.03-3.84,6.05-5.76,4.07-3.79,8.15-7.59,12.22-11.38,4.33-4.34,8.65-8.67,12.95-12.98,3.91-4.64,7.37-9.62,10.87-14.48,3.16-5.16,7.73-9.03,11.39-13.58,1-1.17,1.99-2.32,2.98-3.48-3.39,2.07-6.86,4.49-11.02,5.86-4.97,1.86-11.37-.74-16.85-2.11-2.76-.69-5.33-1.09-7.48-.59-2.37.79-4.76,1.6-7.17,2.4-4.85,1.64-9.78,3.3-14.77,4.99-5.03,1.59-10.13,3.2-15.27,4.82-2.52.83-5.05,1.67-7.59,2.52-2.42,1.22-4.84,2.44-7.28,3.67-2.45,1.31-4.96,2.58-7.66,3.49-2.7.68-5.4,1.36-8.11,2.04-5.4,1.3-10.82,2.6-16.24,3.9-5.91,1.65-11.8,3.29-17.66,4.93-5.69,2.11-11.14,4.75-16.58,7.26-5.29,2.94-11.18,4.06-16.6,6.22-2.74.99-5.46,1.98-8.16,2.96-2.47,1.15-4.7,3.06-6.88,5.19-4.41,4.18-8.56,9.42-14.69,9.97-5.96.52-12.3-1.67-16.84-.36-4.48,1.37-8.24,5.52-12.13,9.01-1.95,1.78-3.96,3.43-6.11,4.68-2.12,1.09-4.19,2.16-6.22,3.2-8.05,4.06-15.43,7.73-22.49,9.54-7.03,1.89-13.03,3.64-19,3.13-5.88-.7-10.82-2.77-14.65-5.48-3.84-2.76-6.72-6.5-8.75-12.15-.04-.1-.03-.19-.06-.29h-.04s.04,0,.04,0c-1.91-5.47-2.17-10.4-.65-14.3,1.52-4.04,4.93-6.69,9.42-9.14,4.33-2.56,9.79-5.92,16.52-8.37,6.71-2.52,14.3-5.37,22.6-8.49,2.08-.73,4.2-1.47,6.36-2.23,2.07-.74,4.07-1.93,6.11-3.25,4.1-2.62,8.14-6.09,13.59-7.16,5.58-.78,12.3,2.3,17.91,2.81,5.57.76,9.87-2.95,14.55-6.57,2.34-1.82,4.77-3.62,7.54-4.74,2.79-.75,5.59-1.51,8.42-2.27,5.56-1.69,11.51-2.58,16.88-5.22,5.39-2.58,10.85-5.19,16.34-7.81,5.59-2.34,11.23-4.69,16.88-7.05,5.08-2.22,10.16-4.44,15.24-6.66,2.54-1.1,5.07-2.21,7.6-3.31,2.41-1.16,4.7-2.75,6.97-4.46,2.31-1.71,4.61-3.41,6.91-5.11,2.36-1.65,4.97-2.78,7.35-4.02,4.86-2.46,9.68-4.89,14.45-7.29,4.74-2.48,9.41-4.92,14.02-7.33,2.3-1.21,4.58-2.41,6.84-3.59,2.44-1.29,5.43-1.31,8.25-1,5.74.71,11.27,2.38,15.02.59,4.07-1.89,7.65-5.29,11.41-8.26,1.7-1.4,3.53-2.6,5.42-3.61-3.71-.75-7.31-1.28-10.7-1.12-9.34.4-18.77,2.38-28.27,3.91-9.4,1.6-19.3,2.42-28.45,1.41-9.1-.86-17.45-2.41-25.13-2.93-14.92-1.14-29.24,2.88-42.67,4.34-26.12,1.74-45.18,3.01-54.76,3.64-9.3-.02-18.58,1.4-27.95,2.19-9.31,1.01-18.99.23-26.97-.8-8.25-.95-16-2.12-23.18-3.47-3.59-.75-7.04-1.47-10.35-2.16-1.75-.45-3.47-.89-5.15-1.31-1.73-.58-3.41-1.19-5.01-1.95-.42-.21-.75-.45-1.17-.66-.39,2.56-.81,5.13-1.27,7.69-2.22,11.14-4.45,22.34-6.67,33.52-2.28,11.3-3.91,22.74-5.64,33.01-3.43,20.98-5.5,42.06-6.94,61.01-.77,9.6-1.77,18.47-3.46,27.22-1.55,9.5-2.53,18.68-3.22,27.46-2.38,34.55-2.52,64.4-3.06,88.98.4,25.16,2.46,44.31,5.14,57.59,2.73,13.04,6.48,20.39,12.27,21.39.79,2.05,1.8,4.3,3.33,6.97,2.61,4.42,6.5,9.49,12.34,12.53,1.46.72,3.04,1.25,4.68,1.58,1.14.27,2.78.22,3.81.42.97,6.69-.1-.72.34,2.31h0s.02.02.02.02l.09.06.18.12.36.25,2.88,1.96c4.13,2.67,8.66,4.2,15.6,6.41,3.45,1,7.46,1.95,12.23,2.55,2.37.3,4.96.49,7.7.54,1.81.18,2.09.5,3.36.77,2.24.54,4.51,1.27,7.1,2.77,2.62,1.45,5.56,3.44,9.02,5.58,3.47,2.13,7.46,4.45,12.54,6.27,2.7.88,5.14,1.66,8.92,2.12,3.69.46,7.18.6,10.52.51,6.39-.04,15.15-1.48,23.37-3.38,4.12-.91,8.08-1.79,11.73-2.12,1.99-.15,3.93-.47,5.61-.81l2.46-.56c.19-.22,3.45-.4,5.15-.66,8.2-.99,15.88-2.95,23.18-4.46,7.24-1.38,15.23-2.73,22.46-4.38,6.79-1.48,13.88-3.02,21.24-4.62,6.79-1.78,12.31-2.87,20.04-3.96,1.57-.2,3.38-.35,5-.55,1.57-3.68,3.14-7.39,4.73-11.13,3-7.52,6.88-14.87,9.04-22.9ZM111.97,915.25v-.07s-.01-.02-.01-.02c0,.05,0,.06.02.11v-.03Z"/><path class="cls-1" d="M108.27,494.8c1.47-.26,2.97-.54,4.5-.81,3.3-.54,6.76-1.11,10.35-1.69,7.18-1.05,14.93-1.96,23.17-2.7,8.52-.69,16.32-1.18,25.34-2.99,8.95-1.61,18.88-3.67,29.57-3.66,9.41-.25,27.97-.73,53.38-1.39,12.31-.55,27.11-3.97,44.37-1.88,8.42,1.04,16.82,3.15,25.16,4.51,8.33,1.51,16.42,1.52,25.62.66,9.09-.77,18.81-2.25,29.2-2.12,11.08-.07,21.77,4.55,31.55,7.69,4.91,1.59,9.67,2.83,14.24,3.09,5.21.06,10.48.11,15.79.17,10.68.1,21.55.2,32.55.31,11,.21,22.15.42,33.4.64,5.54.07,11.1.14,16.68.2,5.61-.33,11.24-.65,16.89-.98,5.74-.4,11.58-.75,17.51-.69,5.78.28,11.56.55,17.36.83,11.53.61,23.09,1.23,34.64,1.84,12.77.45,25.5.9,38.16,1.35,12.66-.06,25.25-.69,37.72-1.21,12.47-.97,24.82-.03,37-.23,6.09,0,12.13-.01,18.13-.02,5.66-.24,11.39-1.28,17.21-2.55,11.63-2.44,23.51-5.96,35.94-4.4,12.06,1.53,22.93,5.74,32.77,6.04,9.76.23,20.1-2.4,30.23-4.37,5.09-1.02,10.21-1.88,15.33-2.33,4.93-.31,9.76-.61,14.49-.9,18.7-1.09,35.79-2.04,50.92-1.35,15.13.61,28.17.99,39.5,3.49,3.4.82,6.44,1.75,9.31,2.73,0-.15,0-.29.01-.44.23-15.06.24-30.71,1.02-46.64.89-15.72,2.55-34.19,3.88-52.48l.98-12.98c.1-.7.12-3.02.16-4.94l.12-5.89c-.2-3.9.91-7.91,1.5-11.87,1.04-9.66-.3-19.19-3.05-26.17-3.4-8.36-9.73-14.86-16.74-19.56-6.69-4.57-15.65-7.76-24.71-10.63-5.52-2.13-5.49-2.31-7.74-3.29l-5.41-2.71c-7.64-4.1-13.42-7.89-20.34-13.71-13.8-11.3-29.08-29.48-52.92-45.84-19.71-12.06-39.91-24.43-60.53-37.05-4.99-2.92-10.01-5.85-15.06-8.79-3.65-2.11-8.18-5.47-13.96-9.5-2.9-2-6.13-4.15-9.76-6.25-1.8-1.05-3.73-2.09-5.74-3.07l-3.86-1.8c-4.63-2.18-9.26-4.69-14.02-7.56-20.77-13.28-41.87-26.77-63.23-40.42-10.84-6.93-21.75-13.9-32.72-20.91-11.05-7-20.18-13.19-31.24-21.15-5.55-3.96-11.33-7.89-17.45-11.65-3.05-1.89-6.23-3.7-9.45-5.49l-5.16-2.67-6.68-3.01c-9.1-3.83-19.39-6.96-29.16-7.27-10.15-.91-18.93,5.45-25.48,11.54-3.51,3.26-6.73,7.05-10.03,10.73-.28.46-1.6,1.54-2.87,2.66l-3.68,3.2-14.76,12.83-7.39,6.43c-2.34,1.83-4.54,3.74-6.98,5.5-4.76,3.6-9.79,7.03-15.01,10.35-21.83,13.36-44.64,29.98-65.86,45.32-12.04,8.88-22.62,16.55-35.7,23.29-12.63,6.86-25.61,13.22-38.67,19.49-13.03,5.97-26.48,13.01-38.78,20.44-11.99,7.04-24.42,13.66-37.09,19.89-12.67,6.42-25.45,11.54-38.71,18.91-13.15,7.3-24.58,14.74-36.81,21.98l-34.16,20.54c-9.57,5.6-27.18,11.63-40.63,18.11l-.13,2.05c-.79,15.29-1.56,30.26-2.31,44.91-.52,13.24-1.03,26.17-1.52,38.8-1.38,27.07,4.29,53.33,11.35,75.94,1.2,4.69,2.03,9.33,2.67,13.96.56,0,1.08.02,1.64,0,1.35-.13,2.73-.25,4.15-.39Z"/><path class="cls-1" d="M516.14,892.22c.06-3.48.12-7,.18-10.54.11-7.14.22-14.39.33-21.74.22-7.35.44-14.79.66-22.31.07-3.7.14-7.41.21-11.14-.32-3.75-.65-7.51-.97-11.28-.4-3.83-.74-7.73-.68-11.7.28-3.86.56-7.72.84-11.6.62-7.7,1.24-15.42,1.86-23.14.46-8.53.92-17.03,1.38-25.49-.05-8.46-.68-16.86-1.18-25.19-.96-8.33-.01-16.58-.21-24.71,0-4.07,0-8.1,0-12.11-.24-3.78-1.28-7.61-2.54-11.49-2.43-7.77-5.95-15.7-4.38-24,1.54-8.05,5.75-15.32,6.06-21.89.23-6.52-2.38-13.42-4.35-20.18-.03-.11-.04-.21-.07-.32-.08.23-.11.46-.19.68-1.88,6-5.6,17.84-10.69,34.04-2.25,7.92-2.35,18.38-8.21,28.54-2.88,4.95-6.74,9.53-9.91,14.31-3.3,4.73-5.13,9.82-6.38,15.9-1.32,5.97-2.11,12.58-4.57,19.08-2.42,6.99-9.18,12.17-14.34,17.27-2.6,2.56-4.84,5.14-6.11,7.92-1.22,3.26-2.46,6.55-3.71,9.87-2.5,6.69-5.04,13.48-7.61,20.37-2.67,6.85-5.38,13.79-8.11,20.79-1.31,3.46-2.62,6.94-3.94,10.42-.95,3.64-1.91,7.29-2.87,10.95-.91,3.74-1.9,7.53-3.29,11.24-1.56,3.54-3.12,7.09-4.68,10.64-3.17,7.04-6.34,14.11-9.52,21.17-3.29,7.88-6.58,15.74-9.85,23.55-2.79,7.98-5.02,16.11-7.34,24.13-1.61,6.98-4.44,13.44-6.85,20,.99-.05,1.87-.15,2.88-.19,18.01-1.61,37.53-2.84,57.9-3.68,5.12-.32,10.27-.64,15.45-.96,5.2-.53,9.81-.2,15.06.49,5.23.86,10.75,1.42,16.01,2.11,4.24.55,8.77.16,13.02-.15.31-7.06,4.58-13.89,7.59-20.14,1.59-3.28,2.84-6.46,3.1-9.51Z"/><path class="cls-1" d="M937.86,535.51c-14.97.1-31.89.21-50.4.33-4.59-.02-9.29-.04-14.07-.06-4.6,0-9.37.44-14.3.99-9.91,1.08-20.33,2.97-31.76,2.13-11.51-1.16-22.48-6.33-33.13-8.71-10.38-2.61-21.47-.58-33.24,1.25-5.88.92-11.94,1.79-18.17,1.9-6-.24-12.05-.47-18.15-.71-12.12-.3-24.42-1.47-36.84-.8-9.07.44-18.28.88-27.47,1.32,2.79,2.13,5.87,3.5,9.63,4.22,4.32.92,9.19,1.29,13.75,3.29,4.94,1.93,7.97,8.14,11.14,12.81,1.59,2.36,3.24,4.37,5.17,5.43,2.29.99,4.61,1.99,6.95,3,4.71,2.02,9.49,4.07,14.34,6.14,4.81,2.17,9.68,4.38,14.59,6.6,2.43,1.06,4.88,2.12,7.33,3.19,2.61.71,5.24,1.42,7.87,2.13,2.7.66,5.42,1.39,8.03,2.51,2.46,1.29,4.93,2.59,7.4,3.89,4.89,2.64,9.79,5.29,14.69,7.94,5.5,2.71,10.99,5.42,16.44,8.12,5.64,2.22,11.47,3.9,17.2,5.66,5.9,1.34,11.03,4.44,16.51,6.44,2.7,1.09,5.39,2.17,8.06,3.24,2.6.79,5.54.86,8.59.73,6.07-.17,12.66-1.31,17.6,2.38,4.78,3.59,8.04,9.45,12.3,11.5,4.25,1.97,9.82,1.39,15.05,1.38,2.64-.03,5.24.09,7.68.59,2.3.6,4.56,1.19,6.77,1.77,8.71,2.35,16.65,4.54,23.11,7.9,6.49,3.29,12.14,5.99,16.23,10.35,3.91,4.44,6.21,9.29,7.26,13.86,1.02,4.62.66,9.33-1.59,14.89-.04.1-.09.17-.13.27h.02s-.02,0-.02,0c-2.23,5.36-5.34,9.18-9.08,11.08-3.83,2-8.14,1.69-13.11.52-4.93-.98-11.24-2.13-17.89-4.79-6.68-2.6-14.24-5.54-22.5-8.76-2.03-.84-4.11-1.71-6.23-2.59-2.04-.83-4.32-1.28-6.72-1.66-4.8-.78-10.13-.9-14.89-3.74-4.68-3.15-7.62-9.92-11.47-14.04-3.64-4.29-9.32-4.4-15.22-4.82-2.95-.21-5.97-.48-8.77-1.5-2.58-1.3-5.17-2.61-7.79-3.93-5.27-2.46-10.29-5.76-16.06-7.37-5.74-1.68-11.54-3.38-17.38-5.09-5.73-1.99-11.49-4-17.28-6.01-5.26-1.74-10.53-3.48-15.79-5.21-2.63-.87-5.25-1.74-7.87-2.61-2.57-.74-5.33-1.08-8.16-1.33-2.86-.27-5.71-.54-8.55-.81-2.85-.35-5.55-1.25-8.16-1.91-5.26-1.42-10.48-2.82-15.63-4.21-5.18-1.32-10.3-2.62-15.33-3.9-2.52-.64-5.02-1.27-7.49-1.89-2.68-.67-4.91-2.65-6.82-4.76-3.8-4.36-6.81-9.29-10.79-10.46-.83-.25-1.76-.27-2.63-.43,1.28,1.66,2.56,3.31,3.86,4.99,3.7,4.49,6.8,9.64,11.31,13.58,4.45,3.99,8.95,8.02,13.48,12.09,4.31,4.27,8.64,8.56,12.99,12.87,4,3.84,8,7.68,12,11.51,1.99,1.92,3.98,3.84,5.97,5.75,2,1.78,4.35,3.28,6.79,4.72,2.46,1.48,4.92,2.95,7.37,4.42,2.42,1.54,4.47,3.52,6.53,5.25,4.14,3.55,8.23,7.06,12.28,10.54,4.1,3.42,8.16,6.8,12.15,10.13,2,1.66,3.98,3.31,5.94,4.94,2.13,1.76,3.29,4.51,4.09,7.24,1.55,5.58,2.13,11.32,5.22,14.09,3.31,3.04,7.82,5.03,12.01,7.36,4.22,2.24,8.02,5.19,10.23,9.11,2.3,3.8,3.86,7.81,5.95,10.88,3.98,6.05,11.57,8.4,16.98,12.16,9.71,8.07,16.8,13.95,20.37,16.91,2.99,3.3,7.03,5.63,10.64,8.41,3.75,2.61,6.3,6.57,8.12,10.08,1.96,3.56,3.6,7.09,4.93,10.55.61,1.78,1.19,3.48,1.75,5.12.24.92.47,1.83.69,2.71.13,1.01.23,2.01.18,3.09-.46,8.71-3.79,17.37-5.84,23.27-.92,2.41-1.81,4.44-2.74,6.29l1.22,1.32-1.22-1.32c-1.42,2.83-2.97,5.17-5.06,7.1-3.3,3.06-7.87,4.84-11.59,3.75-3.95-.85-6.15-5.36-9.94-9.04-.53-.39-1.07-.79-1.62-1.21-.67-.34-1.35-.69-2.05-1.04-1.47-.8-3-1.64-4.59-2.51-3.1-1.83-6.26-3.96-9.47-6.37-3.26-2.55-6.14-4.98-10.38-6.94-4.07-2.08-8.8-4.2-12.25-7.98-3.22-3.16-9.57-9.4-18.26-17.94-4.38-3.98-11.68-6.9-15.71-14.43-1.95-3.69-3.11-8.08-4.8-11.96-1.57-3.97-4.18-6.84-7.79-9.51-3.5-2.69-7.73-5.13-10.99-8.9-3.63-3.87-3.68-10.78-4.52-16.36-.42-2.81-1.04-5.34-2.32-7.13-1.64-1.88-3.3-3.78-4.97-5.7-3.38-3.85-6.81-7.76-10.28-11.73-3.4-4.03-6.84-8.12-10.32-12.25-1.74-2-3.48-4.02-5.24-6.04-2.05-1.76-4.11-3.54-6.18-5.31-2.15-1.76-4.29-3.59-6.16-5.73-1.66-2.23-3.33-4.46-5-6.7-3.27-4.49-6.55-9-9.83-13.5-3.79-4.82-7.57-9.63-11.33-14.42-4.13-4.44-8.66-8.47-13.07-12.53-4.74-3.75-8.04-8.76-12.12-12.93-1.97-2.15-3.93-4.28-5.87-6.4-2.01-1.84-4.63-3.16-7.43-4.36-3.54-1.58-7.35-2.98-10.46-5.14.6,1.37,1.13,2.58,1.77,4.02,3.52,7.45,10.32,15.39,12.59,26.89,1.09,5.62,1.19,11.61,1.95,17.3.63,5.73,2.6,10.77,5.65,16.17,2.94,5.37,6.69,10.86,9.11,17.37,2.77,6.86,1.09,15.21.56,22.43-.27,3.64-.27,7.05.61,9.99,1.22,3.26,2.46,6.56,3.7,9.88,2.52,6.68,5.08,13.47,7.67,20.35,2.5,6.92,5.02,13.92,7.57,20.99,1.29,3.47,2.59,6.95,3.89,10.44,1.68,3.37,3.36,6.75,5.04,10.14,1.78,3.42,3.53,6.92,4.92,10.63,1.16,3.69,2.31,7.39,3.47,11.09,2.25,7.39,4.5,14.8,6.76,22.21,2.7,8.1,5.39,16.18,8.07,24.22,3.15,7.85,6.82,15.44,10.34,23,3.95,7.39,6.09,15.42,9.26,22.91.73,1.84,1.44,3.65,2.16,5.47,4.42-.19,8.77-.29,12.97.04,10.36.93,20.52-.93,29.87-1.28,9.42-.68,17.79,1.47,26.53,4.59,4.33,1.47,8.68,2.98,13.06,4.08,4.42,1.12,8.9,1.5,12.89,2.17,8.2,1.14,16.06,2.23,23.51,3.26,3.76.42,7.42.83,10.98,1.23,3.69.22,7.25.13,10.67-.07,13.46-1.07,25.16-2,34.81-2.77,4.68-.78,8.81-1.89,12.48-3.16,1.25,1.01,2.54,1.83,3.99,1.96,2.26.26,4.92-.91,7.3-4.11,1.02-1.25,1.8-3.14,2.56-5.29,3.26-2.93,5.21-6.42,5.68-10.98.15-1.48.12-2.92-.09-4.29,2.79-6.14,5.9-14.17,8.06-23.01,1.37-5.18,2.83-10.75,4.41-16.72.79-2.81,1.66-5.57,2.63-8.25.96-2.63,2.1-6.43,3.11-9.8,4.22-14.46,6.73-29.32,9.28-46.73,2.34-17.16,3.77-36.73,2.92-57.35-.04-7.02.79-14,2.73-21.9,1.87-7.98,4.71-16.84,7.75-27.05,1.51-5.11,3.1-10.59,4.54-16.68,1.48-6.47,2.63-12.1,3.73-17.86,1.07-5.86,2.04-11.9,2.76-18.16.69-6.04,1.24-11.92,1.68-17.9.91-11.31,1.56-28.1,2.34-48.82.42-10.38.94-21.65,1.92-33.81.06-.78.08-1.64.14-2.43-2.64.34-5.41.63-8.38.85-10.31.94-23.43,2.25-38.39,2.28Z"/></svg>