<svg width="28" height="29" viewBox="0 0 28 29" fill="none" xmlns="http://www.w3.org/2000/svg">
<g clip-path="url(#clip0_14170_134825)">
<rect y="0.5" width="28" height="28" rx="14" fill="#235540"/>
<g clip-path="url(#clip1_14170_134825)">
<path d="M14.0015 8.81641C14.4917 8.81641 15.3107 9.00571 16.0815 9.21387C16.7702 9.40339 17.4546 9.6095 18.1333 9.83203C18.3287 9.89672 18.5021 10.0151 18.6333 10.1738C18.7645 10.3325 18.8478 10.5253 18.8745 10.7295C19.2979 13.9103 18.3157 16.2676 17.1235 17.8271C16.618 18.4943 16.0153 19.0821 15.3354 19.5703C15.1003 19.7393 14.8507 19.8881 14.5903 20.0146C14.3908 20.1084 14.1776 20.1846 14.0015 20.1846C13.8253 20.1846 13.6115 20.1084 13.4126 20.0146C13.1966 19.913 12.9417 19.7643 12.6675 19.5703C11.9876 19.0821 11.3849 18.4942 10.8794 17.8271C9.6872 16.2676 8.70505 13.9103 9.12842 10.7295C9.1552 10.5254 9.23841 10.3324 9.36963 10.1738C9.50084 10.0152 9.67417 9.89658 9.86963 9.83203C10.3372 9.67927 11.1327 9.42702 11.9214 9.21387C12.6922 9.00431 13.5113 8.81641 14.0015 8.81641ZM14.0024 15.9219C13.8142 15.922 13.6336 15.9967 13.5005 16.1299C13.3674 16.263 13.2926 16.4435 13.2925 16.6318C13.2925 16.8203 13.3672 17.0015 13.5005 17.1348C13.6336 17.2679 13.8142 17.3427 14.0024 17.3428C14.1909 17.3428 14.3721 17.268 14.5054 17.1348C14.6386 17.0015 14.7134 16.8203 14.7134 16.6318C14.7133 16.4436 14.6385 16.263 14.5054 16.1299C14.3721 15.9966 14.1909 15.9219 14.0024 15.9219ZM14.0015 11.6553C13.9113 11.6553 13.8221 11.6743 13.7397 11.7109C13.6575 11.7476 13.5842 11.8012 13.5239 11.8682C13.4636 11.9352 13.418 12.0139 13.3901 12.0996C13.3623 12.1853 13.3524 12.2757 13.3618 12.3652L13.6108 14.8574C13.6192 14.9553 13.6635 15.0469 13.7358 15.1133C13.8082 15.1797 13.9032 15.2158 14.0015 15.2158C14.0997 15.2158 14.1947 15.1797 14.2671 15.1133C14.3394 15.0469 14.3837 14.9553 14.3921 14.8574L14.6411 12.3652C14.6505 12.2757 14.6406 12.1853 14.6128 12.0996C14.585 12.0139 14.5393 11.9352 14.479 11.8682C14.4188 11.8012 14.3454 11.7476 14.2632 11.7109C14.1808 11.6743 14.0916 11.6553 14.0015 11.6553Z" fill="#F9F3EA"/>
</g>
</g>
<defs>
<clipPath id="clip0_14170_134825">
<rect y="0.5" width="28" height="28" rx="14" fill="white"/>
</clipPath>
<clipPath id="clip1_14170_134825">
<rect width="11.3684" height="11.3684" fill="white" transform="translate(8.3158 8.81543)"/>
</clipPath>
</defs>
</svg>
