<?xml version="1.0" encoding="UTF-8"?>
<svg width="40" height="40" version="1.1" viewBox="0 0 40 40" xmlns="http://www.w3.org/2000/svg">
 <path d="m0 8c0-4.4183 3.5817-8 8-8h24c4.4183 0 8 3.5817 8 8v24c0 4.4183-3.5817 8-8 8h-24c-4.4183 0-8-3.5817-8-8z" fill="#235540"/>
 <path d="m19.247 25.728c.933 0 1.6426.7107 1.6426 1.6377-1e-4.9239-.7096 1.6348-1.6426 1.6348-.9089-2e-4-1.6299-.7113-1.6299-1.6367 2e-4-.9253.7211-1.6357 1.6299-1.6358zm.4941-14.728c3.3747 1e-4 5.6503 2.04 5.6504 4.8222 0 2.016-.998 3.4325-2.6855 4.46-1.6497.9884-2.1211 1.6769-2.1211 3.0147v.0449c0 .1989-.0791.3896-.2197.5302-.1407.1407-.3314.2198-.5303.2198h-1.1543c-.1976 0-.3879-.0778-.5283-.2168-.1403-.139-.2197-.3279-.2217-.5254l-.0049-.2998c-.0645-1.8315.7158-3.0019 2.4678-4.0684 1.5448-.9479 2.0957-1.7025 2.0957-3.042-1e-4-1.4684-1.1377-2.5468-2.8897-2.5468-1.5132 0-2.5651.7932-2.9072 2.1025-.099.381-.4166.6924-.8096.6924h-1.1669c-.426 0-.7711-.3564-.7051-.7764.4126-2.5513 2.3571-4.4111 5.7304-4.4111z" fill="#f9f3ea"/>
</svg>
