<svg width="18" height="19" viewBox="0 0 18 19" fill="none" xmlns="http://www.w3.org/2000/svg">
<path d="M0.566406 11.3113C0.715591 11.3113 0.858665 11.3706 0.964154 11.4761C1.06964 11.5816 1.12891 11.7246 1.12891 11.8738V14.6863C1.12891 14.9847 1.24743 15.2708 1.45841 15.4818C1.66939 15.6928 1.95554 15.8113 2.25391 15.8113H15.7539C16.0523 15.8113 16.3384 15.6928 16.5494 15.4818C16.7604 15.2708 16.8789 14.9847 16.8789 14.6863V11.8738C16.8789 11.7246 16.9382 11.5816 17.0437 11.4761C17.1491 11.3706 17.2922 11.3113 17.4414 11.3113C17.5906 11.3113 17.7337 11.3706 17.8392 11.4761C17.9446 11.5816 18.0039 11.7246 18.0039 11.8738V14.6863C18.0039 15.2831 17.7669 15.8554 17.3449 16.2773C16.9229 16.6993 16.3506 16.9363 15.7539 16.9363H2.25391C1.65717 16.9363 1.08487 16.6993 0.662916 16.2773C0.240959 15.8554 0.00390625 15.2831 0.00390625 14.6863V11.8738C0.00390625 11.7246 0.0631695 11.5816 0.168659 11.4761C0.274148 11.3706 0.417222 11.3113 0.566406 11.3113Z" fill="#F9F3EA"/>
<path d="M8.60566 13.5096C8.65791 13.562 8.71998 13.6035 8.78832 13.6319C8.85666 13.6602 8.92992 13.6748 9.00391 13.6748C9.07789 13.6748 9.15116 13.6602 9.21949 13.6319C9.28783 13.6035 9.34991 13.562 9.40216 13.5096L12.7772 10.1346C12.8828 10.029 12.9421 9.8857 12.9421 9.73633C12.9421 9.58696 12.8828 9.4437 12.7772 9.33808C12.6715 9.23246 12.5283 9.17312 12.3789 9.17312C12.2295 9.17312 12.0863 9.23246 11.9807 9.33808L9.56641 11.7535V1.86133C9.56641 1.71214 9.50714 1.56907 9.40165 1.46358C9.29617 1.35809 9.15309 1.29883 9.00391 1.29883C8.85472 1.29883 8.71165 1.35809 8.60616 1.46358C8.50067 1.56907 8.44141 1.71214 8.44141 1.86133V11.7535L6.02716 9.33808C5.92153 9.23246 5.77828 9.17312 5.62891 9.17312C5.47953 9.17312 5.33628 9.23246 5.23066 9.33808C5.12503 9.4437 5.0657 9.58696 5.0657 9.73633C5.0657 9.8857 5.12503 10.029 5.23066 10.1346L8.60566 13.5096Z" fill="#F9F3EA"/>
</svg>
