<svg width="16" height="17" viewBox="0 0 16 17" fill="none" xmlns="http://www.w3.org/2000/svg">
<path d="M7.99952 2.50195C8.07242 2.50195 8.14443 2.51789 8.21052 2.54866L15.7105 6.04866C15.7988 6.08988 15.8732 6.15601 15.9244 6.23893C15.9756 6.32185 16.0015 6.41793 15.9989 6.51536C15.9962 6.61278 15.9651 6.70731 15.9095 6.78732C15.8538 6.86732 15.776 6.92931 15.6855 6.96566L14.9995 7.24065V13.5017C15.2647 13.5017 15.5191 13.607 15.7066 13.7945C15.8942 13.9821 15.9995 14.2364 15.9995 14.5017V16.5017H12.9995V14.5017C12.9995 14.2364 13.1049 13.9821 13.2924 13.7945C13.48 13.607 13.7343 13.5017 13.9995 13.5017V7.64165L8.18552 9.96565C8.06614 10.0135 7.93291 10.0135 7.81352 9.96565L0.313523 6.96566C0.22309 6.92931 0.145253 6.86732 0.0895841 6.78732C0.0339152 6.70731 0.00284195 6.61278 0.000185773 6.51536C-0.0024704 6.41793 0.0234063 6.32185 0.0746336 6.23893C0.125861 6.15601 0.200205 6.08988 0.288523 6.04866L7.78852 2.54866C7.85461 2.51789 7.92663 2.50195 7.99952 2.50195Z" fill="#281414"/>
<path d="M3.97371 9.50224C4.04242 9.49873 4.11112 9.50943 4.1755 9.53369L7.9995 10.9677L11.8235 9.53369C11.8879 9.50943 11.9566 9.49873 12.0253 9.50224C12.094 9.50575 12.1612 9.52341 12.2228 9.5541C12.2844 9.58479 12.339 9.62787 12.3831 9.68062C12.4273 9.73337 12.4601 9.79467 12.4795 9.86069L12.9795 11.5607C13.0145 11.68 13.0038 11.8081 12.9494 11.92C12.8951 12.0319 12.801 12.1195 12.6855 12.1657L8.1855 13.9657C8.06611 14.0135 7.93288 14.0135 7.8135 13.9657L3.3135 12.1657C3.19802 12.1195 3.10392 12.0319 3.04956 11.92C2.99519 11.8081 2.98448 11.68 3.0195 11.5607L3.5195 9.86069C3.53889 9.79467 3.57169 9.73337 3.61586 9.68062C3.66002 9.62787 3.7146 9.58479 3.77618 9.5541C3.83775 9.52341 3.905 9.50575 3.97371 9.50224Z" fill="#281414"/>
</svg>
