<svg width="17" height="17" viewBox="0 0 17 17" fill="none" xmlns="http://www.w3.org/2000/svg">
<path d="M10.6438 3.18186C10.678 3.08403 10.681 2.97798 10.6524 2.87837C10.6237 2.77876 10.5648 2.69052 10.4838 2.62586L10.3058 2.49686C9.681 2.08395 8.9716 1.81639 8.22977 1.71386C6.88677 1.53586 5.17577 1.90286 3.51177 3.80686H2.45777C2.39199 3.80687 2.32687 3.81986 2.26612 3.84509C2.20538 3.87031 2.15021 3.90728 2.10377 3.95386L0.817769 5.24086C0.724339 5.33458 0.671875 5.46152 0.671875 5.59386C0.671875 5.7262 0.724339 5.85314 0.817769 5.94686L3.38877 8.52586C3.43521 8.57242 3.49039 8.60936 3.55114 8.63457C3.61188 8.65978 3.677 8.67275 3.74277 8.67275C3.80854 8.67275 3.87366 8.65978 3.9344 8.63457C3.99515 8.60936 4.05032 8.57242 4.09677 8.52586L5.38277 7.23586C5.47624 7.14215 5.52874 7.01521 5.52877 6.88286V6.24386L13.9158 15.1169C13.9585 15.1748 14.0132 15.2229 14.0762 15.2577C14.1391 15.2926 14.2089 15.3134 14.2807 15.3188C14.3525 15.3242 14.4246 15.3141 14.4921 15.2891C14.5596 15.264 14.6209 15.2247 14.6718 15.1739L16.1718 13.6739C16.2624 13.5831 16.3148 13.461 16.3179 13.3328C16.3211 13.2045 16.2749 13.08 16.1888 12.9849L7.05977 4.35486C7.80677 3.89886 8.83177 3.51586 10.1718 3.51586C10.2753 3.51593 10.3764 3.48384 10.4609 3.42401C10.5455 3.36418 10.6094 3.27956 10.6438 3.18186Z" fill="#281414"/>
</svg>
