<svg width="46" height="46" viewBox="0 0 46 46" fill="none" xmlns="http://www.w3.org/2000/svg">
<g filter="url(#filter0_d_15168_45193)">
<rect x="3" y="2" width="40" height="40" rx="8" fill="#FFD97F"/>
<rect x="3" y="2" width="40" height="40" rx="8" stroke="#AA7700" stroke-width="1.5" stroke-linecap="round" stroke-dasharray="6 4"/>
<g clip-path="url(#clip0_15168_45193)">
<path d="M25.2528 10.001C25.8495 10.001 26.4217 10.2382 26.8436 10.6602C27.2656 11.0821 27.5028 11.6543 27.5028 12.251V13.751H32.7528C32.9517 13.751 33.1424 13.8301 33.2831 13.9707C33.4237 14.1113 33.5028 14.3021 33.5028 14.501C33.5028 14.6999 33.4237 14.8906 33.2831 15.0312C33.1424 15.1719 32.9517 15.251 32.7528 15.251H31.9462L30.6669 31.2412C30.6065 31.9929 30.265 32.6946 29.7108 33.2061C29.1566 33.7175 28.4298 34.0011 27.6757 34.001H18.33C17.5761 34.001 16.8499 33.7172 16.2958 33.2061C15.7415 32.6946 15.4001 31.9929 15.3397 31.2412L14.0594 15.251H13.2528C13.0539 15.251 12.8632 15.1719 12.7225 15.0312C12.5819 14.8906 12.5028 14.6999 12.5028 14.501C12.5028 14.3021 12.5819 14.1113 12.7225 13.9707C12.8632 13.8301 13.0539 13.751 13.2528 13.751H18.5028V12.251C18.5028 11.6543 18.74 11.0821 19.162 10.6602C19.5839 10.2382 20.1561 10.001 20.7528 10.001H25.2528ZM18.4559 16.7363C18.3564 16.7423 18.2583 16.7674 18.1688 16.8115C18.0794 16.8556 17.9999 16.9179 17.9344 16.9932C17.8692 17.0683 17.8191 17.1554 17.788 17.25C17.7568 17.3448 17.7448 17.4455 17.7528 17.5449L18.5028 30.2949C18.5069 30.3944 18.531 30.4919 18.5731 30.582C18.6153 30.6722 18.6751 30.7535 18.7489 30.8203C18.8228 30.8872 18.9097 30.9386 19.0038 30.9717C19.0979 31.0047 19.1982 31.0187 19.2977 31.0127C19.3971 31.0067 19.4945 30.9815 19.5839 30.9375C19.6732 30.8935 19.7529 30.832 19.8182 30.7568C19.8836 30.6816 19.9336 30.5937 19.9647 30.499C19.9959 30.4043 20.0078 30.3035 19.9999 30.2041L19.2499 17.4541C19.2458 17.3547 19.2217 17.2571 19.1796 17.167C19.1373 17.0768 19.0776 16.9956 19.0038 16.9287C18.9298 16.8618 18.843 16.8104 18.7489 16.7773C18.6549 16.7443 18.5554 16.7304 18.4559 16.7363ZM23.0028 16.751C22.8039 16.751 22.6132 16.8301 22.4725 16.9707C22.3319 17.1113 22.2528 17.3021 22.2528 17.501V30.251C22.2528 30.4499 22.3319 30.6406 22.4725 30.7812C22.6132 30.9219 22.8039 31.001 23.0028 31.001C23.2017 31.001 23.3924 30.9219 23.5331 30.7812C23.6737 30.6406 23.7528 30.4499 23.7528 30.251V17.501C23.7528 17.3021 23.6737 17.1113 23.5331 16.9707C23.3924 16.8301 23.2017 16.751 23.0028 16.751ZM27.5477 16.7529C27.3493 16.7415 27.1542 16.8092 27.0057 16.9414C26.8574 17.0736 26.7673 17.2596 26.7557 17.458L26.0057 30.208C25.9994 30.4034 26.0702 30.5939 26.202 30.7383C26.3339 30.8825 26.5167 30.9701 26.7118 30.9814C26.907 30.9928 27.0992 30.927 27.2469 30.7988C27.3946 30.6707 27.4865 30.4898 27.5028 30.2949L28.2528 17.5449C28.2643 17.3465 28.1964 17.1514 28.0643 17.0029C27.9321 16.8544 27.7462 16.7645 27.5477 16.7529ZM20.7528 11.501C20.5539 11.501 20.3632 11.5801 20.2225 11.7207C20.0819 11.8613 20.0028 12.0521 20.0028 12.251V13.751H26.0028V12.251C26.0028 12.0521 25.9237 11.8613 25.7831 11.7207C25.6424 11.5801 25.4517 11.501 25.2528 11.501H20.7528Z" fill="#AA7700"/>
</g>
</g>
<defs>
<filter id="filter0_d_15168_45193" x="0.25" y="0.25" width="45.5" height="45.5" filterUnits="userSpaceOnUse" color-interpolation-filters="sRGB">
<feFlood flood-opacity="0" result="BackgroundImageFix"/>
<feColorMatrix in="SourceAlpha" type="matrix" values="0 0 0 0 0 0 0 0 0 0 0 0 0 0 0 0 0 0 127 0" result="hardAlpha"/>
<feOffset dy="1"/>
<feGaussianBlur stdDeviation="1"/>
<feColorMatrix type="matrix" values="0 0 0 0 0 0 0 0 0 0 0 0 0 0 0 0 0 0 0.3 0"/>
<feBlend mode="normal" in2="BackgroundImageFix" result="effect1_dropShadow_15168_45193"/>
<feBlend mode="normal" in="SourceGraphic" in2="effect1_dropShadow_15168_45193" result="shape"/>
</filter>
<clipPath id="clip0_15168_45193">
<rect width="24" height="24" fill="white" transform="translate(11 10)"/>
</clipPath>
</defs>
</svg>
