<svg width="58" height="58" viewBox="0 0 58 58" fill="none" xmlns="http://www.w3.org/2000/svg">
<g filter="url(#filter0_dd_15168_45179)">
<rect x="9" y="7" width="40" height="40" rx="8" fill="#DB9E89"/>
<rect x="9" y="7" width="40" height="40" rx="8" stroke="#7A280C" stroke-width="1.5" stroke-linecap="round" stroke-dasharray="6 4"/>
<g clip-path="url(#clip0_15168_45179)">
<path d="M40.2646 32.9951C40.3643 32.9948 40.4636 33.0145 40.5556 33.0527C40.6475 33.091 40.7308 33.1471 40.8008 33.2178C40.8708 33.2887 40.9267 33.3733 40.9638 33.4658C41.001 33.5585 41.0192 33.658 41.0175 33.7578C41.0159 33.8574 40.9941 33.9557 40.9541 34.0469C40.9139 34.1382 40.8556 34.2214 40.7832 34.29C40.7108 34.3586 40.6255 34.4121 40.5322 34.4473L37.8945 35.502C37.0006 35.8594 36.0032 35.8595 35.1093 35.502L33.5888 34.8926C33.0525 34.6781 32.4533 34.6781 31.917 34.8926L30.3945 35.502C29.5006 35.8594 28.5032 35.8595 27.6093 35.502L26.0888 34.8926C25.5525 34.6781 24.9533 34.6781 24.417 34.8926L22.8945 35.502C22.0006 35.8594 21.0032 35.8595 20.1093 35.502L17.4736 34.4473C17.2891 34.3732 17.1416 34.2287 17.0634 34.0459C16.9853 33.8631 16.9827 33.6563 17.0566 33.4717C17.1307 33.2872 17.2752 33.1397 17.458 33.0615C17.6408 32.9833 17.8476 32.9807 18.0322 33.0547L20.667 34.1094C21.2033 34.3239 21.8025 34.3239 22.3388 34.1094L23.8593 33.501C24.7533 33.1434 25.7505 33.1434 26.6445 33.501L28.167 34.1094C28.7033 34.3239 29.3025 34.3239 29.8388 34.1094L31.3593 33.501C32.2533 33.1434 33.2505 33.1434 34.1445 33.501L35.667 34.1094C36.2033 34.3239 36.8025 34.3239 37.3388 34.1094L39.9736 33.0547C40.0655 33.0156 40.1648 32.9955 40.2646 32.9951ZM40.2646 28.4951C40.3643 28.4948 40.4636 28.5145 40.5556 28.5527C40.6475 28.591 40.7308 28.6471 40.8008 28.7178C40.8708 28.7887 40.9267 28.8733 40.9638 28.9658C41.001 29.0585 41.0192 29.158 41.0175 29.2578C41.0159 29.3574 40.9941 29.4557 40.9541 29.5469C40.9139 29.6382 40.8556 29.7214 40.7832 29.79C40.7108 29.8586 40.6255 29.9121 40.5322 29.9473L37.8945 31.002C37.0006 31.3594 36.0032 31.3595 35.1093 31.002L33.5888 30.3926C33.0525 30.1781 32.4533 30.1781 31.917 30.3926L30.3945 31.002C29.5006 31.3594 28.5032 31.3595 27.6093 31.002L26.0888 30.3926C25.5525 30.1781 24.9533 30.1781 24.417 30.3926L22.8945 31.002C22.0006 31.3594 21.0032 31.3595 20.1093 31.002L17.4736 29.9473C17.2891 29.8732 17.1416 29.7287 17.0634 29.5459C16.9853 29.3631 16.9827 29.1563 17.0566 28.9717C17.1307 28.7872 17.2752 28.6397 17.458 28.5615C17.6408 28.4833 17.8476 28.4807 18.0322 28.5547L20.667 29.6094C21.2033 29.8239 21.8025 29.8239 22.3388 29.6094L23.8593 29.001C24.7533 28.6434 25.7505 28.6434 26.6445 29.001L28.167 29.6094C28.7033 29.8239 29.3025 29.8239 29.8388 29.6094L31.3593 29.001C32.2533 28.6434 33.2505 28.6434 34.1445 29.001L35.667 29.6094C36.2033 29.8239 36.8025 29.8239 37.3388 29.6094L39.9736 28.5547C40.0655 28.5156 40.1648 28.4955 40.2646 28.4951ZM40.2646 23.9951C40.3643 23.9948 40.4636 24.0145 40.5556 24.0527C40.6475 24.091 40.7308 24.1471 40.8008 24.2178C40.8708 24.2887 40.9267 24.3733 40.9638 24.4658C41.001 24.5585 41.0192 24.658 41.0175 24.7578C41.0159 24.8574 40.9941 24.9557 40.9541 25.0469C40.9139 25.1382 40.8556 25.2214 40.7832 25.29C40.7108 25.3586 40.6255 25.4121 40.5322 25.4473L37.8945 26.502C37.0006 26.8594 36.0032 26.8595 35.1093 26.502L33.5888 25.8926C33.0525 25.6781 32.4533 25.6781 31.917 25.8926L30.3945 26.502C29.5006 26.8594 28.5032 26.8595 27.6093 26.502L26.0888 25.8926C25.5525 25.6781 24.9533 25.6781 24.417 25.8926L22.8945 26.502C22.0006 26.8594 21.0032 26.8595 20.1093 26.502L17.4736 25.4473C17.2891 25.3732 17.1416 25.2287 17.0634 25.0459C16.9853 24.8631 16.9827 24.6563 17.0566 24.4717C17.1307 24.2872 17.2752 24.1397 17.458 24.0615C17.6408 23.9833 17.8476 23.9807 18.0322 24.0547L20.667 25.1094C21.2033 25.3239 21.8025 25.3239 22.3388 25.1094L23.8593 24.501C24.7533 24.1434 25.7505 24.1434 26.6445 24.501L28.167 25.1094C28.7033 25.3239 29.3025 25.3239 29.8388 25.1094L31.3593 24.501C32.2533 24.1434 33.2505 24.1434 34.1445 24.501L35.667 25.1094C36.2033 25.3239 36.8025 25.3239 37.3388 25.1094L39.9736 24.0547C40.0655 24.0156 40.1648 23.9955 40.2646 23.9951ZM40.2646 19.4951C40.3643 19.4948 40.4636 19.5145 40.5556 19.5527C40.6475 19.591 40.7308 19.6471 40.8008 19.7178C40.8708 19.7887 40.9267 19.8733 40.9638 19.9658C41.001 20.0585 41.0192 20.158 41.0175 20.2578C41.0159 20.3574 40.9941 20.4557 40.9541 20.5469C40.9139 20.6382 40.8556 20.7214 40.7832 20.79C40.7108 20.8586 40.6255 20.9121 40.5322 20.9473L37.8945 22.002C37.0006 22.3594 36.0032 22.3595 35.1093 22.002L33.5888 21.3926C33.0525 21.1781 32.4533 21.1781 31.917 21.3926L30.3945 22.002C29.5006 22.3594 28.5032 22.3595 27.6093 22.002L26.0888 21.3926C25.5525 21.1781 24.9533 21.1781 24.417 21.3926L22.8945 22.002C22.0006 22.3594 21.0032 22.3595 20.1093 22.002L17.4736 20.9473C17.2891 20.8732 17.1416 20.7287 17.0634 20.5459C16.9853 20.3631 16.9827 20.1563 17.0566 19.9717C17.1307 19.7872 17.2752 19.6397 17.458 19.5615C17.6408 19.4833 17.8476 19.4807 18.0322 19.5547L20.667 20.6094C21.2033 20.8239 21.8025 20.8239 22.3388 20.6094L23.8593 20.001C24.7533 19.6434 25.7505 19.6434 26.6445 20.001L28.167 20.6094C28.7033 20.8239 29.3025 20.8239 29.8388 20.6094L31.3593 20.001C32.2533 19.6434 33.2505 19.6434 34.1445 20.001L35.667 20.6094C36.2033 20.8239 36.8025 20.8239 37.3388 20.6094L39.9736 19.5547C40.0655 19.5156 40.1648 19.4955 40.2646 19.4951Z" fill="#7A280C"/>
</g>
</g>
<defs>
<filter id="filter0_dd_15168_45179" x="0.25" y="0.25" width="57.5" height="57.5" filterUnits="userSpaceOnUse" color-interpolation-filters="sRGB">
<feFlood flood-opacity="0" result="BackgroundImageFix"/>
<feColorMatrix in="SourceAlpha" type="matrix" values="0 0 0 0 0 0 0 0 0 0 0 0 0 0 0 0 0 0 127 0" result="hardAlpha"/>
<feMorphology radius="2" operator="dilate" in="SourceAlpha" result="effect1_dropShadow_15168_45179"/>
<feOffset dy="2"/>
<feGaussianBlur stdDeviation="3"/>
<feColorMatrix type="matrix" values="0 0 0 0 0 0 0 0 0 0 0 0 0 0 0 0 0 0 0.15 0"/>
<feBlend mode="normal" in2="BackgroundImageFix" result="effect1_dropShadow_15168_45179"/>
<feColorMatrix in="SourceAlpha" type="matrix" values="0 0 0 0 0 0 0 0 0 0 0 0 0 0 0 0 0 0 127 0" result="hardAlpha"/>
<feOffset dy="1"/>
<feGaussianBlur stdDeviation="1"/>
<feColorMatrix type="matrix" values="0 0 0 0 0 0 0 0 0 0 0 0 0 0 0 0 0 0 0.3 0"/>
<feBlend mode="normal" in2="effect1_dropShadow_15168_45179" result="effect2_dropShadow_15168_45179"/>
<feBlend mode="normal" in="SourceGraphic" in2="effect2_dropShadow_15168_45179" result="shape"/>
</filter>
<clipPath id="clip0_15168_45179">
<rect width="24" height="24" fill="white" transform="translate(17 15)"/>
</clipPath>
</defs>
</svg>
