<?xml version="1.0" encoding="UTF-8"?>
<svg width="30" height="31" fill="none" version="1.1" viewBox="0 0 30 31" xmlns="http://www.w3.org/2000/svg">
 <rect x="1" y="1.5" width="28" height="28" rx="5.6" fill="#f9c9b9"/>
 <rect x="1" y="1.5" width="28" height="28" rx="5.6" stroke="#ee6f44" stroke-dasharray="4.2 2.8" stroke-linecap="round" stroke-width="1.05"/>
 <g clip-path="url(#clip0_14170_134800)">
  <path d="m22.884 19.695c.0698-3e-4.1396.0133.2041.0401.0645.0267.1228.0665.1718.1162.0491.0497.0883.1089.1143.1738.0259.0647.0383.1344.0371.2041-.0012.0696-.0159.1384-.0439.2021-.0282.064-.0694.1219-.1202.17-.0506.0479-.1105.0857-.1757.1103l-1.8457.7383c-.6258.2502-1.3245.2503-1.9502 0l-1.0645-.4268c-.3754-.15-.7945-.1501-1.1699 0l-1.0654.4268c-.6258.2502-1.3245.2503-1.9502 0l-1.0645-.4268c-.3754-.15-.7945-.1501-1.1699 0l-1.0654.4268c-.6258.2502-1.3245.2503-1.9502 0l-1.8447-.7383c-.12911-.0518-.2324-.1533-.28711-.2812-.05463-.1279-.05649-.2723-.00489-.4014.05181-.1292.15333-.2324.28125-.2871.12791-.0547.27221-.0566.40137-.0049l1.8447.7383c.37535.1501.79455.15 1.1699 0l1.0645-.4268c.6257-.2503 1.3244-.2502 1.9502 0l1.0654.4268c.3753.1501.7945.15 1.1699 0l1.0645-.4268c.6257-.2503 1.3244-.2502 1.9502 0l1.0654.4268c.3753.1501.7945.15 1.1699 0l1.8447-.7383c.0642-.0273.1335-.0416.2032-.042zm0-3.1504c.0698-3e-4.1395.0142.2041.041.0643.0268.1228.0657.1718.1153.0491.0497.0883.109.1143.1738s.0383.1343.0371.2041-.0158.1392-.0439.2031c-.0282.0639-.0695.121-.1202.169s-.1104.0857-.1757.1103l-1.8457.7383c-.6259.2503-1.3244.2503-1.9502 0l-1.0645-.4268c-.3754-.15-.7946-.1501-1.1699 0l-1.0654.4268c-.6259.2503-1.3244.2503-1.9502 0l-1.0645-.4268c-.3754-.15-.7946-.1501-1.1699 0l-1.0654.4268c-.6259.2503-1.3244.2503-1.9502 0l-1.8447-.7383c-.12894-.0518-.23238-.1525-.28711-.2803-.05474-.1279-.05665-.2731-.00489-.4023.05182-.1292.15327-.2324.28125-.2871.12787-.0547.27225-.0565.40137-.0049l1.8447.7383c.37539.1501.79451.1501 1.1699 0l1.0645-.4258c.6258-.2503 1.3243-.2503 1.9502 0l1.0654.4258c.3754.1501.7945.1501 1.1699 0l1.0645-.4258c.6258-.2503 1.3243-.2503 1.9502 0l1.0654.4258c.3754.1501.7945.1501 1.1699 0l1.8447-.7383c.0642-.0273.1335-.0416.2032-.042zm0-3.1494c.0698-3e-4.1395.0132.2041.04.0645.0268.1228.0666.1718.1163.049.0496.0883.1081.1143.1728.0259.0648.0382.1344.0371.2041-.0012.0699-.0158.1392-.0439.2031-.0282.064-.0694.1219-.1202.17-.0506.0478-.1105.0848-.1757.1093l-1.8457.7383c-.6259.2504-1.3244.2504-1.9502 0l-1.0645-.4258c-.3754-.1501-.7945-.1501-1.1699 0l-1.0654.4258c-.6259.2504-1.3244.2504-1.9502 0l-1.0645-.4258c-.3754-.1501-.7945-.1501-1.1699 0l-1.0654.4258c-.6259.2504-1.3244.2504-1.9502 0l-1.8447-.7383c-.12898-.0518-.23244-.1524-.28711-.2802-.05467-.1279-.05644-.2723-.00489-.4014.05182-.1292.15327-.2334.28125-.2881.1279-.0546.27225-.0556.40137-.0039l1.8447.7383c.37533.1501.79456.15 1.1699 0l1.0645-.4268c.6258-.2503 1.3243-.2503 1.9502 0l1.0654.4268c.3753.1501.7946.15 1.1699 0l1.0645-.4268c.6258-.2503 1.3243-.2503 1.9502 0l1.0654.4268c.3753.1501.7946.15 1.1699 0l1.8447-.7383c.0642-.0273.1335-.0416.2032-.042zm0-3.1504c.0698-3e-4.1396.0133.2041.0401.0644.0267.1228.0665.1718.1162.0491.0497.0883.1089.1143.1738.0259.0648.0383.1343.0371.2041-.0012.0696-.0159.1384-.0439.2021-.0282.064-.0694.1219-.1202.17-.0506.0479-.1104.0857-.1757.1103l-1.8457.7383c-.6258.2503-1.3245.2503-1.9502 0l-1.0645-.4268c-.3754-.15-.7946-.1501-1.1699 0l-1.0654.4268c-.6258.2503-1.3245.2503-1.9502 0l-1.0645-.4268c-.3754-.15-.7946-.1501-1.1699 0l-1.0654.4268c-.6258.2503-1.3245.2503-1.9502 0l-1.8447-.7383c-.12908-.0518-.23241-.1533-.28711-.2812-.05458-.1279-.05654-.2723-.00489-.4014.05182-.1292.1533-.2324.28125-.2871.12789-.0547.27223-.0565.40137-.0049l1.8447.7383c.37537.1501.79453.1501 1.1699 0l1.0645-.4268c.6257-.2503 1.3244-.2502 1.9502 0l1.0654.4268c.3754.1501.7945.1501 1.1699 0l1.0645-.4268c.6257-.2503 1.3244-.2502 1.9502 0l1.0654.4268c.3754.1501.7945.1501 1.1699 0l1.8447-.7383c.0642-.0273.1335-.0416.2032-.042z" fill="#ee6f44"/>
 </g>
 <defs>
  <clipPath id="clip0_14170_134800">
   <rect transform="translate(6.6 7.0996)" width="16.8" height="16.8" fill="#fff"/>
  </clipPath>
 </defs>
</svg>
