<svg width="18" height="19" viewBox="0 0 18 19" fill="none" xmlns="http://www.w3.org/2000/svg">
<g clip-path="url(#clip0_14170_134790)">
<path d="M9.00183 0.500977C11.3888 0.500977 13.6783 1.44987 15.3661 3.1377C17.0538 4.82541 18.0017 7.1142 18.0018 9.50098C18.0018 11.8879 17.0539 14.1774 15.3661 15.8652C13.6783 17.5531 11.3888 18.501 9.00183 18.501C6.61506 18.5008 4.32626 17.5529 2.63855 15.8652C0.950722 14.1774 0.00183105 11.8879 0.00183105 9.50098C0.00195927 7.1142 0.950837 4.82541 2.63855 3.1377C4.32626 1.44998 6.61506 0.501105 9.00183 0.500977ZM8.80066 12.4365C8.1438 12.4366 7.66589 12.8732 7.66589 13.4941C7.66592 14.0933 8.14328 14.5355 8.80066 14.5361C9.48689 14.5361 9.95883 14.0937 9.95886 13.4941C9.95886 12.8731 9.48578 12.4365 8.80066 12.4365ZM9.00769 4.43848C7.58238 4.43855 6.02081 5.10285 5.91394 7.01074C5.91241 7.04703 5.91855 7.08326 5.93152 7.11719C5.94451 7.15115 5.96472 7.18198 5.99011 7.20801C6.01543 7.23394 6.04547 7.25475 6.07898 7.26855C6.11261 7.28238 6.14907 7.28971 6.18542 7.28906H7.11316C7.26826 7.28906 7.39254 7.16174 7.41296 7.00781C7.51421 6.26981 8.02048 5.73145 8.92273 5.73145C9.69437 5.73154 10.4003 6.11789 10.4003 7.0459C10.4001 7.75999 9.97998 8.08854 9.31531 8.58789C8.55821 9.138 7.95815 9.78043 8.00085 10.8232L8.00476 11.0674C8.00594 11.1412 8.03613 11.2119 8.08875 11.2637C8.14133 11.3153 8.21233 11.3438 8.28601 11.3438H9.19812C9.27269 11.3437 9.34461 11.3145 9.39734 11.2617C9.44992 11.209 9.47937 11.137 9.47937 11.0625V10.9453C9.47937 10.1377 9.78633 9.90205 10.6151 9.27344C11.3002 8.75256 12.0155 8.17384 12.0155 6.95996C12.0154 5.26017 10.5793 4.43848 9.00769 4.43848Z" fill="#281414"/>
</g>
<defs>
<clipPath id="clip0_14170_134790">
<rect width="18" height="18" fill="white" transform="translate(0 0.5)"/>
</clipPath>
</defs>
</svg>
