<svg width="30" height="31" viewBox="0 0 30 31" fill="none" xmlns="http://www.w3.org/2000/svg">
<rect x="1" y="1.5" width="28" height="28" rx="5.6" fill="#FFF2D4"/>
<rect x="1" y="1.5" width="28" height="28" rx="5.6" stroke="#AA7700" stroke-width="1.05" stroke-linecap="round" stroke-dasharray="4.2 2.8"/>
<g clip-path="url(#clip0_14170_134807)">
<path d="M16.5772 7.09961C16.9948 7.09968 17.3952 7.26534 17.6905 7.56055C17.9859 7.85592 18.1524 8.25709 18.1524 8.6748V9.72461H21.8272C21.9663 9.72468 22.0999 9.77957 22.1983 9.87793C22.2967 9.97629 22.3515 10.1099 22.3516 10.249C22.3516 10.3883 22.2968 10.5226 22.1983 10.6211C22.0999 10.7194 21.9663 10.7743 21.8272 10.7744H21.2618L20.3663 21.9678C20.324 22.4939 20.0852 22.9848 19.6973 23.3428C19.3093 23.7008 18.8005 23.8995 18.2725 23.8994H11.7315C11.2036 23.8995 10.6947 23.7008 10.3067 23.3428C9.9188 22.9848 9.68008 22.4939 9.63776 21.9678L8.74225 10.7744H8.17682C8.03773 10.7744 7.90413 10.7194 7.80573 10.6211C7.70727 10.5226 7.6524 10.3883 7.6524 10.249C7.65251 10.1099 7.70736 9.97629 7.80573 9.87793C7.90414 9.77959 8.03769 9.72464 8.17682 9.72461H11.8516V8.6748C11.8516 8.25709 12.0182 7.85592 12.3135 7.56055C12.6089 7.26535 13.0093 7.09964 13.4268 7.09961H16.5772ZM11.8184 11.8135C11.7488 11.8177 11.6808 11.8364 11.6182 11.8672C11.5558 11.898 11.4999 11.9406 11.4542 11.9932C11.4084 12.0458 11.3734 12.1075 11.3516 12.1738C11.3298 12.2402 11.3216 12.3103 11.3272 12.3799L11.8516 21.3047C11.8544 21.3745 11.8718 21.4436 11.9014 21.5068C11.931 21.5698 11.9729 21.6262 12.0245 21.6729C12.0762 21.7196 12.1364 21.7562 12.2022 21.7793C12.2681 21.8024 12.3386 21.8118 12.4083 21.8076C12.4778 21.8034 12.5459 21.7857 12.6085 21.7549C12.6711 21.724 12.7267 21.6806 12.7725 21.6279C12.8182 21.5753 12.8532 21.5144 12.8751 21.4482C12.8968 21.382 12.905 21.3117 12.8995 21.2422L12.3751 12.3164C12.3722 12.2468 12.3557 12.1783 12.3262 12.1152C12.2966 12.052 12.254 11.9951 12.2022 11.9482C12.1506 11.9016 12.0901 11.8659 12.0245 11.8428C11.9586 11.8196 11.8881 11.8093 11.8184 11.8135ZM15.002 11.8242C14.8628 11.8242 14.7294 11.8801 14.6309 11.9785C14.5325 12.077 14.4766 12.2104 14.4766 12.3496V21.2744C14.4766 21.4137 14.5325 21.5471 14.6309 21.6455C14.7294 21.7439 14.8628 21.7998 15.002 21.7998C15.1412 21.7998 15.2747 21.7439 15.3731 21.6455C15.4715 21.5471 15.5274 21.4136 15.5274 21.2744V12.3496C15.5274 12.2104 15.4715 12.077 15.3731 11.9785C15.2747 11.8801 15.1412 11.8242 15.002 11.8242ZM18.1837 11.8252C18.0447 11.8172 17.9077 11.8645 17.8038 11.957C17.6998 12.0496 17.6371 12.1804 17.629 12.3193L17.1036 21.2441C17.0991 21.381 17.149 21.5141 17.2413 21.6152C17.3336 21.7163 17.462 21.7772 17.5987 21.7852C17.7351 21.793 17.8694 21.7477 17.9727 21.6582C18.0761 21.5684 18.141 21.4412 18.1524 21.3047L18.6768 12.3799C18.6848 12.2411 18.6374 12.1049 18.545 12.001C18.4525 11.8971 18.3225 11.8334 18.1837 11.8252ZM13.4268 8.14941C13.2877 8.14945 13.1541 8.20445 13.0557 8.30273C12.9573 8.40119 12.9024 8.53557 12.9024 8.6748V9.72461H17.1016V8.6748C17.1016 8.53557 17.0468 8.40119 16.9483 8.30273C16.8499 8.20444 16.7163 8.14948 16.5772 8.14941H13.4268Z" fill="#AA7700"/>
</g>
<defs>
<clipPath id="clip0_14170_134807">
<rect width="16.8" height="16.8" fill="white" transform="translate(6.59998 7.09961)"/>
</clipPath>
</defs>
</svg>
