<svg width="19" height="18" viewBox="0 0 19 18" fill="none" xmlns="http://www.w3.org/2000/svg">
<g clip-path="url(#clip0_12864_55252)">
<path d="M15.6885 2.25C15.7623 2.25 15.8361 2.26471 15.9043 2.29297C15.9726 2.32133 16.0347 2.36363 16.0869 2.41602C16.1393 2.46827 16.1816 2.5303 16.21 2.59863C16.2382 2.66671 16.2529 2.73979 16.2529 2.81348C16.2529 2.88733 16.2382 2.96107 16.21 3.0293C16.1816 3.09764 16.1393 3.15966 16.0869 3.21191L10.2969 9.00098L16.0869 14.791C16.1924 14.8965 16.2518 15.0393 16.252 15.1885C16.252 15.3378 16.1925 15.4813 16.0869 15.5869C15.9813 15.6925 15.8378 15.752 15.6885 15.752C15.5393 15.7518 15.3965 15.6924 15.291 15.5869L9.50098 9.79688L3.71191 15.5869C3.60629 15.6925 3.46285 15.752 3.31348 15.752C3.16428 15.7518 3.02152 15.6924 2.91602 15.5869C2.81039 15.4813 2.75098 15.3378 2.75098 15.1885C2.7511 15.0393 2.81051 14.8965 2.91602 14.791L8.70508 9.00098L2.91602 3.21191C2.86363 3.15966 2.82133 3.09764 2.79297 3.0293C2.76471 2.96106 2.75 2.88733 2.75 2.81348C2.75006 2.73979 2.76478 2.66671 2.79297 2.59863C2.82133 2.53029 2.86363 2.46827 2.91602 2.41602C2.96827 2.36363 3.03029 2.32133 3.09863 2.29297C3.16671 2.26478 3.23979 2.25006 3.31348 2.25C3.38733 2.25 3.46106 2.26471 3.5293 2.29297C3.59764 2.32133 3.65966 2.36363 3.71191 2.41602L9.50098 8.20508L15.291 2.41602C15.3433 2.36363 15.4053 2.32133 15.4736 2.29297C15.5417 2.26478 15.6148 2.25006 15.6885 2.25Z" fill="#F9F3EA"/>
</g>
<defs>
<clipPath id="clip0_12864_55252">
<rect width="18" height="18" fill="white" transform="translate(0.5)"/>
</clipPath>
</defs>
</svg>
