<svg width="16" height="16" viewBox="0 0 16 16" fill="none" xmlns="http://www.w3.org/2000/svg">
<path d="M7.6123 0.146484C7.83552 -0.0486278 8.16842 -0.0486856 8.3916 0.146484L15.7979 6.61133H15.7988C15.9278 6.7243 16.0019 6.88802 16.002 7.06055V15.4043C16.002 15.7331 15.7359 16 15.4082 16H0.59668C0.269021 16 0.00195312 15.7331 0.00195312 15.4043V7.06055C0.00200805 6.88905 0.0760635 6.7243 0.206055 6.61133L7.6123 0.146484ZM7.70508 6.84082C6.67404 5.87841 5.16193 5.75701 4.21484 6.9043C2.66264 8.7853 4.66698 10.7695 6.06055 11.9541C6.67184 12.4729 7.3205 12.9456 7.9707 13.4131L8.00879 13.4248C8.84407 12.8373 9.67334 12.2254 10.4268 11.5342C11.6545 10.4072 13.1078 8.72897 11.8965 7.04102C10.893 5.64286 9.10773 5.87445 8.06641 7.09082C8.048 7.11339 8.02275 7.14425 8.01562 7.17285C7.91016 7.06395 7.81669 6.94458 7.70508 6.84082Z" fill="#F9F3EA"/>
</svg>
