<svg width="30" height="31" viewBox="0 0 30 31" fill="none" xmlns="http://www.w3.org/2000/svg">
<rect x="1" y="1.5" width="28" height="28" rx="5.6" fill="#F3DED7"/>
<rect x="1" y="1.5" width="28" height="28" rx="5.6" stroke="#99320F" stroke-width="1.05" stroke-linecap="round" stroke-dasharray="4.2 2.8"/>
<g clip-path="url(#clip0_14170_134800)">
<path d="M22.8845 19.6953C22.9543 19.695 23.0241 19.7086 23.0886 19.7354C23.1531 19.7621 23.2114 19.8019 23.2604 19.8516C23.3095 19.9013 23.3487 19.9605 23.3747 20.0254C23.4006 20.0901 23.413 20.1598 23.4118 20.2295C23.4106 20.2991 23.3959 20.3679 23.3679 20.4316C23.3397 20.4956 23.2985 20.5535 23.2477 20.6016C23.1971 20.6495 23.1372 20.6873 23.072 20.7119L21.2263 21.4502C20.6005 21.7004 19.9018 21.7005 19.2761 21.4502L18.2116 21.0234C17.8362 20.8734 17.4171 20.8733 17.0417 21.0234L15.9763 21.4502C15.3505 21.7004 14.6518 21.7005 14.0261 21.4502L12.9616 21.0234C12.5862 20.8734 12.1671 20.8733 11.7917 21.0234L10.7263 21.4502C10.1005 21.7004 9.40182 21.7005 8.77606 21.4502L6.93134 20.7119C6.80223 20.6601 6.69894 20.5586 6.64423 20.4307C6.5896 20.3028 6.58774 20.1584 6.63934 20.0293C6.69115 19.9001 6.79267 19.7969 6.92059 19.7422C7.0485 19.6875 7.1928 19.6856 7.32196 19.7373L9.16669 20.4756C9.54204 20.6257 9.96124 20.6256 10.3366 20.4756L11.4011 20.0488C12.0268 19.7985 12.7255 19.7986 13.3513 20.0488L14.4167 20.4756C14.792 20.6257 15.2112 20.6256 15.5866 20.4756L16.6511 20.0488C17.2768 19.7985 17.9755 19.7986 18.6013 20.0488L19.6667 20.4756C20.042 20.6257 20.4612 20.6256 20.8366 20.4756L22.6813 19.7373C22.7455 19.71 22.8148 19.6957 22.8845 19.6953ZM22.8845 16.5449C22.9543 16.5446 23.024 16.5591 23.0886 16.5859C23.1529 16.6127 23.2114 16.6516 23.2604 16.7012C23.3095 16.7509 23.3487 16.8102 23.3747 16.875C23.4007 16.9398 23.413 17.0093 23.4118 17.0791C23.4106 17.1489 23.396 17.2183 23.3679 17.2822C23.3397 17.3461 23.2984 17.4032 23.2477 17.4512C23.197 17.4992 23.1373 17.5369 23.072 17.5615L21.2263 18.2998C20.6004 18.5501 19.9019 18.5501 19.2761 18.2998L18.2116 17.873C17.8362 17.723 17.417 17.7229 17.0417 17.873L15.9763 18.2998C15.3504 18.5501 14.6519 18.5501 14.0261 18.2998L12.9616 17.873C12.5862 17.723 12.167 17.7229 11.7917 17.873L10.7263 18.2998C10.1004 18.5501 9.40186 18.5501 8.77606 18.2998L6.93134 17.5615C6.8024 17.5097 6.69896 17.409 6.64423 17.2812C6.58949 17.1533 6.58758 17.0081 6.63934 16.8789C6.69116 16.7497 6.79261 16.6465 6.92059 16.5918C7.04846 16.5371 7.19284 16.5353 7.32196 16.5869L9.16669 17.3252C9.54208 17.4753 9.9612 17.4753 10.3366 17.3252L11.4011 16.8994C12.0269 16.6491 12.7254 16.6491 13.3513 16.8994L14.4167 17.3252C14.7921 17.4753 15.2112 17.4753 15.5866 17.3252L16.6511 16.8994C17.2769 16.6491 17.9754 16.6491 18.6013 16.8994L19.6667 17.3252C20.0421 17.4753 20.4612 17.4753 20.8366 17.3252L22.6813 16.5869C22.7455 16.5596 22.8148 16.5453 22.8845 16.5449ZM22.8845 13.3955C22.9543 13.3952 23.024 13.4087 23.0886 13.4355C23.1531 13.4623 23.2114 13.5021 23.2604 13.5518C23.3094 13.6014 23.3487 13.6599 23.3747 13.7246C23.4006 13.7894 23.4129 13.859 23.4118 13.9287C23.4106 13.9986 23.396 14.0679 23.3679 14.1318C23.3397 14.1958 23.2985 14.2537 23.2477 14.3018C23.1971 14.3496 23.1372 14.3866 23.072 14.4111L21.2263 15.1494C20.6004 15.3998 19.9019 15.3998 19.2761 15.1494L18.2116 14.7236C17.8362 14.5735 17.4171 14.5735 17.0417 14.7236L15.9763 15.1494C15.3504 15.3998 14.6519 15.3998 14.0261 15.1494L12.9616 14.7236C12.5862 14.5735 12.1671 14.5735 11.7917 14.7236L10.7263 15.1494C10.1004 15.3998 9.40191 15.3998 8.77606 15.1494L6.93134 14.4111C6.80236 14.3593 6.6989 14.2587 6.64423 14.1309C6.58956 14.003 6.58779 13.8586 6.63934 13.7295C6.69116 13.6003 6.79261 13.4961 6.92059 13.4414C7.04849 13.3868 7.19284 13.3858 7.32196 13.4375L9.16669 14.1758C9.54202 14.3259 9.96125 14.3258 10.3366 14.1758L11.4011 13.749C12.0269 13.4987 12.7254 13.4987 13.3513 13.749L14.4167 14.1758C14.792 14.3259 15.2113 14.3258 15.5866 14.1758L16.6511 13.749C17.2769 13.4987 17.9754 13.4987 18.6013 13.749L19.6667 14.1758C20.042 14.3259 20.4613 14.3258 20.8366 14.1758L22.6813 13.4375C22.7455 13.4102 22.8148 13.3959 22.8845 13.3955ZM22.8845 10.2451C22.9543 10.2448 23.0241 10.2584 23.0886 10.2852C23.153 10.3119 23.2114 10.3517 23.2604 10.4014C23.3095 10.4511 23.3487 10.5103 23.3747 10.5752C23.4006 10.64 23.413 10.7095 23.4118 10.7793C23.4106 10.8489 23.3959 10.9177 23.3679 10.9814C23.3397 11.0454 23.2985 11.1033 23.2477 11.1514C23.1971 11.1993 23.1373 11.2371 23.072 11.2617L21.2263 12C20.6005 12.2503 19.9018 12.2503 19.2761 12L18.2116 11.5732C17.8362 11.4232 17.417 11.4231 17.0417 11.5732L15.9763 12C15.3505 12.2503 14.6518 12.2503 14.0261 12L12.9616 11.5732C12.5862 11.4232 12.167 11.4231 11.7917 11.5732L10.7263 12C10.1005 12.2503 9.40184 12.2503 8.77606 12L6.93134 11.2617C6.80226 11.2099 6.69893 11.1084 6.64423 10.9805C6.58965 10.8526 6.58769 10.7082 6.63934 10.5791C6.69116 10.4499 6.79264 10.3467 6.92059 10.292C7.04848 10.2373 7.19282 10.2355 7.32196 10.2871L9.16669 11.0254C9.54206 11.1755 9.96122 11.1755 10.3366 11.0254L11.4011 10.5986C12.0268 10.3483 12.7255 10.3484 13.3513 10.5986L14.4167 11.0254C14.7921 11.1755 15.2112 11.1755 15.5866 11.0254L16.6511 10.5986C17.2768 10.3483 17.9755 10.3484 18.6013 10.5986L19.6667 11.0254C20.0421 11.1755 20.4612 11.1755 20.8366 11.0254L22.6813 10.2871C22.7455 10.2598 22.8148 10.2455 22.8845 10.2451Z" fill="#7A280C"/>
</g>
<defs>
<clipPath id="clip0_14170_134800">
<rect width="16.8" height="16.8" fill="white" transform="translate(6.59998 7.09961)"/>
</clipPath>
</defs>
</svg>
