<svg width="16" height="17" viewBox="0 0 16 17" fill="none" xmlns="http://www.w3.org/2000/svg">
<path d="M13 3.00195C13 2.60413 13.158 2.2226 13.4393 1.94129C13.7206 1.65999 14.1022 1.50195 14.5 1.50195C14.8978 1.50195 15.2794 1.65999 15.5607 1.94129C15.842 2.2226 16 2.60413 16 3.00195V14.002C16 14.3998 15.842 14.7813 15.5607 15.0626C15.2794 15.3439 14.8978 15.502 14.5 15.502C14.1022 15.502 13.7206 15.3439 13.4393 15.0626C13.158 14.7813 13 14.3998 13 14.002V3.00195ZM12 3.72595C9.933 4.67595 7.461 5.20695 5 5.38195V11.619C5.36324 11.6394 5.72599 11.6678 6.088 11.704C8.141 11.908 10.126 12.372 12 13.264V3.72595ZM4 11.567V5.43595C3.32 5.46295 2.601 5.47895 1.992 5.48895C1.46234 5.49629 0.956756 5.71139 0.584163 6.08791C0.21157 6.46443 0.00178478 6.97225 0 7.50195V9.50195C0 10.608 0.896 11.498 1.994 11.511C2.15934 11.513 2.32468 11.5157 2.49 11.519C2.9935 11.529 3.49687 11.545 4 11.567ZM5.39 12.648C5.675 12.669 5.959 12.695 6.24 12.726L6.493 14.416C6.52053 14.5606 6.51579 14.7095 6.47911 14.8521C6.44243 14.9947 6.37473 15.1274 6.28083 15.2408C6.18692 15.3542 6.06914 15.4454 5.9359 15.508C5.80265 15.5706 5.65722 15.603 5.51 15.603H4.962C4.76762 15.6029 4.57746 15.5463 4.41478 15.4399C4.2521 15.3335 4.12395 15.182 4.046 15.004L2.732 12.524C3.29625 12.538 3.8603 12.5594 4.424 12.588C4.751 12.605 5.074 12.625 5.39 12.648Z" fill="#281414"/>
</svg>
