<svg width="16" height="17" viewBox="0 0 16 17" fill="none" xmlns="http://www.w3.org/2000/svg">
<path d="M8 16.6934C10.1217 16.6934 12.1566 15.8505 13.6569 14.3502C15.1571 12.8499 16 10.8151 16 8.69336C16 6.57163 15.1571 4.5368 13.6569 3.03651C12.1566 1.53621 10.1217 0.693359 8 0.693359C5.87827 0.693359 3.84344 1.53621 2.34315 3.03651C0.842855 4.5368 0 6.57163 0 8.69336C0 10.8151 0.842855 12.8499 2.34315 14.3502C3.84344 15.8505 5.87827 16.6934 8 16.6934ZM8.93 7.28136L7.93 11.9864C7.86 12.3264 7.959 12.5194 8.234 12.5194C8.428 12.5194 8.721 12.4494 8.92 12.2734L8.832 12.6894C8.545 13.0354 7.912 13.2874 7.367 13.2874C6.664 13.2874 6.365 12.8654 6.559 11.9684L7.297 8.50036C7.361 8.20736 7.303 8.10136 7.01 8.03036L6.559 7.94936L6.641 7.56836L8.931 7.28136H8.93ZM8 6.19336C7.73478 6.19336 7.48043 6.088 7.29289 5.90047C7.10536 5.71293 7 5.45858 7 5.19336C7 4.92814 7.10536 4.67379 7.29289 4.48625C7.48043 4.29872 7.73478 4.19336 8 4.19336C8.26522 4.19336 8.51957 4.29872 8.70711 4.48625C8.89464 4.67379 9 4.92814 9 5.19336C9 5.45858 8.89464 5.71293 8.70711 5.90047C8.51957 6.088 8.26522 6.19336 8 6.19336Z" fill="#235540"/>
</svg>
