<?xml version="1.0" encoding="UTF-8"?>
<svg width="40" height="40" version="1.1" viewBox="0 0 40 40" xmlns="http://www.w3.org/2000/svg">
 <circle cx="20" cy="20" r="20" fill="#367674"/>
 <path d="m16.25 21.25c.82-.0096 1.6366.1085 2.4202.34992-1.5699 1.2125-2.4202 2.9564-2.4202 4.6501-.0076.43192.08492.85978.27016 1.25h-5.2702c-.01034-8.4e-5-1.25-.0053-1.25-1.25 8.4e-5-1.2501 1.2502-5 6.25-5zm7.5 0c4.9999 0 6.25 3.7499 6.25 5 0 1.25-1.25 1.25-1.25 1.25h-10c-.01034-8.4e-5-1.25-.0053-1.25-1.25 8.4e-5-1.2501 1.2502-5 6.25-5zm-8.125-7.5c.82884 0 1.6235.3295 2.2095.91545.586.58611.91545 1.3806.91545 2.2095 0 .82878-.32942 1.6235-.91545 2.2095-.58611.58611-1.3806.91554-2.2095.91554-.82878 0-1.6235-.3295-2.2095-.91554-.586-.586-.91554-1.3806-.91554-2.2095 8.4e-5-.82884.3295-1.6235.91554-2.2095.586-.586 1.3806-.91545 2.2095-.91545zm8.125-1.25c.99454 0 1.9482.39542 2.6515 1.0985.70322.70322 1.0985 1.6568 1.0985 2.6515 0 .99464-.39534 1.9481-1.0985 2.6514-.70322.70322-1.6568 1.0986-2.6515 1.0986-.99454 0-1.9481-.39542-2.6514-1.0986-.70322-.70325-1.0986-1.6568-1.0986-2.6514 8.4e-5-.99454.39542-1.9482 1.0986-2.6515.70325-.70328 1.6568-1.0985 2.6514-1.0985z" fill="#f9f3ea"/>
</svg>
