<?xml version="1.0" encoding="UTF-8"?>
<svg width="60" height="60" fill="none" version="1.1" viewBox="0 0 60 60" xmlns="http://www.w3.org/2000/svg">
 <g transform="translate(-2,19)">
  <path d="m2-7c0-6.6274 5.3726-12 12-12h36c6.6274 0 12 5.3726 12 12v36c0 6.6274-5.3726 12-12 12h-36c-6.6274 0-12-5.3726-12-12z" fill="#285957"/>
  <path d="m25.254 13.252c1.476-.01725 2.946.1953 4.3564.62985-2.8258 2.1825-4.3563 5.3214-4.3564 8.3702-.0138.77745.15285 1.5476.4863 2.25h-9.4863c-.0186-.00015-2.25-.0095-2.25-2.25.00015-2.2502 2.2503-9 11.25-9zm13.5 0c8.9998 0 11.25 6.7498 11.25 9 0 2.25-2.25 2.25-2.25 2.25h-18c-.0186-.00015-2.25-.0095-2.25-2.25.00015-2.2502 2.2503-9 11.25-9zm-14.625-13.5c1.4919 0 2.9222.5931 3.9771 1.6479 1.0548 1.055 1.6479 2.4852 1.6479 3.9771 0 1.4918-.59295 2.9222-1.6479 3.977-1.055 1.055-2.4852 1.648-3.9771 1.648-1.4918 0-2.9222-.5931-3.977-1.648-1.0548-1.0548-1.648-2.4852-1.648-3.977.00015-1.4919.5931-2.9222 1.648-3.9771 1.0548-1.0548 2.4852-1.6479 3.977-1.6479zm14.625-2.25c1.7902 0 3.5067.71175 4.7726 1.9774 1.2658 1.2658 1.9774 2.9823 1.9774 4.7726s-.7116 3.5066-1.9774 4.7724-2.9823 1.9776-4.7726 1.9776c-1.7901 0-3.5066-.71175-4.7724-1.9776s-1.9776-2.9823-1.9776-4.7724c.00015-1.7902.71175-3.5067 1.9776-4.7726s2.9823-1.9774 4.7724-1.9774z" fill="#f9f3ea"/>
 </g>
</svg>
