<svg width="44" height="44" viewBox="0 0 44 44" fill="none" xmlns="http://www.w3.org/2000/svg">
<g filter="url(#filter0_d_15414_121536)">
<path d="M2 21C2 9.95431 10.9543 1 22 1C33.0457 1 42 9.95431 42 21C42 32.0457 33.0457 41 22 41C10.9543 41 2 32.0457 2 21Z" fill="#B83D13"/>
<g clip-path="url(#clip0_15414_121536)">
<path d="M31.3877 25.9961C31.4707 25.9958 31.5532 26.0121 31.6299 26.0439C31.7067 26.0759 31.7765 26.1235 31.835 26.1826C31.8932 26.2416 31.9388 26.3118 31.9697 26.3887C32.0007 26.4658 32.016 26.5487 32.0146 26.6318C32.0133 26.7149 31.9954 26.797 31.9619 26.873C31.9284 26.9492 31.8797 27.018 31.8193 27.0752C31.759 27.1323 31.6881 27.1767 31.6104 27.2061L29.4131 28.085C28.6681 28.383 27.8368 28.3829 27.0918 28.085L25.8242 27.5771C25.3773 27.3984 24.8785 27.3985 24.4316 27.5771L23.1631 28.085C22.4181 28.383 21.5868 28.3829 20.8418 28.085L19.5742 27.5771C19.1273 27.3984 18.6285 27.3985 18.1816 27.5771L16.9131 28.085C16.1681 28.383 15.3368 28.3829 14.5918 28.085L12.3955 27.2061C12.2418 27.1444 12.1189 27.0244 12.0537 26.8721C11.9885 26.7197 11.9862 26.5474 12.0479 26.3936C12.1096 26.2399 12.2297 26.1169 12.3818 26.0518C12.5342 25.9866 12.7066 25.9843 12.8604 26.0459L15.0566 26.9248C15.5036 27.1036 16.0023 27.1036 16.4492 26.9248L17.7168 26.418C18.4618 26.12 19.2931 26.12 20.0381 26.418L21.3066 26.9248C21.7536 27.1036 22.2523 27.1036 22.6992 26.9248L23.9668 26.418C24.7118 26.12 25.5431 26.12 26.2881 26.418L27.5566 26.9248C28.0036 27.1036 28.5023 27.1036 28.9492 26.9248L31.1455 26.0459C31.2219 26.0135 31.3047 25.9964 31.3877 25.9961ZM31.3877 22.2461C31.4707 22.2458 31.5532 22.2621 31.6299 22.2939C31.7067 22.3259 31.7765 22.3735 31.835 22.4326C31.8932 22.4916 31.9388 22.5618 31.9697 22.6387C32.0007 22.7158 32.016 22.7987 32.0146 22.8818C32.0133 22.9649 31.9954 23.047 31.9619 23.123C31.9284 23.1992 31.8797 23.268 31.8193 23.3252C31.759 23.3823 31.6881 23.4267 31.6104 23.4561L29.4131 24.335C28.6681 24.633 27.8368 24.6329 27.0918 24.335L25.8242 23.8271C25.3773 23.6484 24.8785 23.6485 24.4316 23.8271L23.1631 24.335C22.4181 24.633 21.5868 24.6329 20.8418 24.335L19.5742 23.8271C19.1273 23.6484 18.6285 23.6485 18.1816 23.8271L16.9131 24.335C16.1681 24.633 15.3368 24.6329 14.5918 24.335L12.3955 23.4561C12.2418 23.3944 12.1189 23.2744 12.0537 23.1221C11.9885 22.9697 11.9862 22.7974 12.0479 22.6436C12.1096 22.4899 12.2297 22.3669 12.3818 22.3018C12.5342 22.2366 12.7066 22.2343 12.8604 22.2959L15.0566 23.1748C15.5036 23.3536 16.0023 23.3536 16.4492 23.1748L17.7168 22.668C18.4618 22.37 19.2931 22.37 20.0381 22.668L21.3066 23.1748C21.7536 23.3536 22.2523 23.3536 22.6992 23.1748L23.9668 22.668C24.7118 22.37 25.5431 22.37 26.2881 22.668L27.5566 23.1748C28.0036 23.3536 28.5023 23.3536 28.9492 23.1748L31.1455 22.2959C31.2219 22.2635 31.3047 22.2464 31.3877 22.2461ZM31.3877 18.4961C31.4707 18.4958 31.5532 18.5121 31.6299 18.5439C31.7067 18.5759 31.7765 18.6235 31.835 18.6826C31.8932 18.7416 31.9388 18.8118 31.9697 18.8887C32.0007 18.9658 32.016 19.0487 32.0146 19.1318C32.0133 19.2149 31.9954 19.297 31.9619 19.373C31.9284 19.4492 31.8797 19.518 31.8193 19.5752C31.759 19.6323 31.6881 19.6767 31.6104 19.7061L29.4131 20.585C28.6681 20.883 27.8368 20.8829 27.0918 20.585L25.8242 20.0771C25.3773 19.8984 24.8785 19.8985 24.4316 20.0771L23.1631 20.585C22.4181 20.883 21.5868 20.8829 20.8418 20.585L19.5742 20.0771C19.1273 19.8984 18.6285 19.8985 18.1816 20.0771L16.9131 20.585C16.1681 20.883 15.3368 20.8829 14.5918 20.585L12.3955 19.7061C12.2418 19.6444 12.1189 19.5244 12.0537 19.3721C11.9885 19.2197 11.9862 19.0474 12.0479 18.8936C12.1096 18.7399 12.2297 18.6169 12.3818 18.5518C12.5342 18.4866 12.7066 18.4843 12.8604 18.5459L15.0566 19.4248C15.5036 19.6036 16.0023 19.6036 16.4492 19.4248L17.7168 18.918C18.4618 18.62 19.2931 18.62 20.0381 18.918L21.3066 19.4248C21.7536 19.6036 22.2523 19.6036 22.6992 19.4248L23.9668 18.918C24.7118 18.62 25.5431 18.62 26.2881 18.918L27.5566 19.4248C28.0036 19.6036 28.5023 19.6036 28.9492 19.4248L31.1455 18.5459C31.2219 18.5135 31.3047 18.4964 31.3877 18.4961ZM31.3877 14.7461C31.4707 14.7458 31.5532 14.7621 31.6299 14.7939C31.7067 14.8259 31.7765 14.8735 31.835 14.9326C31.8932 14.9916 31.9388 15.0618 31.9697 15.1387C32.0007 15.2158 32.016 15.2987 32.0146 15.3818C32.0133 15.4649 31.9954 15.547 31.9619 15.623C31.9284 15.6992 31.8797 15.768 31.8193 15.8252C31.759 15.8823 31.6881 15.9267 31.6104 15.9561L29.4131 16.835C28.6681 17.133 27.8368 17.1329 27.0918 16.835L25.8242 16.3271C25.3773 16.1484 24.8785 16.1485 24.4316 16.3271L23.1631 16.835C22.4181 17.133 21.5868 17.1329 20.8418 16.835L19.5742 16.3271C19.1273 16.1484 18.6285 16.1485 18.1816 16.3271L16.9131 16.835C16.1681 17.133 15.3368 17.1329 14.5918 16.835L12.3955 15.9561C12.2418 15.8944 12.1189 15.7744 12.0537 15.6221C11.9885 15.4697 11.9862 15.2974 12.0479 15.1436C12.1096 14.9899 12.2297 14.8669 12.3818 14.8018C12.5342 14.7366 12.7066 14.7343 12.8604 14.7959L15.0566 15.6748C15.5036 15.8536 16.0023 15.8536 16.4492 15.6748L17.7168 15.168C18.4618 14.87 19.2931 14.87 20.0381 15.168L21.3066 15.6748C21.7536 15.8536 22.2523 15.8536 22.6992 15.6748L23.9668 15.168C24.7118 14.87 25.5431 14.87 26.2881 15.168L27.5566 15.6748C28.0036 15.8536 28.5023 15.8536 28.9492 15.6748L31.1455 14.7959C31.2219 14.7635 31.3047 14.7464 31.3877 14.7461Z" fill="#F9F3EA"/>
</g>
</g>
<defs>
<filter id="filter0_d_15414_121536" x="0" y="0" width="44" height="44" filterUnits="userSpaceOnUse" color-interpolation-filters="sRGB">
<feFlood flood-opacity="0" result="BackgroundImageFix"/>
<feColorMatrix in="SourceAlpha" type="matrix" values="0 0 0 0 0 0 0 0 0 0 0 0 0 0 0 0 0 0 127 0" result="hardAlpha"/>
<feOffset dy="1"/>
<feGaussianBlur stdDeviation="1"/>
<feColorMatrix type="matrix" values="0 0 0 0 0 0 0 0 0 0 0 0 0 0 0 0 0 0 0.3 0"/>
<feBlend mode="normal" in2="BackgroundImageFix" result="effect1_dropShadow_15414_121536"/>
<feBlend mode="normal" in="SourceGraphic" in2="effect1_dropShadow_15414_121536" result="shape"/>
</filter>
<clipPath id="clip0_15414_121536">
<rect width="20" height="20" fill="white" transform="translate(12 11)"/>
</clipPath>
</defs>
</svg>
