<?xml version="1.0" encoding="UTF-8"?>
<svg width="40" height="40" version="1.1" viewBox="0 0 40 40" xmlns="http://www.w3.org/2000/svg">
 <rect width="40" height="40" rx="20" ry="20" fill="#fc7753"/>
 <path d="m21.877 10.001c.4972 0 .9745.1982 1.3261.5498.3515.3515.5488.8281.5489 1.3252v1.25h4.375c.1657 0 .3251.0664.4423.1836.1171.1171.1826.2758.1827.4414 0 .1657-.0655.3251-.1827.4424-.1172.1172-.2766.1826-.4423.1826h-.6719l-1.0664 13.325c-.0503.6265-.335 1.2114-.7969 1.6377-.4618.426-1.067.6621-1.6953.6621h-7.7881c-.6283 1e-4-1.2335-.2361-1.6953-.6621-.4619-.4263-.7466-1.0112-.7969-1.6377l-1.0664-13.325h-.6728c-.1656-1e-4-.3243-.0656-.4415-.1826-.1172-.1173-.1835-.2767-.1835-.4424 1e-4-.1656.0664-.3243.1835-.4414.1172-.1171.2758-.1835.4415-.1836h4.375v-1.25c1e-4-.4972.1982-.9737.5498-1.3252.3515-.3516.828-.5497 1.3252-.5498zm-5.6641 5.6133c-.0828.0049-.1639.0259-.2383.0625-.0746.0367-.1418.0886-.1963.1513-.0543.0626-.0961.1352-.1221.2139-.0259.079-.0359.1632-.0292.2461l.625 10.625c.0033.0828.0234.1642.0585.2392.0353.0753.0859.1425.1475.1983.0617.0557.1335.0994.2119.1269.0783.0275.1614.0392.2442.0342.0829-.005.1647-.0267.2392-.0635.0744-.0366.1409-.0878.1953-.1503.0545-.0628.0961-.136.1221-.2149.0259-.0789.0359-.1623.0293-.2451l-.625-10.625c-.0033-.0831-.0234-.165-.0586-.2402s-.085-.1426-.1465-.1983c-.0616-.0557-.1344-.0984-.2129-.126-.0783-.0275-.1612-.0391-.2441-.0341zm3.7891.0117c-.1657 1e-4-.3243.0665-.4415.1836-.1171.1171-.1834.2758-.1835.4414v10.625c0 .1657.0663.3251.1835.4424.1172.117.2759.1825.4415.1826.1657 0 .3251-.0654.4423-.1826.1172-.1173.1827-.2767.1827-.4424v-10.625c-1e-4-.1656-.0656-.3243-.1827-.4414-.1172-.1172-.2766-.1836-.4423-.1836zm3.788.0019c-.1654-.0095-.3283.0471-.4521.1573-.1235.11-.1983.2645-.208.4296l-.625 10.625c-.0054.163.0531.322.1631.4424.1098.1203.2622.1926.4248.2022.1626.0094.3232-.0446.4463-.1514.123-.1067.1992-.2576.2129-.4199l.625-10.625c.0095-.1653-.0463-.3284-.1563-.4522-.1101-.1237-.2653-.1983-.4307-.208zm-5.663-4.3769c-.1657 1e-4-.3243.0665-.4415.1836-.1171.1171-.1834.2758-.1835.4414v1.25h5v-1.25c-1e-4-.1656-.0656-.3243-.1827-.4414-.1172-.1172-.2766-.1836-.4423-.1836z" fill="#281414"/>
</svg>
