<?xml version="1.0" encoding="UTF-8"?>
<svg width="16" height="16" fill="none" version="1.1" viewBox="0 0 16 16" xmlns="http://www.w3.org/2000/svg">
 <path d="m8.0004 1.5c.08196 0 .16291.020508.23526.059028l7.5004 4c.079829.042658.14623.10644.19272.18403.046581.077653.0712.1664.0712.25694 0 .09056-.02462.17927-.0712.25694-.04649.077618-.1129.14135-.19272.18403l-2.922 1.559 2.9212 1.559c.07974.04267.14614.10644.19272.18403.04649.07766.07111.1664.07111.25694 0 .09054-.02462.17929-.07111.25694-.04658.07759-.11298.14137-.19272.18404l-7.5004 4c-.072315.03849-.15332.05903-.23526.05903-.08196 0-.16291-.02054-.23525-.05903l-7.5004-4c-.079804-.042667-.14618-.10642-.19272-.18404-.046565-.077671-.071185-.16638-.071185-.25694 8.8108e-6-.09054.024628-.17929.071185-.25694.046541-.0776.11292-.14137.19272-.18403l2.9246-1.559-2.9238-1.559c-.079763-.042676-.1462-.10644-.19272-.18403-.046548-.077662-.071185-.1664-.071185-.25694 8.7223e-6-.090542.024627-.17929.071185-.25694.046522-.077591.11295-.14136.19272-.18403l7.5004-4c.072333-.038513.15332-.05902.23526-.059028zm.23526 8.941c-.072351.03849-.1533.05903-.23526.05903-.081942 0-.16292-.02053-.23526-.05903l-3.515-1.8741-2.6885 1.4332 6.4387 3.4332 6.4388-3.4332-2.6885-1.4332zm-6.674-4.441 6.4387 3.4332 6.4388-3.4332-6.4388-3.4332z" fill="#f9f3ea"/>
</svg>
