<?xml version="1.0" encoding="UTF-8"?>
<svg width="60" height="60" version="1.1" viewBox="0 0 60 60" xmlns="http://www.w3.org/2000/svg">
 <path d="m0 12c0-6.6274 5.3726-12 12-12h36c6.6274 0 12 5.3726 12 12v36c0 6.6274-5.3726 12-12 12h-36c-6.6274 0-12-5.3726-12-12z" fill="#fc7753"/>
 <path d="m33.375 12c.8952 0 1.7538.3554 2.3868.9882.6328.633.9882 1.4916.9882 2.3868v2.25h7.875c.2984 0 .584.119.795.33s.33.4966.33.795-.119.584-.33.795c-.211.2108-.4966.33-.795.33h-1.211l-1.9178 23.984c-.0906 1.1276-.6042 2.18-1.4356 2.9472s-1.9216 1.1936-3.0528 1.1934h-14.016c-1.1312 2e-4-2.2214-.4262-3.0528-1.1934s-1.345-1.8196-1.4354-2.9472l-1.918-23.984h-1.211c-.2984 0-.584-.1192-.795-.33-.2108-.211-.33-.4966-.33-.795s.1192-.584.33-.795c.211-.211.4966-.33.795-.33h7.875v-2.25c0-.8952.3554-1.7538.9882-2.3868.633-.6328 1.4918-.9882 2.3868-.9882zm-10.195 10.102c-.1494.009-.2956.0492-.4298.1152-.1342.0662-.2554.1586-.3536.2714-.0976.1126-.172.2434-.2186.3848-.0468.142-.0646.2926-.0528.4414l1.125 19.125c.006.1492.0422.2964.1054.4316.0634.1354.153.2572.2638.3576.111.1002.2416.1788.3828.2284.141.0494.2904.0696.4394.0606.1494-.009.2956-.0472.4298-.1134.134-.066.2534-.1586.3514-.2714.0982-.113.174-.2446.2208-.3868.0466-.1418.0646-.2924.0528-.4414l-1.125-19.125c-.0062-.1492-.0422-.2962-.1056-.4316-.0634-.1352-.1528-.2572-.2636-.3574-.111-.1004-.2418-.177-.3828-.2266-.141-.0494-.2904-.0712-.4394-.0624zm6.8202.0234c-.2984 0-.584.119-.795.33-.2108.211-.33.4966-.33.795v19.125c0 .2984.1192.584.33.795.211.2108.4966.33.795.33s.584-.1192.795-.33c.211-.211.33-.4966.33-.795v-19.125c0-.2984-.119-.584-.33-.795s-.4966-.33-.795-.33zm6.8184.002c-.2978-.0172-.5918.0848-.8144.2832-.2226.1982-.3576.4778-.375.7754l-1.125 19.125c-.0096.293.0972.5784.2948.7948.1978.2166.473.3482.7656.3654.2928.0166.5814-.0814.8028-.2736.2216-.1922.3584-.4654.3828-.7578l1.125-19.125c.017-.2974-.085-.5898-.2832-.8124-.198-.2224-.4762-.3574-.7734-.375zm-10.193-7.877c-.2984 0-.584.119-.795.33-.2108.211-.33.4966-.33.795v2.25h9v-2.25c0-.2984-.119-.584-.33-.795s-.4966-.33-.795-.33z" fill="#281414"/>
</svg>
