<svg width="44" height="44" viewBox="0 0 44 44" fill="none" xmlns="http://www.w3.org/2000/svg">
<g filter="url(#filter0_d_15414_121537)">
<rect x="2" y="1" width="40" height="40" rx="20" fill="#FC7753"/>
<g clip-path="url(#clip0_15414_121537)">
<path d="M23.877 11.001C24.3742 11.001 24.8515 11.1992 25.2031 11.5508C25.5546 11.9023 25.7519 12.3789 25.752 12.876V14.126H30.127C30.2927 14.126 30.4521 14.1924 30.5693 14.3096C30.6864 14.4267 30.7519 14.5854 30.752 14.751C30.752 14.9167 30.6865 15.0761 30.5693 15.1934C30.4521 15.3106 30.2927 15.376 30.127 15.376H29.4551L28.3887 28.7012C28.3384 29.3277 28.0537 29.9126 27.5918 30.3389C27.13 30.7649 26.5248 31.001 25.8965 31.001H18.1084C17.4801 31.0011 16.8749 30.7649 16.4131 30.3389C15.9512 29.9126 15.6665 29.3277 15.6162 28.7012L14.5498 15.376H13.877C13.7114 15.3759 13.5527 15.3104 13.4355 15.1934C13.3183 15.0761 13.252 14.9167 13.252 14.751C13.2521 14.5854 13.3184 14.4267 13.4355 14.3096C13.5527 14.1925 13.7113 14.1261 13.877 14.126H18.252V12.876C18.2521 12.3788 18.4502 11.9023 18.8018 11.5508C19.1533 11.1992 19.6298 11.0011 20.127 11.001H23.877ZM18.2129 16.6143C18.1301 16.6192 18.049 16.6402 17.9746 16.6768C17.9 16.7135 17.8328 16.7654 17.7783 16.8281C17.724 16.8907 17.6822 16.9633 17.6562 17.042C17.6303 17.121 17.6203 17.2052 17.627 17.2881L18.252 27.9131C18.2553 27.9959 18.2754 28.0773 18.3105 28.1523C18.3458 28.2276 18.3964 28.2948 18.458 28.3506C18.5197 28.4063 18.5915 28.45 18.6699 28.4775C18.7482 28.505 18.8313 28.5167 18.9141 28.5117C18.997 28.5067 19.0788 28.485 19.1533 28.4482C19.2277 28.4116 19.2942 28.3604 19.3486 28.2979C19.4031 28.2351 19.4447 28.1619 19.4707 28.083C19.4966 28.0041 19.5066 27.9207 19.5 27.8379L18.875 17.2129C18.8717 17.1298 18.8516 17.0479 18.8164 16.9727C18.7812 16.8975 18.7314 16.8301 18.6699 16.7744C18.6083 16.7187 18.5355 16.676 18.457 16.6484C18.3787 16.6209 18.2958 16.6093 18.2129 16.6143ZM22.002 16.626C21.8363 16.6261 21.6777 16.6925 21.5605 16.8096C21.4434 16.9267 21.3771 17.0854 21.377 17.251V27.876C21.377 28.0417 21.4433 28.2011 21.5605 28.3184C21.6777 28.4354 21.8364 28.5009 22.002 28.501C22.1677 28.501 22.3271 28.4356 22.4443 28.3184C22.5615 28.2011 22.627 28.0417 22.627 27.876V17.251C22.6269 17.0854 22.5614 16.9267 22.4443 16.8096C22.3271 16.6924 22.1677 16.626 22.002 16.626ZM25.79 16.6279C25.6246 16.6184 25.4617 16.675 25.3379 16.7852C25.2144 16.8952 25.1396 17.0497 25.1299 17.2148L24.5049 27.8398C24.4995 28.0028 24.558 28.1618 24.668 28.2822C24.7778 28.4025 24.9302 28.4748 25.0928 28.4844C25.2554 28.4938 25.416 28.4398 25.5391 28.333C25.6621 28.2263 25.7383 28.0754 25.752 27.9131L26.377 17.2881C26.3865 17.1228 26.3307 16.9597 26.2207 16.8359C26.1106 16.7122 25.9554 16.6376 25.79 16.6279ZM20.127 12.251C19.9613 12.2511 19.8027 12.3175 19.6855 12.4346C19.5684 12.5517 19.5021 12.7104 19.502 12.876V14.126H24.502V12.876C24.5019 12.7104 24.4364 12.5517 24.3193 12.4346C24.2021 12.3174 24.0427 12.251 23.877 12.251H20.127Z" fill="#281414"/>
</g>
</g>
<defs>
<filter id="filter0_d_15414_121537" x="0" y="0" width="44" height="44" filterUnits="userSpaceOnUse" color-interpolation-filters="sRGB">
<feFlood flood-opacity="0" result="BackgroundImageFix"/>
<feColorMatrix in="SourceAlpha" type="matrix" values="0 0 0 0 0 0 0 0 0 0 0 0 0 0 0 0 0 0 127 0" result="hardAlpha"/>
<feOffset dy="1"/>
<feGaussianBlur stdDeviation="1"/>
<feColorMatrix type="matrix" values="0 0 0 0 0 0 0 0 0 0 0 0 0 0 0 0 0 0 0.3 0"/>
<feBlend mode="normal" in2="BackgroundImageFix" result="effect1_dropShadow_15414_121537"/>
<feBlend mode="normal" in="SourceGraphic" in2="effect1_dropShadow_15414_121537" result="shape"/>
</filter>
<clipPath id="clip0_15414_121537">
<rect width="20" height="20" fill="white" transform="translate(12 11)"/>
</clipPath>
</defs>
</svg>
