<svg width="44" height="44" viewBox="0 0 44 44" fill="none" xmlns="http://www.w3.org/2000/svg">
<g filter="url(#filter0_d_15414_121538)">
<rect x="2" y="1" width="40" height="40" rx="20" fill="#FFB300"/>
<g clip-path="url(#clip0_15414_121538)">
<path d="M15.752 19.126C16.2492 19.126 16.7265 19.3242 17.0781 19.6758C17.4296 20.0273 17.6268 20.5039 17.627 21.001C17.627 21.4983 17.4298 21.9755 17.0781 22.3271C16.7265 22.6788 16.2492 22.876 15.752 22.876C15.2549 22.8759 14.7783 22.6786 14.4268 22.3271C14.0751 21.9755 13.877 21.4983 13.877 21.001C13.8771 20.5038 14.0752 20.0273 14.4268 19.6758C14.7783 19.3242 15.2548 19.1261 15.752 19.126ZM22.002 19.126C22.4992 19.126 22.9765 19.3242 23.3281 19.6758C23.6796 20.0273 23.8769 20.5039 23.877 21.001C23.877 21.4983 23.6798 21.9755 23.3281 22.3271C22.9765 22.6788 22.4992 22.876 22.002 22.876C21.5049 22.8759 21.0283 22.6786 20.6768 22.3271C20.3251 21.9755 20.127 21.4983 20.127 21.001C20.1271 20.5038 20.3252 20.0273 20.6768 19.6758C21.0283 19.3242 21.5048 19.1261 22.002 19.126ZM28.252 19.126C28.7492 19.126 29.2265 19.3242 29.5781 19.6758C29.9296 20.0273 30.1269 20.5039 30.127 21.001C30.127 21.4983 29.9298 21.9755 29.5781 22.3271C29.2265 22.6788 28.7492 22.876 28.252 22.876C27.7549 22.8759 27.2783 22.6786 26.9268 22.3271C26.5751 21.9755 26.377 21.4983 26.377 21.001C26.3771 20.5038 26.5752 20.0273 26.9268 19.6758C27.2783 19.3242 27.7548 19.1261 28.252 19.126Z" fill="#281414"/>
</g>
</g>
<defs>
<filter id="filter0_d_15414_121538" x="0" y="0" width="44" height="44" filterUnits="userSpaceOnUse" color-interpolation-filters="sRGB">
<feFlood flood-opacity="0" result="BackgroundImageFix"/>
<feColorMatrix in="SourceAlpha" type="matrix" values="0 0 0 0 0 0 0 0 0 0 0 0 0 0 0 0 0 0 127 0" result="hardAlpha"/>
<feOffset dy="1"/>
<feGaussianBlur stdDeviation="1"/>
<feColorMatrix type="matrix" values="0 0 0 0 0 0 0 0 0 0 0 0 0 0 0 0 0 0 0.3 0"/>
<feBlend mode="normal" in2="BackgroundImageFix" result="effect1_dropShadow_15414_121538"/>
<feBlend mode="normal" in="SourceGraphic" in2="effect1_dropShadow_15414_121538" result="shape"/>
</filter>
<clipPath id="clip0_15414_121538">
<rect width="20" height="20" fill="white" transform="translate(12 11)"/>
</clipPath>
</defs>
</svg>
