<?xml version="1.0" encoding="UTF-8"?>
<svg width="60" height="60" version="1.1" viewBox="0 0 60 60" xmlns="http://www.w3.org/2000/svg">
 <path d="m0 12c0-6.6274 5.3726-12 12-12h36c6.6274 0 12 5.3726 12 12v36c0 6.6274-5.3726 12-12 12h-36c-6.6274 0-12-5.3726-12-12z" fill="#b83d13"/>
 <path d="m46.871 38.04c.14964-.000654.29945.02878.43764.08619.13754.0574.26249.14146.36732.24761.105.10647.18857.23321.24434.37206.0556.13885.08226.28816.07981.43764-.0026.14915-.03418.29634-.0942.43274-.06018.13689-.14703.26134-.25562.36421s-.23698.18366-.37681.23632l-3.9545 1.5797c-1.3402.53594-2.8347.53594-4.1748 0l-2.2808-.91208c-.80382-.32153-1.7002-.32136-2.5042 0l-2.2839.91208c-1.3402.53594-2.8347.53594-4.1748 0l-2.2808-.91208c-.80382-.32153-1.7002-.32136-2.5042 0l-2.2839.91208c-1.3402.53594-2.8347.53594-4.1748 0l-3.9514-1.5797c-.27655-.11088-.4975-.32807-.61476-.60201-.11726-.2741-.12053-.58418-.0096-.8609.11105-.27639.32676-.49783.60053-.61493.2741-.11726.58418-.12037.8609-.0095l3.9512 1.5811c.80382.3212 1.7005.32136 2.5042 0l2.2808-.91356c1.3399-.53593 2.8347-.53593 4.1748 0l2.2839.91356c.80382.3212 1.7005.32136 2.5042 0l2.2808-.91356c1.3399-.53593 2.8347-.53593 4.1748 0l2.2839.91356c.80382.3212 1.7005.32136 2.5042 0l3.9512-1.5811c.13754-.05855.28522-.0888.43454-.08946zm0-6.7462c.14964-.000654.29945.02878.43764.08619.13754.0574.26249.14147.36732.24761.105.10647.18857.23321.24434.37206.0556.13885.08226.28816.07981.43764-.0026.14915-.03418.29634-.0942.43274-.06018.13689-.14703.26134-.25562.36421s-.23698.18366-.37681.23632l-3.9545 1.5797c-1.3402.53593-2.8347.53593-4.1748 0l-2.2808-.91209c-.80382-.32153-1.7002-.32136-2.5042 0l-2.2839.91209c-1.3402.53593-2.8347.53593-4.1748 0l-2.2808-.91209c-.80382-.32153-1.7002-.32136-2.5042 0l-2.2839.91209c-1.3402.53593-2.8347.53593-4.1748 0l-3.9514-1.5797c-.27655-.11088-.4975-.32807-.61476-.60201-.11726-.2741-.12053-.58418-.0096-.8609.11105-.27639.32676-.49783.60053-.61493.2741-.11726.58418-.12037.8609-.0095l3.9512 1.5811c.80382.3212 1.7005.32136 2.5042 0l2.2808-.91356c1.3399-.53593 2.8347-.53593 4.1748 0l2.2839.91356c.80382.3212 1.7005.32136 2.5042 0l2.2808-.91356c1.3399-.53593 2.8347-.53593 4.1748 0l2.2839.91356c.80382.3212 1.7005.32136 2.5042 0l3.9512-1.5811c.13754-.05855.28522-.0888.43454-.08946zm0-6.7462c.14964-.000654.29945.02878.43764.08619.13754.0574.26249.14147.36732.24761.105.10647.18857.23321.24434.37206.0556.13885.08226.28816.07981.43764-.0026.14915-.03418.29634-.0942.43274-.06018.13689-.14703.26134-.25562.36421s-.23698.18366-.37681.23632l-3.9545 1.5797c-1.3402.53593-2.8347.53593-4.1748 0l-2.2808-.91209c-.80382-.32153-1.7002-.32136-2.5042 0l-2.2839.91209c-1.3402.53593-2.8347.53593-4.1748 0l-2.2808-.91209c-.80382-.32153-1.7002-.32136-2.5042 0l-2.2839.91209c-1.3402.53593-2.8347.53593-4.1748 0l-3.9514-1.5797c-.27655-.11088-.4975-.32807-.61476-.60201-.11726-.2741-.12053-.58418-.0096-.8609.11105-.27639.32676-.49783.60053-.61493.2741-.11726.58418-.12037.8609-.0095l3.9512 1.5811c.80382.3212 1.7005.32136 2.5042 0l2.2808-.91356c1.3399-.53593 2.8347-.53593 4.1748 0l2.2839.91356c.80382.3212 1.7005.32136 2.5042 0l2.2808-.91356c1.3399-.53593 2.8347-.53593 4.1748 0l2.2839.91356c.80382.3212 1.7005.32136 2.5042 0l3.9512-1.5811c.13754-.05855.28522-.08881.43454-.08946zm0-6.7462c.14964-.000654.29945.02878.43764.08619.13754.0574.26249.14147.36732.24761.105.10647.18857.23321.24434.37206.0556.13885.08226.28816.07981.43764-.0026.14915-.03418.29634-.0942.43274-.06018.13689-.14703.26134-.25562.36421s-.23698.18366-.37681.23632l-3.9545 1.5797c-1.3402.53593-2.8347.53593-4.1748 0l-2.2808-.91209c-.80382-.32153-1.7002-.32136-2.5042 0l-2.2839.91209c-1.3402.53593-2.8347.53593-4.1748 0l-2.2808-.91209c-.80382-.32153-1.7002-.32136-2.5042 0l-2.2839.91209c-1.3402.53593-2.8347.53593-4.1748 0l-3.9514-1.5797c-.27655-.11088-.4975-.32807-.61476-.60201-.11726-.2741-.12053-.58418-.0096-.8609.11105-.27639.32676-.49783.60053-.61493.2741-.11726.58418-.12037.8609-.0095l3.9512 1.5811c.80382.3212 1.7005.32136 2.5042 0l2.2808-.91356c1.3399-.53594 2.8347-.53594 4.1748 0l2.2839.91356c.80382.3212 1.7005.32136 2.5042 0l2.2808-.91356c1.3399-.53594 2.8347-.53594 4.1748 0l2.2839.91356c.80382.3212 1.7005.32136 2.5042 0l3.9512-1.5811c.13754-.05855.28522-.0888.43454-.08946z" fill="#f9f3ea"/>
</svg>
