<?xml version="1.0" encoding="UTF-8"?>
<svg width="40" height="40" version="1.1" viewBox="0 0 40 40" xmlns="http://www.w3.org/2000/svg">
 <path d="m0 20c0-11.046 8.9543-20 20-20s20 8.9543 20 20c0 11.046-8.9543 20-20 20s-20-8.9543-20-20z" fill="#b83d13"/>
 <path d="m29.388 24.996c.083-3e-4.1655.016.2422.0478.0768.032.1466.0796.2051.1387.0582.059.1038.1292.1347.2061.031.0771.0463.16.0449.2431-.0013.0831-.0192.1652-.0527.2412-.0335.0762-.0822.145-.1426.2022-.0603.0571-.1312.1015-.2089.1309l-2.1973.8789c-.745.298-1.5763.2979-2.3213 0l-1.2676-.5079c-.4469-.1787-.9457-.1786-1.3926 0l-1.2685.5079c-.745.298-1.5763.2979-2.3213 0l-1.2676-.5079c-.4469-.1787-.9457-.1786-1.3926 0l-1.2685.5079c-.745.298-1.5763.2979-2.3213 0l-2.1963-.8789c-.1537-.0617-.2766-.1817-.3418-.334-.0652-.1524-.0675-.3247-.0058-.4785.0617-.1537.1818-.2767.3339-.3418.1524-.0652.3248-.0675.4786-.0059l2.1962.8789c.447.1788.9457.1788 1.3926 0l1.2676-.5068c.745-.298 1.5763-.298 2.3213 0l1.2685.5068c.447.1788.9457.1788 1.3926 0l1.2676-.5068c.745-.298 1.5763-.298 2.3213 0l1.2685.5068c.447.1788.9457.1788 1.3926 0l2.1963-.8789c.0764-.0324.1592-.0495.2422-.0498zm0-3.75c.083-3e-4.1655.016.2422.0478.0768.032.1466.0796.2051.1387.0582.059.1038.1292.1347.2061.031.0771.0463.16.0449.2431-.0013.0831-.0192.1652-.0527.2412-.0335.0762-.0822.145-.1426.2022-.0603.0571-.1312.1015-.2089.1309l-2.1973.8789c-.745.298-1.5763.2979-2.3213 0l-1.2676-.5079c-.4469-.1787-.9457-.1786-1.3926 0l-1.2685.5079c-.745.298-1.5763.2979-2.3213 0l-1.2676-.5079c-.4469-.1787-.9457-.1786-1.3926 0l-1.2685.5079c-.745.298-1.5763.2979-2.3213 0l-2.1963-.8789c-.1537-.0617-.2766-.1817-.3418-.334-.0652-.1524-.0675-.3247-.0058-.4785.0617-.1537.1818-.2767.3339-.3418.1524-.0652.3248-.0675.4786-.0059l2.1962.8789c.447.1788.9457.1788 1.3926 0l1.2676-.5068c.745-.298 1.5763-.298 2.3213 0l1.2685.5068c.447.1788.9457.1788 1.3926 0l1.2676-.5068c.745-.298 1.5763-.298 2.3213 0l1.2685.5068c.447.1788.9457.1788 1.3926 0l2.1963-.8789c.0764-.0324.1592-.0495.2422-.0498zm0-3.75c.083-3e-4.1655.016.2422.0478.0768.032.1466.0796.2051.1387.0582.059.1038.1292.1347.2061.031.0771.0463.16.0449.2431-.0013.0831-.0192.1652-.0527.2412-.0335.0762-.0822.145-.1426.2022-.0603.0571-.1312.1015-.2089.1309l-2.1973.8789c-.745.298-1.5763.2979-2.3213 0l-1.2676-.5079c-.4469-.1787-.9457-.1786-1.3926 0l-1.2685.5079c-.745.298-1.5763.2979-2.3213 0l-1.2676-.5079c-.4469-.1787-.9457-.1786-1.3926 0l-1.2685.5079c-.745.298-1.5763.2979-2.3213 0l-2.1963-.8789c-.1537-.0617-.2766-.1817-.3418-.334-.0652-.1524-.0675-.3247-.0058-.4785.0617-.1537.1818-.2767.3339-.3418.1524-.0652.3248-.0675.4786-.0059l2.1962.8789c.447.1788.9457.1788 1.3926 0l1.2676-.5068c.745-.298 1.5763-.298 2.3213 0l1.2685.5068c.447.1788.9457.1788 1.3926 0l1.2676-.5068c.745-.298 1.5763-.298 2.3213 0l1.2685.5068c.447.1788.9457.1788 1.3926 0l2.1963-.8789c.0764-.0324.1592-.0495.2422-.0498zm0-3.75c.083-3e-4.1655.016.2422.0478.0768.032.1466.0796.2051.1387.0582.059.1038.1292.1347.2061.031.0771.0463.16.0449.2431-.0013.0831-.0192.1652-.0527.2412-.0335.0762-.0822.145-.1426.2022-.0603.0571-.1312.1015-.2089.1309l-2.1973.8789c-.745.298-1.5763.2979-2.3213 0l-1.2676-.5079c-.4469-.1787-.9457-.1786-1.3926 0l-1.2685.5079c-.745.298-1.5763.2979-2.3213 0l-1.2676-.5079c-.4469-.1787-.9457-.1786-1.3926 0l-1.2685.5079c-.745.298-1.5763.2979-2.3213 0l-2.1963-.8789c-.1537-.0617-.2766-.1817-.3418-.334-.0652-.1524-.0675-.3247-.0058-.4785.0617-.1537.1818-.2767.3339-.3418.1524-.0652.3248-.0675.4786-.0059l2.1962.8789c.447.1788.9457.1788 1.3926 0l1.2676-.5068c.745-.298 1.5763-.298 2.3213 0l1.2685.5068c.447.1788.9457.1788 1.3926 0l1.2676-.5068c.745-.298 1.5763-.298 2.3213 0l1.2685.5068c.447.1788.9457.1788 1.3926 0l2.1963-.8789c.0764-.0324.1592-.0495.2422-.0498z" fill="#f9f3ea"/>
</svg>
