<svg width="16" height="16" viewBox="0 0 16 16" fill="none" xmlns="http://www.w3.org/2000/svg">
<path d="M8.23733 1.55964C8.16499 1.52112 8.08429 1.50098 8.00233 1.50098C7.92037 1.50098 7.83967 1.52112 7.76733 1.55964L0.267328 5.55964C0.187456 5.60232 0.120673 5.66589 0.0741103 5.74356C0.0275475 5.82123 0.00295313 5.91008 0.00295313 6.00064C0.00295313 6.0912 0.0275475 6.18006 0.0741103 6.25773C0.120673 6.3354 0.187456 6.39897 0.267328 6.44164L3.19033 8.00064L0.266328 9.55964C0.186456 9.60232 0.119673 9.66589 0.0731103 9.74356C0.0265475 9.82123 0.00195313 9.91009 0.00195312 10.0006C0.00195312 10.0912 0.0265475 10.1801 0.0731103 10.2577C0.119673 10.3354 0.186456 10.399 0.266328 10.4416L7.76633 14.4416C7.83867 14.4802 7.91937 14.5003 8.00133 14.5003C8.08329 14.5003 8.16399 14.4802 8.23633 14.4416L15.7363 10.4416C15.8162 10.399 15.883 10.3354 15.9295 10.2577C15.9761 10.1801 16.0007 10.0912 16.0007 10.0006C16.0007 9.91009 15.9761 9.82123 15.9295 9.74356C15.883 9.66589 15.8162 9.60232 15.7363 9.55964L12.8153 8.00064L15.7373 6.44164C15.8172 6.39897 15.884 6.3354 15.9305 6.25773C15.9771 6.18006 16.0017 6.0912 16.0017 6.00064C16.0017 5.91008 15.9771 5.82123 15.9305 5.74356C15.884 5.66589 15.8172 5.60232 15.7373 5.55964L8.23733 1.55964ZM11.7523 8.56764L14.4403 10.0006L8.00233 13.4336L1.56433 10.0006L4.25233 8.56764L7.76733 10.4416C7.83967 10.4802 7.92037 10.5003 8.00233 10.5003C8.08429 10.5003 8.16499 10.4802 8.23733 10.4416L11.7523 8.56764ZM8.00233 9.43364L1.56433 6.00064L8.00233 2.56764L14.4403 6.00064L8.00233 9.43364Z" fill="#281414"/>
</svg>
