<?xml version="1.0" encoding="UTF-8"?>
<svg width="60" height="60" version="1.1" viewBox="0 0 60 60" xmlns="http://www.w3.org/2000/svg">
 <path d="m0 12c0-6.6274 5.3726-12 12-12h36c6.6274 0 12 5.3726 12 12v36c0 6.6274-5.3726 12-12 12h-36c-6.6274 0-12-5.3726-12-12z" fill="#ffb300"/>
 <path d="m16.155 25.846c1.1017 0 2.1589.43909 2.9381 1.218.77849.77871 1.2156 1.8346 1.2158 2.9358 0 1.1017-.43688 2.1589-1.2158 2.9381-.77916.77894-1.8363 1.2158-2.9381 1.2158-1.1013-.000221-2.1571-.4371-2.9358-1.2158-.77894-.77916-1.218-1.8363-1.218-2.9381.000222-1.1013.43931-2.1571 1.218-2.9358s1.8346-1.2178 2.9358-1.218zm13.846 0c1.1017 0 2.1589.43909 2.9381 1.218.77849.77871 1.2156 1.8346 1.2158 2.9358 0 1.1017-.43688 2.1589-1.2158 2.9381-.77916.77894-1.8363 1.2158-2.9381 1.2158-1.1013-.000221-2.1571-.4371-2.9358-1.2158-.77894-.77916-1.218-1.8363-1.218-2.9381.000222-1.1013.43931-2.1571 1.218-2.9358s1.8346-1.2178 2.9358-1.218zm13.846 0c1.1017 0 2.1589.43909 2.9381 1.218.77849.77871 1.2156 1.8346 1.2158 2.9358 0 1.1017-.43688 2.1589-1.2158 2.9381-.77916.77894-1.8363 1.2158-2.9381 1.2158-1.1013-.000221-2.1571-.4371-2.9358-1.2158-.77894-.77916-1.218-1.8363-1.218-2.9381.000222-1.1013.43931-2.1571 1.218-2.9358s1.8346-1.2178 2.9358-1.218z" fill="#281414"/>
</svg>
