<?xml version="1.0" encoding="UTF-8"?>
<svg width="40" height="40" version="1.1" viewBox="0 0 40 40" xmlns="http://www.w3.org/2000/svg">
 <rect width="40" height="40" rx="20" ry="20" fill="#ffb300"/>
 <path d="m13.75 18.125c.4972 0 .9745.1982 1.3261.5498.3515.3515.5487.8281.5489 1.3252 0 .4973-.1972.9745-.5489 1.3261-.3516.3517-.8289.5489-1.3261.5489-.4971-1e-4-.9737-.1974-1.3252-.5489-.3517-.3516-.5498-.8288-.5498-1.3261 1e-4-.4972.1982-.9737.5498-1.3252.3515-.3516.828-.5497 1.3252-.5498zm6.25 0c.4972 0 .9745.1982 1.3261.5498.3515.3515.5488.8281.5489 1.3252 0 .4973-.1972.9745-.5489 1.3261-.3516.3517-.8289.5489-1.3261.5489-.4971-1e-4-.9737-.1974-1.3252-.5489-.3517-.3516-.5498-.8288-.5498-1.3261 1e-4-.4972.1982-.9737.5498-1.3252.3515-.3516.828-.5497 1.3252-.5498zm6.25 0c.4972 0 .9745.1982 1.3261.5498.3515.3515.5488.8281.5489 1.3252 0 .4973-.1972.9745-.5489 1.3261-.3516.3517-.8289.5489-1.3261.5489-.4971-1e-4-.9737-.1974-1.3252-.5489-.3517-.3516-.5498-.8288-.5498-1.3261 1e-4-.4972.1982-.9737.5498-1.3252.3515-.3516.828-.5497 1.3252-.5498z" fill="#281414"/>
</svg>
