<?xml version="1.0" encoding="UTF-8"?>
<svg width="40" height="40" version="1.1" viewBox="0 0 40 40" xmlns="http://www.w3.org/2000/svg">
 <circle cx="20" cy="20" r="20" fill="#235540" stroke-linecap="round" stroke-linejoin="round" stroke-width="3"/>
 <path d="m19.513 9.1831c.279-.244.69507-.244.97407 0l9.2574 8.0809h.000834c.16125.14133.25466.34583.25466.56158v10.43c-8.3e-5.41074-.33275.74457-.74216.74457h-18.516c-.40941-8.3e-5-.74207-.33383-.74224-.74457v-10.43c0-.2145.09217-.42024.25475-.56158zm.11633 8.3674c-1.2888-1.2032-3.1796-1.3546-4.3635.07975-1.9401 2.3512.56599 4.8311 2.3079 6.3118.76407.64849 1.5741 1.2394 2.3869 1.8237l.048.01542c1.0442-.73441 2.0806-1.4999 3.0224-2.3641 1.5346-1.4087 3.3509-3.506 1.8368-5.6159-1.2543-1.7477-3.4851-1.4586-4.7868.06183-.023.02825-.0545.06667-.0635.1025-.13183-.13608-.24866-.28533-.38816-.415z" fill="#f9f3ea"/>
</svg>
