<svg width="25" height="24" viewBox="0 0 25 24" fill="none" xmlns="http://www.w3.org/2000/svg">
<path d="M15.7075 21.9778C15.6181 21.7721 15.5282 21.5658 15.4382 21.3582C15.3547 21.1715 15.2706 20.9847 15.1865 20.798C15.1448 20.7046 15.103 20.6113 15.0613 20.5186C15.0183 20.4298 14.9641 20.3442 14.9068 20.2587C14.8494 20.1719 14.792 20.0857 14.7346 19.9995C14.6785 19.9113 14.6355 19.8154 14.5912 19.7272C14.5018 19.5477 14.4132 19.3694 14.3258 19.1932C14.2365 19.0182 14.1478 18.8452 14.0611 18.6747C14.0174 18.5899 13.9743 18.505 13.9313 18.4214C13.885 18.3307 13.8713 18.2249 13.8674 18.1243C13.8622 17.9213 13.8844 17.7287 13.8185 17.5909C13.7481 17.4408 13.6385 17.3049 13.5394 17.1633C13.439 17.0242 13.3549 16.8688 13.3203 16.7082C13.2825 16.5495 13.2669 16.3968 13.2297 16.2655C13.1625 16.0135 12.978 15.8196 12.8548 15.6172C12.8189 15.6916 12.7837 15.7647 12.7596 15.8372C12.6905 16.0213 12.7439 16.2179 12.7922 16.4261C12.8163 16.5306 12.8398 16.6377 12.8424 16.748C12.8359 16.8544 12.8293 16.9615 12.8228 17.0693C12.815 17.2841 12.7837 17.5021 12.8007 17.7222C12.8163 17.9422 12.832 18.1648 12.8483 18.3888C12.8561 18.6127 12.8639 18.838 12.8717 19.0645C12.8815 19.2689 12.8906 19.4739 12.9004 19.6783C12.905 19.7801 12.9095 19.8826 12.9141 19.9845C12.9213 20.0831 12.9402 20.1823 12.9624 20.2829C12.9839 20.3847 13.006 20.4866 13.0276 20.5878C13.0471 20.6903 13.0517 20.7954 13.0615 20.894C13.0791 21.0938 13.096 21.2922 13.113 21.4881C13.1319 21.684 13.1508 21.8772 13.1691 22.0679C13.1782 22.1632 13.188 22.2572 13.1971 22.3513C13.2069 22.4525 13.1808 22.5563 13.1475 22.6509C13.1104 22.7534 13.068 22.8501 13.0367 22.9415C13.0934 22.9199 13.1502 22.8984 13.2049 22.8808C13.351 22.8292 13.4899 22.8168 13.6438 22.8181L14.093 22.8129C14.2417 22.8135 14.389 22.8148 14.5364 22.8155C14.6779 22.8187 14.82 22.8527 14.9648 22.8886C15.1096 22.9252 15.2556 22.965 15.4062 22.9774C15.5582 22.9878 15.6977 22.9715 15.8425 22.9722C15.9435 22.9722 16.04 22.9715 16.1398 22.9709C16.0987 22.8396 16.0557 22.7091 15.9944 22.5837C15.8992 22.3846 15.8033 22.1835 15.7062 21.9811L15.7075 21.9778Z" fill="#F9F3EA" fill-opacity="0.6"/>
<path d="M7.58722 22.4209C7.64655 22.2081 7.70589 21.9939 7.76588 21.7771C7.83369 21.5636 7.9015 21.3488 7.96997 21.1327C8.02931 20.9368 8.0893 20.741 8.14863 20.5451C8.17863 20.4472 8.20862 20.3499 8.23796 20.252C8.26404 20.1566 8.27969 20.0567 8.29273 19.9549C8.30643 19.8517 8.32012 19.7486 8.33381 19.6461C8.34946 19.5429 8.38076 19.4423 8.40488 19.3464C8.45574 19.1518 8.50595 18.9599 8.55551 18.7692C8.60311 18.5786 8.65071 18.3899 8.697 18.2044C8.71982 18.1117 8.7433 18.0197 8.76547 17.9283C8.79024 17.8297 8.84958 17.7402 8.91218 17.6625C9.04128 17.5065 9.18473 17.3759 9.22581 17.2283C9.27145 17.069 9.27798 16.8941 9.29689 16.7223C9.31254 16.5513 9.35166 16.3789 9.43121 16.2353C9.50685 16.091 9.59552 15.9656 9.65421 15.8422C9.77157 15.6033 9.75658 15.329 9.79961 15.092C9.82113 15.0059 9.84004 14.9288 9.8596 14.8518C9.8446 14.8857 9.83026 14.921 9.81526 14.9569C9.78527 15.0294 9.75267 15.1025 9.70311 15.1645C9.64899 15.218 9.59357 15.2722 9.5388 15.3271C9.43251 15.4387 9.30732 15.5367 9.21734 15.6679C9.1267 15.7978 9.03476 15.9291 8.94217 16.0616C8.84371 16.1883 8.7446 16.3162 8.64484 16.4449C8.55681 16.5624 8.46813 16.6799 8.38011 16.7974C8.33577 16.8562 8.29208 16.9143 8.24774 16.9731C8.20731 17.0312 8.17537 17.0978 8.14537 17.167C8.11407 17.2368 8.08343 17.306 8.05278 17.3752C8.02018 17.4438 7.97453 17.5045 7.93541 17.5639C7.85521 17.6841 7.77566 17.8029 7.69741 17.9211C7.62047 18.0399 7.54418 18.1574 7.46985 18.273C7.43268 18.3311 7.39552 18.3886 7.359 18.4454C7.31923 18.5067 7.25076 18.5466 7.18165 18.5759C7.04015 18.6347 6.89083 18.668 6.82758 18.7581C6.75847 18.8547 6.72 18.9801 6.6724 19.0976C6.62675 19.2158 6.56155 19.3248 6.46505 19.396C6.37246 19.4685 6.27204 19.5227 6.19771 19.5873C6.051 19.7113 6.01383 19.9183 5.93167 20.0731C5.7504 20.3545 5.61804 20.5601 5.55153 20.6633C5.47393 20.7527 5.42568 20.8663 5.36439 20.9701C5.30766 21.0772 5.21181 21.1569 5.12509 21.2163C5.03771 21.279 4.95034 21.3338 4.86362 21.3795C4.81863 21.4011 4.77559 21.422 4.73451 21.4422C4.71104 21.4513 4.68822 21.4605 4.6654 21.469C4.63931 21.4755 4.61323 21.4814 4.58454 21.4833C4.35437 21.499 4.11572 21.4389 3.95401 21.4037C3.8875 21.3874 3.83143 21.3704 3.77992 21.3514C3.70102 21.3227 3.63451 21.2894 3.57713 21.2411C3.48584 21.1641 3.42455 21.0491 3.4415 20.9479C3.45128 20.8415 3.56279 20.7691 3.64755 20.6574C3.65603 20.6424 3.66516 20.6267 3.67428 20.6111C3.6808 20.5921 3.68798 20.5732 3.69515 20.5536C3.71145 20.5125 3.72906 20.4694 3.74666 20.425C3.78513 20.3375 3.83078 20.2474 3.88424 20.1553C3.94097 20.0613 3.99574 19.9777 4.03356 19.8596C4.07529 19.7459 4.11572 19.6147 4.2044 19.5116C4.27743 19.4169 4.42153 19.2295 4.61845 18.9736C4.70908 18.8456 4.76255 18.6438 4.94773 18.5139C5.03837 18.4506 5.15052 18.4062 5.24702 18.3494C5.34613 18.2952 5.41329 18.2175 5.47263 18.1137C5.53262 18.0131 5.58283 17.8937 5.6715 17.7957C5.76149 17.688 5.94341 17.6645 6.08751 17.6247C6.15989 17.6044 6.22444 17.5803 6.26748 17.5411C6.31181 17.4921 6.35681 17.4418 6.4018 17.3922C6.49243 17.291 6.58437 17.1885 6.67761 17.0841C6.77281 16.9815 6.86931 16.8784 6.96712 16.7733C7.01407 16.721 7.06167 16.6688 7.10927 16.6159C7.14904 16.5565 7.18947 16.4964 7.22924 16.4364C7.26837 16.3743 7.3101 16.3123 7.36031 16.2562C7.41377 16.2052 7.46724 16.1543 7.52071 16.1034C7.6283 16.0028 7.73654 15.9023 7.84413 15.8017C7.95889 15.6868 8.07365 15.5719 8.1871 15.4577C8.29078 15.3349 8.38206 15.2024 8.47465 15.0738C8.55812 14.9373 8.6794 14.8341 8.7759 14.7134C8.80263 14.6827 8.82872 14.652 8.8548 14.6213C8.76482 14.6761 8.67288 14.7401 8.56268 14.7767C8.43097 14.8263 8.26144 14.7571 8.11668 14.7205C8.04365 14.7023 7.97584 14.6918 7.91846 14.7049C7.85586 14.7258 7.79261 14.7473 7.72871 14.7688C7.60026 14.8126 7.46985 14.8563 7.33748 14.9014C7.20447 14.9438 7.06949 14.9863 6.93322 15.0294C6.86671 15.0516 6.79955 15.0738 6.73239 15.096C6.66848 15.1279 6.60393 15.1606 6.53938 15.1932C6.47483 15.2278 6.40767 15.2618 6.33659 15.2859C6.26487 15.3042 6.19379 15.3219 6.12207 15.3401C5.97862 15.3747 5.83517 15.4087 5.69172 15.4433C5.53523 15.487 5.37939 15.5308 5.2242 15.5739C5.07358 15.63 4.92882 15.6999 4.78472 15.7665C4.64453 15.8442 4.48869 15.8742 4.34524 15.9317C4.27286 15.9578 4.20049 15.9846 4.12876 16.01C4.06356 16.0407 4.00422 16.091 3.94619 16.1478C3.82947 16.2588 3.71993 16.3978 3.55692 16.4122C3.39912 16.4259 3.23089 16.3678 3.11092 16.4024C2.99224 16.439 2.89248 16.5487 2.78946 16.6414C2.73795 16.6884 2.68448 16.7321 2.62775 16.7654C2.57167 16.7942 2.5169 16.8229 2.46278 16.8503C2.24956 16.958 2.05395 17.0553 1.86746 17.103C1.68163 17.1533 1.52253 17.1996 1.36408 17.1859C1.20824 17.1676 1.07783 17.1121 0.976114 17.041C0.874395 16.9678 0.798106 16.8686 0.744638 16.7184C0.743334 16.7158 0.743986 16.7132 0.742682 16.7106C0.691822 16.5656 0.685302 16.4351 0.725729 16.3313C0.766155 16.2242 0.856138 16.1537 0.975463 16.089C1.09022 16.0211 1.23498 15.9323 1.41299 15.867C1.59099 15.8004 1.79183 15.7247 2.01157 15.6418C2.06634 15.6222 2.12306 15.6026 2.17979 15.5824C2.23457 15.5628 2.28738 15.5314 2.3415 15.4962C2.44974 15.4263 2.55733 15.3343 2.70143 15.3062C2.84945 15.2853 3.0268 15.3676 3.17612 15.3806C3.32348 15.4009 3.43759 15.3023 3.56148 15.2063C3.62343 15.158 3.68798 15.1103 3.76101 15.0809C3.83469 15.0607 3.90902 15.0411 3.98401 15.0209C4.13137 14.9758 4.28851 14.9523 4.43131 14.8825C4.57411 14.8139 4.71886 14.7447 4.86427 14.6755C5.01228 14.6135 5.1616 14.5508 5.31157 14.4888C5.4459 14.43 5.58087 14.3712 5.71519 14.3125C5.78235 14.2831 5.84951 14.2537 5.91667 14.225C5.98057 14.1943 6.04121 14.1519 6.1012 14.1068C6.1625 14.0618 6.22314 14.016 6.28443 13.9717C6.34702 13.9279 6.41614 13.8979 6.47939 13.8652C6.6085 13.7999 6.73564 13.7353 6.86214 13.672C6.98733 13.606 7.11122 13.5414 7.23316 13.4774C7.2938 13.4454 7.35444 13.4134 7.41443 13.3821C7.47898 13.3481 7.55788 13.3475 7.63286 13.3553C7.78479 13.3742 7.9315 13.418 8.03061 13.371C8.1382 13.3207 8.2334 13.2306 8.33251 13.1516C8.3775 13.1144 8.42575 13.0824 8.47596 13.0556C8.3775 13.036 8.2823 13.0217 8.19232 13.0262C7.94519 13.0367 7.69546 13.0896 7.44377 13.1301C7.19469 13.1725 6.93256 13.194 6.69 13.1673C6.44874 13.1444 6.2277 13.1033 6.02426 13.0896C5.62912 13.0595 5.24963 13.166 4.89426 13.2045C4.20244 13.2508 3.69776 13.2841 3.44411 13.3011C3.19764 13.3011 2.95182 13.3383 2.70404 13.3592C2.45757 13.386 2.20131 13.3651 1.9894 13.3377C1.77096 13.3122 1.56556 13.2815 1.37517 13.2456C1.27997 13.226 1.18868 13.2064 1.10131 13.1882C1.05501 13.1764 1.00937 13.1647 0.96503 13.1536C0.919386 13.1379 0.874395 13.1222 0.832664 13.102C0.821579 13.0968 0.812451 13.0902 0.802018 13.0844C0.791585 13.1523 0.780501 13.2202 0.768112 13.2887C0.709427 13.5845 0.650091 13.8809 0.591407 14.1773C0.530766 14.477 0.487732 14.7799 0.442088 15.0529C0.351454 15.6091 0.296682 16.168 0.258211 16.6708C0.237998 16.9254 0.211263 17.1604 0.166272 17.3922C0.125193 17.6442 0.0991115 17.8878 0.0808542 18.1202C0.0176056 19.0362 0.014345 19.8282 0 20.4798C0.0104328 21.1471 0.0652049 21.655 0.136278 22.007C0.208655 22.3523 0.307766 22.5476 0.461649 22.5743C0.482515 22.6285 0.509249 22.6886 0.549676 22.7591C0.618793 22.876 0.721816 23.0105 0.876351 23.0914C0.914822 23.1104 0.956553 23.1247 1.00024 23.1332C1.03023 23.1404 1.07392 23.1391 1.10131 23.1443C1.12674 23.3219 1.0987 23.1254 1.11044 23.2057L1.11304 23.2077L1.11761 23.2109L1.12674 23.2174L1.20303 23.2697C1.31257 23.3402 1.43255 23.3813 1.61642 23.4394C1.70771 23.4656 1.81399 23.491 1.94049 23.5067C2.00309 23.5145 2.07155 23.5197 2.14458 23.521C2.19283 23.5256 2.20001 23.5341 2.23391 23.5413C2.29325 23.5557 2.35324 23.5752 2.4217 23.6151C2.49082 23.6536 2.56907 23.7065 2.66035 23.7633C2.75229 23.8201 2.85792 23.8815 2.99224 23.9298C3.06332 23.9533 3.12852 23.9735 3.22828 23.9859C3.32609 23.9983 3.41868 24.0022 3.50671 23.9996C3.67559 23.9983 3.90837 23.9605 4.1255 23.9102C4.23439 23.886 4.33937 23.8625 4.43653 23.854C4.48934 23.8501 4.54085 23.8416 4.58519 23.8325L4.6504 23.8175C4.65562 23.8116 4.74169 23.807 4.78668 23.7998C5.00381 23.7737 5.20725 23.7215 5.40025 23.6817C5.59195 23.6451 5.80322 23.6092 5.99492 23.5654C6.17489 23.5263 6.36267 23.4851 6.55764 23.4427C6.7376 23.3957 6.88366 23.3663 7.0884 23.3376C7.13013 23.3324 7.17773 23.3284 7.22077 23.3232C7.2625 23.2259 7.30423 23.1273 7.34596 23.0281C7.42551 22.8283 7.52788 22.6337 7.58526 22.4209H7.58722ZM1.08044 22.9909V22.9889C1.08044 22.9902 1.08044 22.9909 1.08044 22.9915V22.9909Z" fill="#F9F3EA" fill-opacity="0.6"/>
<path d="M0.990695 11.8408C1.02982 11.8336 1.06959 11.8264 1.11002 11.8193C1.19739 11.8049 1.28868 11.7899 1.38388 11.7742C1.57428 11.7461 1.77902 11.722 1.99745 11.7024C2.22306 11.6841 2.42976 11.6711 2.66841 11.6234C2.90576 11.581 3.16853 11.5261 3.45152 11.5261C3.7006 11.5196 4.19224 11.5065 4.86516 11.4889C5.19118 11.4745 5.58306 11.3838 6.04015 11.4393C6.26315 11.4667 6.48549 11.5228 6.70654 11.5588C6.92693 11.5986 7.14145 11.5992 7.38532 11.5764C7.62592 11.5561 7.88348 11.517 8.15865 11.5202C8.45207 11.5183 8.73506 11.641 8.99392 11.7239C9.12433 11.7657 9.25017 11.799 9.3708 11.8062C9.50904 11.8075 9.64857 11.8095 9.78876 11.8108C10.0718 11.8134 10.3593 11.816 10.6508 11.8193C10.9422 11.8251 11.2376 11.8304 11.5356 11.8362C11.6823 11.8382 11.8297 11.8402 11.9777 11.8415C12.1264 11.833 12.2757 11.8238 12.425 11.8153C12.5769 11.8049 12.7315 11.7958 12.8886 11.7971C13.0418 11.8042 13.1951 11.8114 13.3483 11.8193C13.6534 11.8356 13.9599 11.8519 14.2657 11.8682C14.6035 11.88 14.9412 11.8924 15.2764 11.9041C15.6115 11.9028 15.9454 11.8859 16.2753 11.8722C16.6053 11.8467 16.9326 11.8715 17.2554 11.8663C17.4164 11.8663 17.5768 11.8663 17.7353 11.8663C17.8852 11.8597 18.0372 11.8323 18.191 11.7984C18.4988 11.7337 18.8137 11.6404 19.143 11.6815C19.4625 11.722 19.7507 11.8336 20.0109 11.8415C20.2691 11.8473 20.543 11.7781 20.8116 11.7259C20.9466 11.6991 21.0822 11.6763 21.2178 11.6639C21.3483 11.656 21.4761 11.6476 21.6019 11.6397C22.0968 11.611 22.55 11.5855 22.9503 11.6038C23.3513 11.6201 23.6963 11.6299 23.9962 11.6965C24.0862 11.7181 24.167 11.7429 24.2427 11.769C24.2427 11.7651 24.2427 11.7612 24.2427 11.7572C24.2486 11.3577 24.2492 10.9431 24.2701 10.5206C24.2935 10.1041 24.3379 9.6144 24.3731 9.12929L24.3992 8.78521C24.4018 8.76628 24.4024 8.7049 24.4037 8.65398L24.407 8.49793C24.4018 8.39412 24.4311 8.28835 24.4468 8.18323C24.4742 7.92664 24.439 7.67397 24.3659 7.48919C24.2759 7.26786 24.1084 7.09484 23.9225 6.97079C23.7452 6.85 23.5078 6.76512 23.2679 6.68873C23.1218 6.63258 23.1225 6.62736 23.0631 6.6019L22.9197 6.53008C22.7176 6.42104 22.5643 6.32115 22.3811 6.16641C22.0159 5.86672 21.611 5.38488 20.9798 4.9507C20.4582 4.63077 19.9229 4.30301 19.3771 3.96807C19.2447 3.89103 19.1117 3.81333 18.9781 3.73499C18.8816 3.67884 18.7616 3.59004 18.6083 3.48296C18.5314 3.43008 18.446 3.37262 18.3501 3.31713C18.3025 3.28905 18.2517 3.26163 18.1982 3.23551L18.0958 3.18785C17.9733 3.1304 17.8507 3.06315 17.7248 2.98741C17.1745 2.63549 16.6157 2.2777 16.0504 1.91534C15.7635 1.73187 15.4746 1.54645 15.1838 1.36102C14.891 1.1756 14.6491 1.01106 14.3564 0.800175C14.209 0.695057 14.0564 0.591245 13.8941 0.49135C13.8132 0.441077 13.7291 0.393415 13.6437 0.345753L13.5074 0.274586L13.3307 0.194931C13.0894 0.093731 12.8169 0.010159 12.5587 0.00232411C12.29 -0.0218334 12.0572 0.146616 11.8838 0.308537C11.7912 0.394721 11.7058 0.495268 11.6178 0.593204C11.6106 0.605609 11.5754 0.634337 11.5415 0.663717L11.4437 0.748595L11.0531 1.08876L10.8575 1.25917C10.7955 1.30748 10.7375 1.35841 10.6729 1.40477C10.5471 1.50009 10.4134 1.59084 10.2752 1.67899C9.69683 2.03351 9.09303 2.47422 8.53096 2.88099C8.21211 3.11668 7.93173 3.31974 7.5855 3.49863C7.251 3.68079 6.90737 3.84924 6.56113 4.01574C6.2162 4.17439 5.85953 4.36047 5.53416 4.55765C5.21661 4.74438 4.88733 4.92001 4.55152 5.0852C4.21572 5.2556 3.87731 5.39141 3.5265 5.58663C3.17831 5.78054 2.87576 5.97772 2.55169 6.16967L1.64731 6.7142C1.39366 6.8624 0.927446 7.02302 0.571428 7.19473L0.568168 7.24893C0.547303 7.65438 0.527089 8.05135 0.506876 8.43982C0.493183 8.79109 0.47949 9.13386 0.466449 9.4688C0.429934 10.187 0.579905 10.883 0.767042 11.483C0.798993 11.6071 0.821162 11.7305 0.837464 11.8532C0.852461 11.8532 0.866154 11.8532 0.881151 11.8532C0.917013 11.85 0.953528 11.8467 0.990695 11.8428V11.8408Z" fill="#F9F3EA" fill-opacity="0.6"/>
<path d="M11.7886 22.3806C11.7899 22.2885 11.7918 22.1952 11.7931 22.1011C11.7957 21.9118 11.799 21.7192 11.8016 21.5246C11.8075 21.3294 11.8133 21.1322 11.8192 20.9331C11.8212 20.8352 11.8231 20.7366 11.8251 20.6373C11.8166 20.5381 11.8081 20.4382 11.7996 20.3383C11.7892 20.2364 11.7801 20.1333 11.782 20.0282C11.7892 19.9257 11.797 19.8232 11.8042 19.7207C11.8205 19.5163 11.8368 19.3119 11.8538 19.1069C11.8661 18.881 11.8779 18.6551 11.8903 18.4312C11.889 18.2072 11.8727 17.9839 11.859 17.7632C11.8335 17.5426 11.859 17.3238 11.8538 17.1077C11.8538 17 11.8538 16.8929 11.8538 16.7865C11.8472 16.6859 11.8198 16.5847 11.7866 16.4816C11.722 16.2759 11.6288 16.065 11.6705 15.845C11.7116 15.6315 11.8231 15.4389 11.8309 15.2646C11.8368 15.0916 11.7677 14.9087 11.7155 14.7292C11.7149 14.7266 11.7142 14.7233 11.7136 14.7207C11.7116 14.7266 11.7103 14.7331 11.7083 14.739C11.6581 14.8983 11.5603 15.2117 11.4254 15.642C11.366 15.8522 11.3634 16.1297 11.2082 16.3987C11.1319 16.5299 11.0296 16.6513 10.9461 16.778C10.8587 16.9034 10.8105 17.0385 10.7772 17.1998C10.742 17.3584 10.7211 17.5334 10.6566 17.7058C10.5927 17.8912 10.4134 18.0283 10.2771 18.1635C10.208 18.2314 10.1487 18.2999 10.1154 18.3737C10.0828 18.4599 10.0502 18.5474 10.0169 18.6355C9.95108 18.8131 9.88327 18.9933 9.81546 19.1755C9.74504 19.357 9.67331 19.5411 9.60093 19.7272C9.56637 19.8192 9.53116 19.9113 9.49661 20.0034C9.47118 20.1 9.44575 20.1966 9.42032 20.2939C9.39619 20.3931 9.37011 20.4937 9.33294 20.5923C9.29186 20.6863 9.25013 20.7803 9.20905 20.8743C9.12494 21.0611 9.04083 21.2485 8.95671 21.4358C8.86934 21.6448 8.78261 21.853 8.69589 22.0607C8.62221 22.2722 8.56287 22.4877 8.50158 22.7005C8.4592 22.8853 8.38421 23.057 8.32031 23.2307C8.34639 23.2294 8.36987 23.2268 8.3966 23.2255C8.8739 23.183 9.39032 23.1504 9.93022 23.1282C10.0658 23.1197 10.2021 23.1112 10.3391 23.1027C10.4766 23.0883 10.5986 23.0975 10.7381 23.1158C10.8763 23.1386 11.023 23.1536 11.1619 23.1719C11.2741 23.1863 11.3941 23.1758 11.5069 23.168C11.5153 22.9806 11.6281 22.7998 11.7077 22.6339C11.7501 22.5471 11.7827 22.4622 11.7899 22.3819L11.7886 22.3806Z" fill="#F9F3EA" fill-opacity="0.6"/>
<path d="M22.9592 12.9207C22.5627 12.9233 22.1148 12.9259 21.6244 12.9291C21.5025 12.9291 21.3786 12.9278 21.2515 12.9278C21.1295 12.9278 21.003 12.9396 20.8726 12.954C20.6098 12.9827 20.334 13.033 20.0315 13.0101C19.7263 12.9794 19.4362 12.8423 19.1538 12.779C18.8787 12.7098 18.5852 12.764 18.2736 12.8123C18.1177 12.8364 17.9573 12.8599 17.7924 12.8625C17.6333 12.856 17.4729 12.8501 17.3118 12.8436C16.991 12.8358 16.665 12.8044 16.3363 12.8221C16.0957 12.8338 15.8525 12.8456 15.6086 12.8573C15.6823 12.9135 15.7645 12.95 15.8636 12.969C15.9784 12.9931 16.1068 13.0036 16.2281 13.0558C16.3592 13.1067 16.4394 13.2719 16.5235 13.3953C16.5659 13.458 16.6095 13.5109 16.6604 13.5396C16.721 13.5657 16.7823 13.5925 16.8443 13.6193C16.9688 13.6728 17.0953 13.727 17.2238 13.7818C17.3509 13.8393 17.48 13.8981 17.6104 13.9568C17.675 13.9849 17.7395 14.013 17.8047 14.0417C17.8739 14.0606 17.9436 14.0789 18.0127 14.0978C18.0845 14.1155 18.1562 14.1344 18.2253 14.1644C18.2905 14.199 18.3557 14.233 18.4216 14.2676C18.5513 14.3375 18.6811 14.408 18.8109 14.4778C18.9563 14.5497 19.1017 14.6215 19.2464 14.6933C19.3957 14.7521 19.5503 14.7965 19.7015 14.8435C19.8574 14.8787 19.9937 14.961 20.1391 15.0145C20.2108 15.0432 20.2819 15.072 20.3523 15.1007C20.4214 15.1216 20.499 15.1236 20.5799 15.1203C20.7409 15.1157 20.915 15.0857 21.0461 15.1836C21.1726 15.2789 21.2593 15.4343 21.3721 15.4885C21.4849 15.5408 21.6323 15.5251 21.7705 15.5251C21.8403 15.5244 21.9094 15.5277 21.9739 15.5408C22.0352 15.5564 22.0946 15.5721 22.1532 15.5878C22.3841 15.6505 22.594 15.7079 22.7655 15.7974C22.9377 15.8842 23.087 15.956 23.1952 16.0716C23.2989 16.1891 23.3595 16.3177 23.3876 16.4392C23.4143 16.5619 23.4052 16.6866 23.3452 16.8342C23.3439 16.8368 23.3426 16.8387 23.3419 16.8414C23.2826 16.9837 23.2004 17.0849 23.1013 17.1352C23.0003 17.188 22.8855 17.1802 22.7538 17.1489C22.6234 17.1228 22.4564 17.0927 22.2797 17.0216C22.103 16.9523 21.9029 16.8746 21.6838 16.7891C21.6297 16.7669 21.5749 16.7441 21.5188 16.7206C21.4647 16.6984 21.404 16.6866 21.3408 16.6768C21.2136 16.6559 21.0722 16.6533 20.9463 16.5776C20.8224 16.494 20.7442 16.3145 20.6425 16.2054C20.5459 16.0918 20.3953 16.0886 20.2395 16.0775C20.1612 16.0722 20.0817 16.0644 20.0074 16.0376C19.9389 16.003 19.8704 15.9684 19.8013 15.9332C19.6618 15.8679 19.5288 15.7804 19.3762 15.7373C19.2242 15.6929 19.0704 15.6478 18.9158 15.6021C18.7639 15.5493 18.6113 15.4964 18.4581 15.4428C18.3186 15.3965 18.179 15.3508 18.0401 15.3044C17.9704 15.2816 17.9012 15.2581 17.8315 15.2352C17.763 15.2156 17.69 15.2065 17.615 15.1999C17.5394 15.1928 17.4637 15.1856 17.3887 15.1784C17.3131 15.1693 17.2414 15.1451 17.1729 15.1275C17.0334 15.0896 16.8951 15.0524 16.7589 15.0158C16.6219 14.9806 16.4863 14.9466 16.3526 14.9127C16.2861 14.8957 16.2196 14.8794 16.1544 14.8624C16.0833 14.8448 16.024 14.7919 15.9738 14.7364C15.8734 14.6208 15.7932 14.4902 15.6882 14.4589C15.666 14.4524 15.6419 14.4517 15.6184 14.4478C15.6523 14.4915 15.6862 14.5359 15.7208 14.5803C15.8186 14.6992 15.9008 14.8356 16.0201 14.9407C16.1381 15.0465 16.2574 15.1536 16.3774 15.2613C16.4915 15.3743 16.6063 15.4885 16.7217 15.6028C16.8273 15.7046 16.9336 15.8065 17.0392 15.9083C17.0921 15.9593 17.1449 16.0102 17.1977 16.0611C17.2505 16.1081 17.3124 16.148 17.3777 16.1865C17.4429 16.2257 17.5081 16.2648 17.5726 16.3034C17.6365 16.3445 17.6913 16.3967 17.7454 16.4424C17.855 16.5364 17.9632 16.6298 18.0708 16.7219C18.1797 16.8126 18.2866 16.9021 18.3922 16.9902C18.4451 17.034 18.4979 17.0777 18.5494 17.1214C18.6055 17.1685 18.6368 17.2409 18.6576 17.3134C18.6987 17.461 18.7143 17.6137 18.7959 17.6869C18.8832 17.7672 19.0026 17.8201 19.1141 17.8821C19.2256 17.9415 19.3266 18.0198 19.3847 18.1237C19.4459 18.2242 19.487 18.3306 19.5424 18.4122C19.6481 18.5729 19.8489 18.6349 19.9924 18.7348C20.2499 18.9489 20.4371 19.105 20.5316 19.1833C20.6105 19.2708 20.7181 19.3322 20.8133 19.406C20.9124 19.4752 20.9802 19.5803 21.0285 19.6737C21.0806 19.7683 21.1237 19.8617 21.1589 19.9538C21.1752 20.0008 21.1902 20.0465 21.2052 20.0896C21.2117 20.1144 21.2176 20.1379 21.2234 20.1614C21.2267 20.1881 21.2293 20.2149 21.228 20.243C21.2156 20.4741 21.1276 20.7039 21.0735 20.86C21.0493 20.924 21.0259 20.9775 21.0011 21.0271C20.9633 21.1022 20.9222 21.1642 20.8668 21.2152C20.7794 21.2961 20.6581 21.3438 20.5596 21.3144C20.4553 21.2916 20.3966 21.1721 20.2962 21.0748C20.2825 21.0643 20.2682 21.0539 20.2532 21.0428C20.2356 21.0337 20.2173 21.0245 20.1991 21.0154C20.1599 20.9938 20.1195 20.9716 20.0778 20.9488C19.9956 20.9005 19.9122 20.8437 19.8267 20.7797C19.7407 20.7124 19.6644 20.6478 19.5516 20.5956C19.444 20.5401 19.3188 20.4846 19.2275 20.384C19.1421 20.3004 18.9739 20.1346 18.7437 19.9081C18.6276 19.8023 18.434 19.7252 18.3277 19.5254C18.2762 19.4275 18.2449 19.3113 18.2005 19.2081C18.1588 19.103 18.0897 19.0266 17.9945 18.9561C17.9019 18.8849 17.7897 18.8203 17.7037 18.7204C17.6078 18.6179 17.6065 18.4344 17.5837 18.2862C17.5726 18.2118 17.5563 18.1446 17.5224 18.0969C17.4787 18.0473 17.435 17.9963 17.3907 17.9454C17.3014 17.8436 17.2107 17.7398 17.1181 17.6346C17.0282 17.5276 16.9369 17.4192 16.8449 17.3101C16.7986 17.2573 16.7523 17.2037 16.706 17.1502C16.6519 17.1032 16.5972 17.0562 16.5424 17.0091C16.4857 16.9628 16.4289 16.9138 16.3794 16.857C16.335 16.7976 16.2913 16.7388 16.247 16.6794C16.1603 16.5606 16.0736 16.4411 15.9868 16.3216C15.8864 16.1937 15.786 16.0664 15.6869 15.939C15.5774 15.8215 15.4574 15.7144 15.3407 15.6067C15.2148 15.5075 15.1281 15.3743 15.0198 15.2639C14.9677 15.2071 14.9155 15.1503 14.8647 15.0942C14.8112 15.0452 14.7421 15.0106 14.6677 14.9786C14.5739 14.9368 14.4728 14.8996 14.3906 14.8422C14.4063 14.8787 14.4206 14.9107 14.4376 14.9486C14.5308 15.1464 14.7108 15.3566 14.7708 15.6616C14.7995 15.8104 14.8021 15.9697 14.8223 16.1205C14.8386 16.2727 14.8907 16.4059 14.9723 16.5495C15.0498 16.6918 15.1496 16.8374 15.2135 17.0105C15.2872 17.1926 15.2422 17.4139 15.2285 17.6053C15.2213 17.7019 15.2213 17.7926 15.2448 17.8703C15.2774 17.9572 15.31 18.044 15.3426 18.1321C15.4091 18.3091 15.4769 18.4893 15.5454 18.6714C15.6113 18.8549 15.6784 19.0403 15.7462 19.2284C15.7801 19.3204 15.8147 19.4125 15.8493 19.5052C15.8936 19.5947 15.9379 19.6841 15.9829 19.7742C16.0299 19.865 16.0762 19.9577 16.1133 20.0563C16.144 20.1542 16.1746 20.2521 16.2053 20.3507C16.2646 20.5466 16.3246 20.7431 16.3839 20.9396C16.4557 21.1544 16.5267 21.3686 16.5978 21.5821C16.6813 21.7904 16.7784 21.9915 16.8717 22.1919C16.976 22.3878 17.0334 22.6006 17.1168 22.7998C17.1357 22.8487 17.1553 22.8964 17.1742 22.9447C17.2916 22.9395 17.4063 22.9369 17.5178 22.946C17.7924 22.9708 18.061 22.9212 18.3088 22.9121C18.5585 22.8938 18.7796 22.9512 19.011 23.0335C19.1258 23.0727 19.2406 23.1125 19.3573 23.1419C19.4746 23.1719 19.5933 23.1817 19.6989 23.1993C19.9161 23.2294 20.1241 23.2588 20.3216 23.2862C20.4214 23.2973 20.5179 23.3084 20.6125 23.3188C20.7103 23.3247 20.8048 23.3221 20.8948 23.3169C21.2515 23.2881 21.5612 23.264 21.8168 23.2431C21.9407 23.2222 22.0502 23.1928 22.1474 23.1589C22.1806 23.1856 22.2145 23.2072 22.253 23.2104C22.313 23.217 22.3834 23.1863 22.446 23.1014C22.4727 23.0681 22.4936 23.0185 22.5138 22.961C22.6005 22.8833 22.6521 22.7906 22.6644 22.6698C22.6684 22.6307 22.6677 22.5928 22.6618 22.5562C22.7355 22.3937 22.8183 22.1802 22.8757 21.9464C22.9116 21.8093 22.9507 21.6611 22.9924 21.5031C23.0133 21.4287 23.0361 21.3555 23.0622 21.2844C23.0876 21.2145 23.1176 21.114 23.1444 21.0245C23.2559 20.6413 23.3224 20.2469 23.3902 19.7853C23.4521 19.3302 23.4899 18.8112 23.4678 18.264C23.4665 18.078 23.4886 17.8925 23.5401 17.6829C23.5897 17.4714 23.6647 17.2364 23.7455 16.9654C23.786 16.8303 23.8277 16.6847 23.8655 16.5234C23.9046 16.3517 23.9353 16.2028 23.964 16.0494C23.9927 15.894 24.0181 15.734 24.037 15.5682C24.0553 15.4082 24.0696 15.2522 24.0813 15.0935C24.1055 14.7938 24.1224 14.3479 24.1433 13.7988C24.1544 13.5233 24.1681 13.2249 24.1942 12.9024C24.1961 12.8815 24.1961 12.8593 24.1981 12.8377C24.1283 12.8469 24.0546 12.8541 23.9764 12.8599C23.7032 12.8847 23.3563 12.9193 22.9598 12.92L22.9592 12.9207Z" fill="#F9F3EA" fill-opacity="0.6"/>
</svg>
