<svg width="28" height="29" viewBox="0 0 28 29" fill="none" xmlns="http://www.w3.org/2000/svg">
<rect y="0.5" width="28" height="28" rx="14" fill="#281414"/>
<g clip-path="url(#clip0_14170_134815)">
<path d="M12.7574 8.82227C13.9205 8.77748 15.0574 9.17312 15.941 9.93066C16.8246 10.6881 17.3896 11.7511 17.5231 12.9072C17.6564 14.0632 17.3484 15.2273 16.6608 16.166C16.6897 16.1875 16.7165 16.2117 16.7418 16.2373L19.4772 18.9727C19.6104 19.106 19.6852 19.2871 19.6852 19.4756C19.685 19.6639 19.6104 19.8444 19.4772 19.9775C19.3438 20.1108 19.1627 20.1856 18.9742 20.1855C18.786 20.1854 18.6054 20.1107 18.4723 19.9775L15.7369 17.2422C15.7114 17.2159 15.6879 17.1886 15.6666 17.1602C14.7284 17.8484 13.5649 18.1579 12.4088 18.0254C11.2527 17.8928 10.1894 17.3282 9.43127 16.4453C8.67316 15.5623 8.27607 14.4257 8.31995 13.2627C8.36393 12.0996 8.84585 10.9952 9.66858 10.1719C10.4913 9.34878 11.5945 8.86707 12.7574 8.82227ZM12.9362 9.52734C11.8998 9.52734 10.9053 9.93911 10.1725 10.6719C9.43961 11.4047 9.02795 12.3991 9.02795 13.4355C9.02796 13.9487 9.12945 14.4566 9.32581 14.9307C9.5222 15.4048 9.8096 15.8363 10.1725 16.1992C10.5353 16.5619 10.9661 16.8495 11.4401 17.0459C11.9142 17.2423 12.423 17.3438 12.9362 17.3438C13.4492 17.3437 13.9573 17.2422 14.4313 17.0459C14.9053 16.8496 15.336 16.5619 15.6989 16.1992C16.0617 15.8363 16.3501 15.4048 16.5465 14.9307C16.7428 14.4567 16.8434 13.9486 16.8434 13.4355C16.8434 12.3991 16.4317 11.4047 15.6989 10.6719C14.9661 9.93926 13.9723 9.52745 12.9362 9.52734Z" fill="#F9F3EA"/>
</g>
<defs>
<clipPath id="clip0_14170_134815">
<rect width="11.3684" height="11.3684" fill="white" transform="translate(8.3158 8.81543)"/>
</clipPath>
</defs>
</svg>
