<svg width="18" height="19" viewBox="0 0 18 19" fill="none" xmlns="http://www.w3.org/2000/svg">
<g id="wrapper">
<path id="Union" d="M13.2108 12.1378C14.3001 10.6514 14.788 8.8084 14.5769 6.97764C14.3657 5.14688 13.4711 3.46335 12.072 2.26387C10.6729 1.06438 8.87248 0.437399 7.03095 0.508357C5.18942 0.579314 3.44259 1.34298 2.13994 2.64657C0.837281 3.95016 0.0748669 5.69753 0.00522735 7.53911C-0.0644122 9.38069 0.563858 11.1807 1.76434 12.5789C2.96483 13.9771 4.649 14.8705 6.47991 15.0804C8.31082 15.2902 10.1534 14.801 11.6391 13.7106H11.638C11.6718 13.7556 11.7078 13.7983 11.7483 13.84L16.0795 18.1712C16.2905 18.3823 16.5766 18.501 16.8751 18.5011C17.1735 18.5012 17.4597 18.3827 17.6708 18.1718C17.8819 17.9608 18.0006 17.6747 18.0007 17.3762C18.0008 17.0778 17.8823 16.7916 17.6714 16.5805L13.3401 12.2492C13.2999 12.2085 13.2567 12.1709 13.2108 12.1367V12.1378ZM13.501 7.81335C13.501 8.6259 13.341 9.4305 13.03 10.1812C12.7191 10.9319 12.2633 11.614 11.6887 12.1886C11.1142 12.7631 10.4321 13.2189 9.68137 13.5299C8.93066 13.8408 8.12607 14.0008 7.31351 14.0008C6.50096 14.0008 5.69636 13.8408 4.94566 13.5299C4.19495 13.2189 3.51285 12.7631 2.93829 12.1886C2.36372 11.614 1.90796 10.9319 1.59701 10.1812C1.28605 9.4305 1.12601 8.6259 1.12601 7.81335C1.12601 6.17232 1.77791 4.5985 2.93829 3.43812C4.09867 2.27774 5.67248 1.62585 7.31351 1.62585C8.95454 1.62585 10.5284 2.27774 11.6887 3.43812C12.8491 4.5985 13.501 6.17232 13.501 7.81335Z" fill="#605E5D"/>
</g>
</svg>
