<svg width="18" height="19" viewBox="0 0 18 19" fill="none" xmlns="http://www.w3.org/2000/svg">
<path d="M13.2127 12.1388C14.302 10.6523 14.7899 8.80937 14.5788 6.97861C14.3677 5.14786 13.4731 3.46433 12.0739 2.26484C10.6748 1.06536 8.87443 0.438376 7.0329 0.509333C5.19138 0.580291 3.44455 1.34395 2.14189 2.64754C0.839234 3.95113 0.07682 5.69851 0.00718048 7.54008C-0.0624591 9.38166 0.565811 11.1816 1.7663 12.5799C2.96678 13.9781 4.65095 14.8715 6.48186 15.0814C8.31277 15.2912 10.1554 14.802 11.6411 13.7116H11.64C11.6737 13.7566 11.7097 13.7993 11.7502 13.8409L16.0815 18.1722C16.2924 18.3833 16.5786 18.5019 16.877 18.502C17.1754 18.5022 17.4617 18.3837 17.6728 18.1728C17.8839 17.9618 18.0025 17.6756 18.0026 17.3772C18.0027 17.0788 17.8843 16.7925 17.6733 16.5814L13.3421 12.2502C13.3019 12.2095 13.2586 12.1719 13.2127 12.1377V12.1388ZM13.503 7.81432C13.503 8.62688 13.3429 9.43147 13.032 10.1822C12.721 10.9329 12.2653 11.615 11.6907 12.1895C11.1161 12.7641 10.434 13.2199 9.68332 13.5308C8.93262 13.8418 8.12802 14.0018 7.31546 14.0018C6.50291 14.0018 5.69831 13.8418 4.94761 13.5308C4.19691 13.2199 3.5148 12.7641 2.94024 12.1895C2.36568 11.615 1.90991 10.9329 1.59896 10.1822C1.28801 9.43147 1.12796 8.62688 1.12796 7.81432C1.12796 6.1733 1.77986 4.59948 2.94024 3.4391C4.10062 2.27872 5.67444 1.62682 7.31546 1.62682C8.95649 1.62682 10.5303 2.27872 11.6907 3.4391C12.8511 4.59948 13.503 6.1733 13.503 7.81432Z" fill="#F9F3EA"/>
</svg>
