<svg width="32" height="35" viewBox="0 0 32 35" fill="none" xmlns="http://www.w3.org/2000/svg">
<g filter="url(#filter0_d_14170_134834)">
<path d="M2 9.5C2 5.08172 5.58172 1.5 10 1.5H22C26.4183 1.5 30 5.08172 30 9.5V23.5C30 27.9183 26.4183 31.5 22 31.5H10C5.58172 31.5 2 27.9183 2 23.5V9.5Z" fill="#281414"/>
<g clip-path="url(#clip0_14170_134834)">
<path d="M16.0015 6.75C16.0843 6.75 16.1636 6.78331 16.2222 6.8418C16.2808 6.90036 16.314 6.97969 16.314 7.0625V10.1875H19.439C19.5218 10.1875 19.6011 10.2208 19.6597 10.2793C19.7183 10.3379 19.7515 10.4172 19.7515 10.5C19.7515 10.5829 19.7183 10.6621 19.6597 10.7207C19.6011 10.7793 19.5219 10.8125 19.439 10.8125H16.314V13.9375C16.314 14.0204 16.2808 14.0996 16.2222 14.1582C16.1636 14.2168 16.0844 14.25 16.0015 14.25C15.9187 14.2499 15.8394 14.2168 15.7808 14.1582C15.7223 14.0996 15.689 14.0203 15.689 13.9375V10.8125H12.564C12.4812 10.8124 12.4019 10.7793 12.3433 10.7207C12.2848 10.6621 12.2515 10.5828 12.2515 10.5C12.2516 10.4172 12.2848 10.3379 12.3433 10.2793C12.4019 10.2207 12.4812 10.1876 12.564 10.1875H15.689V7.0625C15.6891 6.97969 15.7223 6.90036 15.7808 6.8418C15.8394 6.78324 15.9187 6.75005 16.0015 6.75Z" fill="#F9F3EA"/>
</g>
<g clip-path="url(#clip1_14170_134834)">
<path d="M19.439 22.1875C19.5218 22.1875 19.6011 22.2208 19.6597 22.2793C19.7183 22.3379 19.7515 22.4172 19.7515 22.5C19.7515 22.5829 19.7183 22.6621 19.6597 22.7207C19.6011 22.7793 19.5219 22.8125 19.439 22.8125H12.564C12.4812 22.8124 12.4019 22.7793 12.3433 22.7207C12.2848 22.6621 12.2515 22.5828 12.2515 22.5C12.2516 22.4172 12.2848 22.3379 12.3433 22.2793C12.4019 22.2207 12.4812 22.1876 12.564 22.1875H19.439Z" fill="#F9F3EA"/>
</g>
</g>
<defs>
<filter id="filter0_d_14170_134834" x="0" y="0.5" width="32" height="34" filterUnits="userSpaceOnUse" color-interpolation-filters="sRGB">
<feFlood flood-opacity="0" result="BackgroundImageFix"/>
<feColorMatrix in="SourceAlpha" type="matrix" values="0 0 0 0 0 0 0 0 0 0 0 0 0 0 0 0 0 0 127 0" result="hardAlpha"/>
<feOffset dy="1"/>
<feGaussianBlur stdDeviation="1"/>
<feColorMatrix type="matrix" values="0 0 0 0 0 0 0 0 0 0 0 0 0 0 0 0 0 0 0.3 0"/>
<feBlend mode="normal" in2="BackgroundImageFix" result="effect1_dropShadow_14170_134834"/>
<feBlend mode="normal" in="SourceGraphic" in2="effect1_dropShadow_14170_134834" result="shape"/>
</filter>
<clipPath id="clip0_14170_134834">
<rect width="10" height="10" fill="white" transform="translate(11 5.5)"/>
</clipPath>
<clipPath id="clip1_14170_134834">
<rect width="10" height="10" fill="white" transform="translate(11 17.5)"/>
</clipPath>
</defs>
</svg>
