<?xml version="1.0" encoding="UTF-8"?>
<svg width="12" height="12" fill="none" version="1.1" viewBox="0 0 12 12" xmlns="http://www.w3.org/2000/svg">
 <path d="m6.0017 0c1.5913 0 3.1179.63259 4.2432 1.7578 1.1249 1.1252 1.7568 2.6511 1.7568 4.2422 0 1.5913-.6316 3.118-1.7568 4.2432-1.1252 1.1252-2.6519 1.7568-4.2432 1.7568-1.5911 0-3.117-.6319-4.2422-1.7568-1.1252-1.1252-1.7578-2.6519-1.7578-4.2432 1.036e-5-1.5913.6326-3.117 1.7578-4.2422 1.1252-1.1252 2.6509-1.7578 4.2422-1.7578zm-1.0195 5.1562-.06153.28613.33887.06055c.2195.05325.26282.13289.21485.35254l-.55372 2.6006c-.1455.67275.0792.98926.60645.98926.40871-3e-5.88339-.18877 1.0986-.44824l.06641-.3125c-.14917.13193-.36915.18451-.51465.18457-.20625 0-.28102-.14441-.22852-.39941l.74903-3.5283-1.7158.21484zm1.0195-2.5312c-.1989 1e-5-.38963.07908-.53027.21973-.14065.14064-.21972.33137-.21973.53027 0 .19889.0791.38962.21973.53027.14064.14065.33137.21972.53027.21973.19891 0 .38962-.07907.53027-.21973.14065-.14065.21973-.33136.21973-.53027-1e-5-.1989-.07908-.38963-.21973-.53027-.14065-.14063-.33138-.21973-.53027-.21973z" fill="#281414"/>
</svg>
