<svg width="12" height="12" viewBox="0 0 12 12" fill="none" xmlns="http://www.w3.org/2000/svg">
<path d="M6.00171 0C7.59301 0 9.11965 0.632594 10.2449 1.75781C11.3698 2.88298 12.0017 4.40893 12.0017 6C12.0017 7.5913 11.3701 9.11795 10.2449 10.2432C9.11965 11.3684 7.59301 12 6.00171 12C4.41064 12 2.88469 11.3681 1.75952 10.2432C0.634303 9.11795 0.00170898 7.5913 0.00170898 6C0.00171934 4.40872 0.634312 2.88302 1.75952 1.75781C2.88473 0.632603 4.41042 1.03604e-05 6.00171 0ZM4.98218 5.15625L4.92065 5.44238L5.25952 5.50293C5.47902 5.55618 5.52234 5.63582 5.47437 5.85547L4.92065 8.45605C4.77515 9.1288 4.99985 9.44531 5.5271 9.44531C5.93581 9.44528 6.41049 9.25654 6.62573 8.99707L6.69214 8.68457C6.54297 8.8165 6.32299 8.86908 6.17749 8.86914C5.97124 8.86914 5.89647 8.72473 5.94897 8.46973L6.698 4.94141L4.98218 5.15625ZM6.00171 2.625C5.80281 2.62501 5.61208 2.70408 5.47144 2.84473C5.33079 2.98537 5.25172 3.1761 5.25171 3.375C5.25171 3.57389 5.33081 3.76462 5.47144 3.90527C5.61208 4.04592 5.80281 4.12499 6.00171 4.125C6.20062 4.125 6.39133 4.04593 6.53198 3.90527C6.67263 3.76462 6.75171 3.57391 6.75171 3.375C6.7517 3.1761 6.67263 2.98537 6.53198 2.84473C6.39133 2.7041 6.2006 2.625 6.00171 2.625Z" fill="#F9F3EA"/>
</svg>
