<svg width="17" height="17" viewBox="0 0 17 17" fill="none" xmlns="http://www.w3.org/2000/svg">
<path d="M5.33594 3.67383C5.33594 2.87818 5.65201 2.11512 6.21462 1.55251C6.77723 0.989899 7.54029 0.673828 8.33594 0.673828C9.13159 0.673828 9.89465 0.989899 10.4573 1.55251C11.0199 2.11512 11.3359 2.87818 11.3359 3.67383V8.67383C11.3359 9.46948 11.0199 10.2325 10.4573 10.7951C9.89465 11.3578 9.13159 11.6738 8.33594 11.6738C7.54029 11.6738 6.77723 11.3578 6.21462 10.7951C5.65201 10.2325 5.33594 9.46948 5.33594 8.67383V3.67383Z" fill="#F9F3EA"/>
<path d="M3.83594 7.17383C3.96855 7.17383 4.09572 7.22651 4.18949 7.32027C4.28326 7.41404 4.33594 7.54122 4.33594 7.67383V8.67383C4.33594 9.73469 4.75736 10.7521 5.50751 11.5023C6.25766 12.2524 7.27507 12.6738 8.33594 12.6738C9.3968 12.6738 10.4142 12.2524 11.1644 11.5023C11.9145 10.7521 12.3359 9.73469 12.3359 8.67383V7.67383C12.3359 7.54122 12.3886 7.41404 12.4824 7.32027C12.5762 7.22651 12.7033 7.17383 12.8359 7.17383C12.9685 7.17383 13.0957 7.22651 13.1895 7.32027C13.2833 7.41404 13.3359 7.54122 13.3359 7.67383V8.67383C13.336 9.91336 12.8756 11.1087 12.0441 12.028C11.2126 12.9472 10.0693 13.5249 8.83594 13.6488V15.6738H11.8359C11.9685 15.6738 12.0957 15.7265 12.1895 15.8203C12.2833 15.914 12.3359 16.0412 12.3359 16.1738C12.3359 16.3064 12.2833 16.4336 12.1895 16.5274C12.0957 16.6212 11.9685 16.6738 11.8359 16.6738H4.83594C4.70333 16.6738 4.57615 16.6212 4.48238 16.5274C4.38862 16.4336 4.33594 16.3064 4.33594 16.1738C4.33594 16.0412 4.38862 15.914 4.48238 15.8203C4.57615 15.7265 4.70333 15.6738 4.83594 15.6738H7.83594V13.6488C6.60262 13.5249 5.45931 12.9472 4.62782 12.028C3.79632 11.1087 3.33592 9.91336 3.33594 8.67383V7.67383C3.33594 7.54122 3.38862 7.41404 3.48238 7.32027C3.57615 7.22651 3.70333 7.17383 3.83594 7.17383Z" fill="#F9F3EA"/>
</svg>
