<?xml version="1.0" encoding="UTF-8"?>
<svg width="36" height="36" version="1.1" viewBox="0 0 36 36" xmlns="http://www.w3.org/2000/svg">
 <rect width="36" height="36" rx="8" ry="8" fill="#235540"/>
 <path d="m18.483 23.356c-.1148.561.0493.8799.5029.8799.3187 0 .8021-.1165 1.1309-.4063l-.1445.6855c-.4737.5712-1.5161.9863-2.4161.9864-1.1587 0-1.6527-.6961-1.3339-2.1748l1.2187-5.7207c.105-.4837.0088-.6582-.4746-.7744l-.7441-.1348.1347-.627 3.7803-.4746zm.1182-12.854c.4373 0 .8566.1742 1.166.4834.3094.3094.4834.7294.4834 1.167s-.174.8575-.4834 1.167c-.3094.3091-.7287.4833-1.166.4834-.4376 0-.8576-.1741-1.167-.4834-.3095-.3095-.4834-.7294-.4834-1.167s.1739-.8576.4834-1.167c.3094-.3094.7294-.4834 1.167-.4834z" fill="#f9f3ea"/>
</svg>
