<svg width="45" height="55" viewBox="0 0 45 55" fill="none" xmlns="http://www.w3.org/2000/svg">
<path d="M44.4941 22.4961C44.4941 34.6464 22.4941 54.4961 22.4941 54.4961C22.4941 54.4961 0.494141 34.6464 0.494141 22.4961C0.494141 10.3458 10.3439 0.496094 22.4941 0.496094C34.6444 0.496094 44.4941 10.3458 44.4941 22.4961Z" fill="#367674"/>
<g clip-path="url(#clip0_14441_70295)">
<path d="M19.252 21.251C20.0718 21.2414 20.8884 21.3602 21.6719 21.6016C20.1022 22.814 19.2521 24.5575 19.252 26.251C19.2442 26.6828 19.3372 27.1108 19.5225 27.501H14.252C14.2268 27.5008 13.002 27.4881 13.002 26.251C13.0022 25.0006 14.2528 21.2512 19.252 21.251ZM26.752 21.251C31.7514 21.251 33.0017 25.0006 33.002 26.251C33.002 27.501 31.752 27.501 31.752 27.501H21.752C21.7268 27.5008 20.502 27.4881 20.502 26.251C20.5022 25.0006 21.7528 21.2512 26.752 21.251ZM18.627 13.751C19.4558 13.751 20.2509 14.0809 20.8369 14.667C21.4228 15.2529 21.7519 16.0474 21.752 16.876C21.752 17.7048 21.423 18.4999 20.8369 19.0859C20.2509 19.672 19.4558 20.001 18.627 20.001C17.7983 20.0009 17.0039 19.6718 16.418 19.0859C15.8319 18.4999 15.502 17.7048 15.502 16.876C15.5021 16.0473 15.832 15.253 16.418 14.667C17.0039 14.081 17.7983 13.7511 18.627 13.751ZM26.752 12.501C27.7465 12.501 28.701 12.8963 29.4043 13.5996C30.1074 14.3028 30.5019 15.2566 30.502 16.251C30.502 17.2455 30.1076 18.2001 29.4043 18.9033C28.701 19.6066 27.7465 20.001 26.752 20.001C25.7576 20.0009 24.8037 19.6064 24.1006 18.9033C23.3973 18.2001 23.002 17.2455 23.002 16.251C23.0021 15.2566 23.3974 14.3028 24.1006 13.5996C24.8038 12.8964 25.7575 12.5011 26.752 12.501Z" fill="#F9F3EA"/>
</g>
<defs>
<clipPath id="clip0_14441_70295">
<rect width="20" height="20" fill="white" transform="translate(13 10)"/>
</clipPath>
</defs>
</svg>
