<?xml version="1.0" encoding="UTF-8"?>
<svg width="44" height="54" fill="none" version="1.1" viewBox="0 0 44 54" xmlns="http://www.w3.org/2000/svg">
 <g transform="translate(-2,-1)" filter="url(#filter0_d_10815_70149)">
  <path d="m46 23c0 12.15-22 32-22 32s-22-19.85-22-32 9.8497-22 22-22 22 9.8497 22 22z" fill="#235540"/>
  <path d="m35.693 19.697-11.109-9.4823c-.3348-.28627-.834-.28627-1.1688 0l-11.109 9.4823c-.195.1657-.3056.4068-.3056.6585v10.771c0 .4821.3993.8739.8908.8739h22.218c.4915 0 .8908-.3918.8908-.8739v-10.771c0-.2532-.1121-.4928-.3056-.6585zm-8.0558 7.2191c-1.1304 1.014-2.3745 1.9121-3.6278 2.774l-.0568-.0181c-.9753-.6856-1.9475-1.3787-2.8645-2.1397-2.0903-1.7373-5.0976-4.6469-2.7692-7.4059 1.4207-1.6831 3.6892-1.5053 5.2359-.0934.1674.1522.3072.327.4654.4867.0107-.0422.0491-.0874.0768-.1205 1.562-1.7841 4.2391-2.1231 5.7442-.0724 1.817 2.4757-.3624 4.9363-2.204 6.5893z" fill="#f9f3ea"/>
 </g>
</svg>
