<?xml version="1.0" encoding="UTF-8"?>
<svg width="44" height="54" fill="none" version="1.1" viewBox="0 0 44 54" xmlns="http://www.w3.org/2000/svg">
 <path d="m44 22c0 12.15-22 32-22 32s-22-19.85-22-32c0-12.15 9.8497-22 22-22 12.15 0 22 9.8497 22 22z" fill="#ffb300"/>
 <g transform="matrix(1.102 0 0 1.102 -2.2041 -1.102)" clip-path="url(#clip0_10815_37972)" stroke-width=".90741">
  <path d="m15.75 17.126c.4973 0 .9745.1982 1.3262.5498.3514.3515.5487.8281.5488 1.3252 0 .4973-.1972.9745-.5488 1.3262-.3517.3516-.8289.5488-1.3262.5488-.4971-1e-4-.9737-.1973-1.3252-.5488-.3516-.3517-.5498-.8289-.5498-1.3262 1e-4-.4971.1983-.9737.5498-1.3252s.8281-.5497 1.3252-.5498zm6.25 0c.4973 0 .9745.1982 1.3262.5498.3514.3515.5487.8281.5488 1.3252 0 .4973-.1972.9745-.5488 1.3262-.3517.3516-.8289.5488-1.3262.5488-.4971-1e-4-.9737-.1973-1.3252-.5488-.3516-.3517-.5498-.8289-.5498-1.3262 1e-4-.4971.1983-.9737.5498-1.3252s.8281-.5497 1.3252-.5498zm6.25 0c.4973 0 .9745.1982 1.3262.5498.3514.3515.5487.8281.5488 1.3252 0 .4973-.1972.9745-.5488 1.3262-.3517.3516-.8289.5488-1.3262.5488-.4971-1e-4-.9737-.1973-1.3252-.5488-.3516-.3517-.5498-.8289-.5498-1.3262 1e-4-.4971.1983-.9737.5498-1.3252s.8281-.5497 1.3252-.5498z" fill="#281414" stroke-width=".90741"/>
 </g>
</svg>
