<svg width="44" height="54" viewBox="0 0 44 54" fill="none" xmlns="http://www.w3.org/2000/svg">
<path d="M44 22C44 34.1503 22 54 22 54C22 54 0 34.1503 0 22C0 9.84974 9.84974 0 22 0C34.1503 0 44 9.84974 44 22Z" fill="#235540"/>
<path d="M33.6928 18.697L22.5836 9.21472C22.2488 8.92843 21.7496 8.92843 21.4148 9.21472L10.3056 18.697C10.1106 18.8627 10 19.1038 10 19.3555V30.1261C10 30.6082 10.3993 31 10.8908 31H33.1092C33.6007 31 34 30.6082 34 30.1261V19.3555C34 19.1023 33.8879 18.8627 33.6944 18.697H33.6928ZM25.637 25.9161C24.5066 26.9301 23.2625 27.8282 22.0092 28.6901L21.9524 28.672C20.9771 27.9864 20.0049 27.2933 19.0879 26.5323C16.9976 24.795 13.9903 21.8854 16.3187 19.1264C17.7394 17.4433 20.0079 17.6211 21.5546 19.033C21.722 19.1852 21.8618 19.36 22.02 19.5197C22.0307 19.4775 22.0691 19.4323 22.0968 19.3992C23.6588 17.6151 26.3359 17.2761 27.841 19.3268C29.658 21.8025 27.4786 24.2631 25.637 25.9161Z" fill="#F9F3EA"/>
</svg>
