<svg width="44" height="54" viewBox="0 0 44 54" fill="none" xmlns="http://www.w3.org/2000/svg">
<path d="M44 22C44 34.1503 22 54 22 54C22 54 0 34.1503 0 22C0 9.84974 9.84974 0 22 0C34.1503 0 44 9.84974 44 22Z" fill="#235540"/>
<g clip-path="url(#clip0_13518_66669)">
<path d="M9.4375 14.625H31.3125C31.5542 14.625 31.75 14.8667 31.75 15.0625V15.9375C31.75 16.1792 31.5542 16.375 31.3125 16.375H9.4375C9.19578 16.375 9 16.1333 9 15.9375V15.0625C9 14.8208 9.19578 14.625 9.4375 14.625Z" fill="#F9F3EA"/>
<path d="M29.9519 12.2417C29.8775 12.093 29.7266 12 29.5603 12H11.1853C11.0191 12 10.8681 12.0941 10.7938 12.2417L10.0391 13.75H30.7045L29.9498 12.2417H29.9519Z" fill="#F9F3EA"/>
<path d="M33.5 22.5H30.875C30.875 22.5 27.375 22.9375 27.375 26.875V29.5C27.375 30.4669 28.1581 31.25 29.125 31.25H35.25C36.2169 31.25 37 30.4669 37 29.5V26.875C37 22.9376 33.5 22.5 33.5 22.5Z" fill="#F9F3EA"/>
<path d="M29.1604 19.5009C29.401 21.2564 30.8775 21.625 30.8775 21.625H33.5025C33.5025 21.625 34.9791 21.2553 35.2197 19.5009C35.2558 19.2363 35.0535 19 34.7866 19H29.5934C29.3266 19 29.1243 19.2362 29.1604 19.5009Z" fill="#F9F3EA"/>
<path d="M21.0605 17.3199L30.7088 17.3204L30.5961 18.1954H29.1239C28.6405 18.1954 28.2489 18.587 28.2489 19.0704C28.2489 20.5536 28.9227 21.4931 29.6227 22.0236C29.3153 22.1494 28.973 22.3222 28.6274 22.5595C27.655 23.2279 26.4979 24.5293 26.4979 26.9443L26.4981 29.5693C26.4981 30.219 26.7355 30.814 27.1292 31.2734C27.0702 31.3029 27.0045 31.3193 26.9356 31.3193H25.6231C25.435 31.3193 25.2677 31.199 25.2075 31.0196L24.8695 30.0068L16.7539 29.9915L16.2395 31.0899C16.1794 31.2693 16.012 31.3896 15.8239 31.3896H14.2314C14.0433 31.3896 13.8759 31.2693 13.8158 31.0899L13.267 29.9185C12.0501 29.9173 12.5022 29.9099 12.509 29.9098C12.5079 29.91 12.4975 29.9118 12.4872 29.9098C12.4793 29.9082 12.4615 29.9029 12.4615 29.9029C11.8913 29.8416 11.4431 29.4004 11.3822 28.8368L10.8725 24.1118L10.6549 22.0922L10.0391 17.3193L21.0605 17.3199Z" fill="#F9F3EA"/>
</g>
<defs>
<clipPath id="clip0_13518_66669">
<rect width="28" height="20" fill="white" transform="translate(9 12)"/>
</clipPath>
</defs>
</svg>
