<?xml version="1.0" encoding="UTF-8"?>
<svg width="44" height="54" fill="none" version="1.1" viewBox="0 0 44 54" xmlns="http://www.w3.org/2000/svg">
 <path d="m44 22c0 12.15-22 32-22 32s-22-19.85-22-32c0-12.15 9.8497-22 22-22 12.15 0 22 9.8497 22 22z" fill="#fc7753"/>
 <g transform="matrix(1.102 0 0 1.102 -2.2041 -1.102)" clip-path="url(#clip0_10815_37948)" stroke-width=".9074">
  <path d="m23.691 11.001c.4476 0 .8769.1777 1.1934.4941.3164.3165.4941.7458.4941 1.1934v1.125h3.9375c.1492 0 .292.0595.3975.165s.165.2483.165.3975-.0595.292-.165.3975c-.1055.1054-.2483.165-.3975.165h-.6055l-.9589 11.992c-.0453.5638-.3021 1.09-.7178 1.4736s-.9608.5968-1.5264.5967h-7.0078c-.5656 1e-4-1.1107-.2131-1.5264-.5967s-.6725-.9098-.7177-1.4736l-.959-11.992h-.6055c-.1492 0-.292-.0596-.3975-.165-.1054-.1055-.165-.2483-.165-.3975s.0596-.292.165-.3975c.1055-.1055.2483-.165.3975-.165h3.9375v-1.125c0-.4476.1777-.8769.4941-1.1934.3165-.3164.7459-.4941 1.1934-.4941zm-5.0976 5.0508c-.0747.0045-.1478.0246-.2149.0576-.0671.0331-.1277.0793-.1768.1357-.0488.0563-.086.1217-.1093.1924-.0234.071-.0323.1463-.0264.2207l.5625 9.5625c.003.0746.0211.1482.0527.2158.0317.0677.0765.1286.1319.1788.0555.0501.1208.0894.1914.1142.0705.0247.1452.0348.2197.0303.0747-.0045.1478-.0236.2149-.0567.067-.033.1267-.0793.1757-.1357.0491-.0565.087-.1223.1104-.1934.0233-.0709.0323-.1462.0264-.2207l-.5625-9.5625c-.0031-.0746-.0211-.1481-.0528-.2158-.0317-.0676-.0764-.1286-.1318-.1787-.0555-.0502-.1209-.0885-.1914-.1133-.0705-.0247-.1452-.0356-.2197-.0312zm3.4101.0117c-.1492 0-.292.0595-.3975.165-.1054.1055-.165.2483-.165.3975v9.5625c0 .1492.0596.292.165.3975.1055.1054.2483.165.3975.165s.292-.0596.3975-.165c.1055-.1055.165-.2483.165-.3975v-9.5625c0-.1492-.0595-.292-.165-.3975s-.2483-.165-.3975-.165zm3.4092.001c-.1489-.0086-.2959.0424-.4072.1416-.1113.0991-.1788.2389-.1875.3877l-.5625 9.5625c-.0048.1465.0486.2892.1474.3974.0989.1083.2365.1741.3828.1827.1464.0083.2907-.0407.4014-.1368.1108-.0961.1792-.2327.1914-.3789l.5625-9.5625c.0085-.1487-.0425-.2949-.1416-.4062-.099-.1112-.2381-.1787-.3867-.1875zm-5.0967-3.9385c-.1492 0-.292.0595-.3975.165-.1054.1055-.165.2483-.165.3975v1.125h4.5v-1.125c0-.1492-.0595-.292-.165-.3975s-.2483-.165-.3975-.165z" fill="#281414" stroke-width=".9074"/>
 </g>
</svg>
