<?xml version="1.0" encoding="UTF-8"?>
<svg width="44" height="54" version="1.1" viewBox="0 0 44 54" xmlns="http://www.w3.org/2000/svg">
 <path d="m44 22c0 12.15-22 32-22 32s-22-19.85-22-32c0-12.15 9.8498-22 22-22 12.15 0 22 9.8498 22 22z" fill="#42934c"/>
 <g fill="#f9f3ea">
  <path d="m8.9434 14.13h21.875c.2417 0 .4375.2417.4375.4375v.875c0 .2417-.1958.4375-.4375.4375h-21.875c-.2417 0-.4375-.2417-.4375-.4375v-.875c0-.2417.1958-.4375.4375-.4375z"/>
  <path d="m29.46 11.747c-.0744-.1487-.2253-.2417-.3915-.2417h-18.375c-.1663 0-.3172.0941-.3916.2417l-.7547 1.5083h20.665l-.7547-1.5083z"/>
  <path d="m33.006 22.005h-2.625s-3.5.4375-3.5 4.375v2.625c0 .9669.7831 1.75 1.75 1.75h6.125c.9669 0 1.75-.7831 1.75-1.75v-2.625c0-3.9374-3.5-4.375-3.5-4.375z"/>
  <path d="m28.663 19.006c.2406 1.7555 1.7171 2.1241 1.7171 2.1241h2.625s1.4766-.3697 1.7172-2.1241c.0361-.2646-.1662-.5009-.4331-.5009h-5.1932c-.2668 0-.4691.2363-.433.5009z"/>
  <path d="m20.568 16.825 9.6482 5e-4-.1127.875h-1.4721c-.4835 0-.875.3916-.875.875 0 1.4832.6737 2.4227 1.3737 2.9532-.3073.1258-.6497.2986-.9953.5359-.9724.6684-2.1295 1.9698-2.1295 4.3848l2e-4 2.625c0 .6497.2374 1.2447.6311 1.7041-.059.0295-.1247.0459-.1936.0459h-1.3125c-.1881 0-.3554-.1203-.4156-.2997l-.338-1.0128-8.1156-.0153-.5143 1.0984c-.0602.1794-.2275.2997-.4156.2997h-1.5925c-.1882 0-.3555-.1203-.4157-.2997l-.5488-1.1714c-1.2169-.0012-.7648-.0086-.7579-.0087-.0011 2e-4-.0116.002-.0219 0-.0078-.0016-.0257-.0069-.0257-.0069-.5701-.0613-1.0183-.5025-1.0793-1.0661l-.5096-4.725-9e-4-8e-4h9e-4l-.2177-2.0188-.6158-4.7729h11.022z"/>
 </g>
</svg>
