<svg width="45" height="55" viewBox="0 0 45 55" fill="none" xmlns="http://www.w3.org/2000/svg">
<path d="M44.4941 22.4961C44.4941 34.6464 22.4941 54.4961 22.4941 54.4961C22.4941 54.4961 0.494141 34.6464 0.494141 22.4961C0.494141 10.3458 10.3439 0.496094 22.4941 0.496094C34.6444 0.496094 44.4941 10.3458 44.4941 22.4961Z" fill="#35763D"/>
<path d="M9.4375 14.625H31.3125C31.5542 14.625 31.75 14.8667 31.75 15.0625V15.9375C31.75 16.1792 31.5542 16.375 31.3125 16.375H9.4375C9.19578 16.375 9 16.1333 9 15.9375V15.0625C9 14.8208 9.19578 14.625 9.4375 14.625Z" fill="#F9F3EA"/>
<path d="M29.954 12.2417C29.8797 12.093 29.7287 12 29.5625 12H11.1875C11.0212 12 10.8703 12.0941 10.7959 12.2417L10.0413 13.75H30.7067L29.952 12.2417H29.954Z" fill="#F9F3EA"/>
<path d="M33.5 22.5H30.875C30.875 22.5 27.375 22.9375 27.375 26.875V29.5C27.375 30.4669 28.1581 31.25 29.125 31.25H35.25C36.2169 31.25 37 30.4669 37 29.5V26.875C37 22.9376 33.5 22.5 33.5 22.5Z" fill="#F9F3EA"/>
<path d="M29.1578 19.5009C29.3984 21.2564 30.875 21.625 30.875 21.625H33.5C33.5 21.625 34.9765 21.2553 35.2172 19.5009C35.2533 19.2363 35.0509 19 34.784 19H29.5909C29.324 19 29.1217 19.2363 29.1578 19.5009Z" fill="#F9F3EA"/>
<path d="M21.0629 17.3209L30.7112 17.3214L30.5985 18.1964H29.1263C28.6429 18.1964 28.2513 18.588 28.2513 19.0714C28.2513 20.5546 28.9251 21.4941 29.6251 22.0245C29.3177 22.1503 28.9754 22.3231 28.6298 22.5605C27.6574 23.2288 26.5003 24.5303 26.5003 26.9453L26.5005 29.5703C26.5005 30.22 26.7379 30.815 27.1316 31.2744C27.0726 31.3039 27.0069 31.3203 26.938 31.3203H25.6255C25.4374 31.3203 25.2701 31.2 25.2099 31.0206L24.8719 30.0078L16.7563 29.9925L16.242 31.0909C16.1818 31.2703 16.0145 31.3906 15.8263 31.3906H14.2338C14.0457 31.3906 13.8784 31.2703 13.8182 31.0909L13.2694 29.9195C12.0525 29.9182 12.5046 29.9109 12.5115 29.9107C12.5104 29.9109 12.4999 29.9128 12.4896 29.9107C12.4818 29.9092 12.4639 29.9039 12.4639 29.9039C11.8938 29.8426 11.4456 29.4014 11.3846 28.8378L10.8749 24.1128L10.8741 24.112H10.8749L10.6573 22.0932L10.0415 17.3203H21.0632L21.0629 17.3209Z" fill="#F9F3EA"/>
</svg>
