<?xml version="1.0" encoding="UTF-8"?>
<svg width="44" height="54" version="1.1" viewBox="0 0 44 54" xmlns="http://www.w3.org/2000/svg">
 <path d="m44 22c0 12.15-22 32-22 32s-22-19.85-22-32 9.8497-22 22-22 22 9.8497 22 22z" fill="#b83d13"/>
 <path d="m32.322 26.496c.0915-4e-4.1831.0176.2676.0527.0841.0351.1605.0865.2246.1514.0642.0651.1153.1426.1494.2275.034.0849.0503.1762.0488.2676-.0016.0912-.0209.1812-.0576.2646-.0368.0837-.0899.1598-.1563.2227s-.1449.1123-.2304.1445l-2.418.9659c-.8195.3277-1.7333.3277-2.5527 0l-1.3946-.5577c-.4915-.1966-1.0396-.1965-1.5312 0l-1.3965.5577c-.8195.3277-1.7333.3277-2.5527 0l-1.3946-.5577c-.4915-.1966-1.0396-.1965-1.5312 0l-1.3965.5577c-.8195.3277-1.7333.3277-2.5527 0l-2.4161-.9659c-.1691-.0678-.3042-.2006-.3759-.3681-.0717-.1676-.0737-.3572-.0059-.5264.0679-.169.1998-.3044.3672-.376.1676-.0717.3572-.0736.5264-.0058l2.416.9668c.4915.1964 1.0398.1965 1.5312 0l1.3946-.5586c.8193-.3277 1.7333-.3277 2.5527 0l1.3965.5586c.4915.1964 1.0398.1965 1.5312 0l1.3946-.5586c.8193-.3277 1.7333-.3277 2.5527 0l1.3965.5586c.4915.1964 1.0398.1965 1.5312 0l2.416-.9668c.0841-.0358.1744-.0543.2657-.0547zm0-4.125c.0915-4e-4.1831.0176.2676.0527.0841.0351.1605.0865.2246.1514.0642.0651.1153.1426.1494.2275.034.0849.0503.1762.0488.2676-.0016.0912-.0209.1812-.0576.2646-.0368.0837-.0899.1598-.1563.2227s-.1449.1123-.2304.1445l-2.418.9659c-.8195.3277-1.7333.3277-2.5527 0l-1.3946-.5577c-.4915-.1966-1.0396-.1965-1.5312 0l-1.3965.5577c-.8195.3277-1.7333.3277-2.5527 0l-1.3946-.5577c-.4915-.1966-1.0396-.1965-1.5312 0l-1.3965.5577c-.8195.3277-1.7333.3277-2.5527 0l-2.4161-.9659c-.1691-.0678-.3042-.2006-.3759-.3681-.0717-.1676-.0737-.3572-.0059-.5264.0679-.169.1998-.3044.3672-.376.1676-.0717.3572-.0736.5264-.0058l2.416.9668c.4915.1964 1.0398.1965 1.5312 0l1.3946-.5586c.8193-.3277 1.7333-.3277 2.5527 0l1.3965.5586c.4915.1964 1.0398.1965 1.5312 0l1.3946-.5586c.8193-.3277 1.7333-.3277 2.5527 0l1.3965.5586c.4915.1964 1.0398.1965 1.5312 0l2.416-.9668c.0841-.0358.1744-.0543.2657-.0547zm0-4.125c.0915-4e-4.1831.0176.2676.0527.0841.0351.1605.0865.2246.1514.0642.0651.1153.1426.1494.2275.034.0849.0503.1762.0488.2676-.0016.0912-.0209.1812-.0576.2646-.0368.0837-.0899.1598-.1563.2227s-.1449.1123-.2304.1445l-2.418.9659c-.8195.3277-1.7333.3277-2.5527 0l-1.3946-.5577c-.4915-.1966-1.0396-.1965-1.5312 0l-1.3965.5577c-.8195.3277-1.7333.3277-2.5527 0l-1.3946-.5577c-.4915-.1966-1.0396-.1965-1.5312 0l-1.3965.5577c-.8195.3277-1.7333.3277-2.5527 0l-2.4161-.9659c-.1691-.0678-.3042-.2006-.3759-.3681-.0717-.1676-.0737-.3572-.0059-.5264.0679-.169.1998-.3044.3672-.376.1676-.0717.3572-.0736.5264-.0058l2.416.9668c.4915.1964 1.0398.1965 1.5312 0l1.3946-.5586c.8193-.3277 1.7333-.3277 2.5527 0l1.3965.5586c.4915.1964 1.0398.1965 1.5312 0l1.3946-.5586c.8193-.3277 1.7333-.3277 2.5527 0l1.3965.5586c.4915.1964 1.0398.1965 1.5312 0l2.416-.9668c.0841-.0358.1744-.0543.2657-.0547zm0-4.125c.0915-4e-4.1831.0176.2676.0527.0841.0351.1605.0865.2246.1514.0642.0651.1153.1426.1494.2275.034.0849.0503.1762.0488.2676-.0016.0912-.0209.1812-.0576.2646-.0368.0837-.0899.1598-.1563.2227s-.1449.1123-.2304.1445l-2.418.9659c-.8195.3277-1.7333.3277-2.5527 0l-1.3946-.5577c-.4915-.1966-1.0396-.1965-1.5312 0l-1.3965.5577c-.8195.3277-1.7333.3277-2.5527 0l-1.3946-.5577c-.4915-.1966-1.0396-.1965-1.5312 0l-1.3965.5577c-.8195.3277-1.7333.3277-2.5527 0l-2.4161-.9659c-.1691-.0678-.3042-.2006-.3759-.3681-.0717-.1676-.0737-.3572-.0059-.5264.0679-.169.1998-.3044.3672-.376.1676-.0717.3572-.0736.5264-.0058l2.416.9668c.4915.1964 1.0398.1965 1.5312 0l1.3946-.5586c.8193-.3277 1.7333-.3277 2.5527 0l1.3965.5586c.4915.1964 1.0398.1965 1.5312 0l1.3946-.5586c.8193-.3277 1.7333-.3277 2.5527 0l1.3965.5586c.4915.1964 1.0398.1965 1.5312 0l2.416-.9668c.0841-.0358.1744-.0543.2657-.0547z" fill="#f9f3ea"/>
</svg>
