<?xml version="1.0" encoding="UTF-8"?>
<svg width="44" height="54" version="1.1" viewBox="0 0 44 54" xmlns="http://www.w3.org/2000/svg">
 <path d="m44 22c0 12.15-22 32-22 32s-22-19.85-22-32 9.8497-22 22-22 22 9.8497 22 22z" fill="#235540"/>
 <path d="m11.362 12c-.46875 0-.88388.30804-1.0223.75446l-1.1563 3.7544c-.026743.08928-.040199.18303-.040199.27232 0 .51785.41517.93299.93299.93299h4.1964l1.1428-5.7143zm9.9239 5.7143v-5.7143h-4.4151l-1.1428 5.7143zm1.4286 0h5.558l-1.1428-5.7143h-4.4151zm7.0133 0h4.1964c.51339 0 .93299-.41517.93299-.93299 0-.09375-.01337-.18303-.0402-.27232l-1.1563-3.7544c-.13839-.44642-.55356-.75446-1.0223-.75446h-4.0536zm-19.156 1.4286.17858 1.4286h-.17858c-.79017 0-1.4286.63839-1.4286 1.4286 0 .79017.63838 1.4286 1.4286 1.4286h.53571l.89288 7.1428c0 .79017.63838 1.4286 1.4286 1.4286.79017 0 1.4286-.63838 1.4286-1.4286h14.286c0 .79017.63838 1.4286 1.4286 1.4286.79018 0 1.4286-.63838 1.4286-1.4286l.89288-7.1428h.53571c.79016 0 1.4286-.63838 1.4286-1.4286 0-.79017-.63838-1.4286-1.4286-1.4286h-.17858l.17858-1.4286z" fill="#fff"/>
</svg>
