<svg width="14" height="14" viewBox="0 0 14 14" fill="none" xmlns="http://www.w3.org/2000/svg">
<g id="wrapper">
<path id="Union" d="M7 14.0001C7 14.0001 12.25 9.02487 12.25 5.25012C12.25 3.85774 11.6969 2.52238 10.7123 1.53781C9.72774 0.553245 8.39239 0.00012207 7 0.00012207C5.60761 0.00012207 4.27226 0.553245 3.28769 1.53781C2.30312 2.52238 1.75 3.85774 1.75 5.25012C1.75 9.02487 7 14.0001 7 14.0001ZM7 7.87512C6.30381 7.87512 5.63613 7.59856 5.14384 7.10628C4.65156 6.61399 4.375 5.94632 4.375 5.25012C4.375 4.55393 4.65156 3.88625 5.14384 3.39397C5.63613 2.90168 6.30381 2.62512 7 2.62512C7.69619 2.62512 8.36387 2.90168 8.85616 3.39397C9.34844 3.88625 9.625 4.55393 9.625 5.25012C9.625 5.94632 9.34844 6.61399 8.85616 7.10628C8.36387 7.59856 7.69619 7.87512 7 7.87512Z" fill="#605E5D"/>
</g>
</svg>
