<svg width="12" height="12" viewBox="0 0 12 12" fill="none" xmlns="http://www.w3.org/2000/svg">
<path d="M2.25 4.875C2.54808 4.87511 2.83407 4.99341 3.04492 5.2041C3.25589 5.41507 3.37499 5.70165 3.375 6C3.375 6.29837 3.2559 6.58492 3.04492 6.7959C2.83407 7.00662 2.54809 7.12489 2.25 7.125C1.95172 7.125 1.66506 7.00676 1.4541 6.7959C1.24312 6.58492 1.125 6.29837 1.125 6C1.12501 5.70165 1.24313 5.41507 1.4541 5.2041C1.66506 4.99327 1.95174 4.875 2.25 4.875ZM6 4.875C6.29808 4.87511 6.58407 4.99341 6.79492 5.2041C7.00589 5.41507 7.12499 5.70165 7.125 6C7.125 6.29837 7.0059 6.58492 6.79492 6.7959C6.58407 7.00662 6.29809 7.12489 6 7.125C5.70172 7.125 5.41506 7.00676 5.2041 6.7959C4.99312 6.58492 4.875 6.29837 4.875 6C4.87501 5.70165 4.99313 5.41507 5.2041 5.2041C5.41506 4.99327 5.70174 4.875 6 4.875ZM9.75 4.875C10.0481 4.87511 10.3341 4.99341 10.5449 5.2041C10.7559 5.41507 10.875 5.70165 10.875 6C10.875 6.29837 10.7559 6.58492 10.5449 6.7959C10.3341 7.00662 10.0481 7.12489 9.75 7.125C9.45172 7.125 9.16506 7.00676 8.9541 6.7959C8.74312 6.58492 8.625 6.29837 8.625 6C8.62501 5.70165 8.74313 5.41507 8.9541 5.2041C9.16506 4.99327 9.45174 4.875 9.75 4.875Z" fill="#281414"/>
</svg>
