<svg width="17" height="17" viewBox="0 0 17 17" fill="none" xmlns="http://www.w3.org/2000/svg">
<path d="M6.67188 6.17383C6.67188 6.57165 6.51384 6.95318 6.23254 7.23449C5.95123 7.51579 5.5697 7.67383 5.17188 7.67383C4.77405 7.67383 4.39252 7.51579 4.11121 7.23449C3.82991 6.95318 3.67188 6.57165 3.67188 6.17383C3.67188 5.776 3.82991 5.39447 4.11121 5.11317C4.39252 4.83186 4.77405 4.67383 5.17188 4.67383C5.5697 4.67383 5.95123 4.83186 6.23254 5.11317C6.51384 5.39447 6.67188 5.776 6.67188 6.17383Z" fill="#F9F3EA"/>
<path d="M2.67188 1.67383C2.14144 1.67383 1.63273 1.88454 1.25766 2.25961C0.882589 2.63469 0.671875 3.1434 0.671875 3.67383V13.6738C0.671875 14.2043 0.882589 14.713 1.25766 15.088C1.63273 15.4631 2.14144 15.6738 2.67188 15.6738H14.6719C15.2023 15.6738 15.711 15.4631 16.0861 15.088C16.4612 14.713 16.6719 14.2043 16.6719 13.6738V3.67383C16.6719 3.1434 16.4612 2.63469 16.0861 2.25961C15.711 1.88454 15.2023 1.67383 14.6719 1.67383H2.67188ZM14.6719 2.67383C14.9371 2.67383 15.1914 2.77918 15.379 2.96672C15.5665 3.15426 15.6719 3.40861 15.6719 3.67383V10.1738L11.8949 8.22683C11.8011 8.17985 11.6949 8.16356 11.5914 8.18025C11.4878 8.19694 11.3921 8.24577 11.3179 8.31983L7.60788 12.0298L4.94788 10.2578C4.85183 10.1939 4.73664 10.1651 4.62181 10.1764C4.50699 10.1877 4.39961 10.2384 4.31787 10.3198L1.67188 12.6738V3.67383C1.67188 3.40861 1.77723 3.15426 1.96477 2.96672C2.1523 2.77918 2.40666 2.67383 2.67188 2.67383H14.6719Z" fill="#F9F3EA"/>
</svg>
