<svg width="40" height="40" viewBox="0 0 40 40" fill="none" xmlns="http://www.w3.org/2000/svg">
<g filter="url(#filter0_d_14170_135732)">
<path d="M2 9C2 4.58172 5.58172 1 10 1H30C34.4183 1 38 4.58172 38 9V29C38 33.4183 34.4183 37 30 37H10C5.58172 37 2 33.4183 2 29V9Z" fill="#235540"/>
<g clip-path="url(#clip0_14170_135732)">
<path d="M19.3721 23.7734C20.1495 23.7734 20.7411 24.3663 20.7412 25.1387C20.7412 25.9087 20.1496 26.501 19.3721 26.501C18.6147 26.5009 18.0137 25.9088 18.0137 25.1377C18.0137 24.3665 18.6147 23.7735 19.3721 23.7734ZM19.7832 11.501C22.5957 11.501 24.4922 13.2018 24.4922 15.5205C24.4921 17.2003 23.661 18.3801 22.2549 19.2363C20.8799 20.0601 20.4873 20.634 20.4873 21.749V21.7861C20.4873 21.9518 20.4218 22.1113 20.3047 22.2285C20.1875 22.3457 20.0281 22.4111 19.8623 22.4111H18.8994C18.7349 22.411 18.5769 22.3462 18.46 22.2305C18.343 22.1147 18.2762 21.9575 18.2744 21.793L18.2715 21.543C18.2177 20.0167 18.8671 19.0411 20.3271 18.1523C21.6146 17.3624 22.0732 16.7334 22.0732 15.6172C22.073 14.3937 21.1258 13.4951 19.666 13.4951C18.4048 13.4951 17.5282 14.1568 17.2432 15.248C17.1605 15.5653 16.8957 15.8242 16.5684 15.8242H15.5957C15.2409 15.824 14.9539 15.5276 15.0088 15.1777C15.3525 13.0516 16.9721 11.5011 19.7832 11.501Z" fill="#F9F3EA"/>
</g>
</g>
<defs>
<filter id="filter0_d_14170_135732" x="0" y="0" width="40" height="40" filterUnits="userSpaceOnUse" color-interpolation-filters="sRGB">
<feFlood flood-opacity="0" result="BackgroundImageFix"/>
<feColorMatrix in="SourceAlpha" type="matrix" values="0 0 0 0 0 0 0 0 0 0 0 0 0 0 0 0 0 0 127 0" result="hardAlpha"/>
<feOffset dy="1"/>
<feGaussianBlur stdDeviation="1"/>
<feColorMatrix type="matrix" values="0 0 0 0 0 0 0 0 0 0 0 0 0 0 0 0 0 0 0.3 0"/>
<feBlend mode="normal" in2="BackgroundImageFix" result="effect1_dropShadow_14170_135732"/>
<feBlend mode="normal" in="SourceGraphic" in2="effect1_dropShadow_14170_135732" result="shape"/>
</filter>
<clipPath id="clip0_14170_135732">
<rect width="20" height="20" fill="white" transform="translate(10 9)"/>
</clipPath>
</defs>
</svg>
