<svg width="17" height="17" viewBox="0 0 17 17" fill="none" xmlns="http://www.w3.org/2000/svg">
<path fill-rule="evenodd" clip-rule="evenodd" d="M4.97892 1.81877C5.02537 1.77221 5.08055 1.73526 5.14129 1.71006C5.20204 1.68485 5.26716 1.67188 5.33292 1.67188C5.39869 1.67188 5.46381 1.68485 5.52456 1.71006C5.5853 1.73526 5.64048 1.77221 5.68692 1.81877L11.6869 7.81877C11.7335 7.86521 11.7704 7.92039 11.7956 7.98114C11.8208 8.04188 11.8338 8.107 11.8338 8.17277C11.8338 8.23854 11.8208 8.30366 11.7956 8.3644C11.7704 8.42515 11.7335 8.48032 11.6869 8.52677L5.68692 14.5268C5.59304 14.6207 5.4657 14.6734 5.33292 14.6734C5.20015 14.6734 5.07281 14.6207 4.97892 14.5268C4.88504 14.4329 4.83229 14.3055 4.83229 14.1728C4.83229 14.04 4.88504 13.9127 4.97892 13.8188L10.6259 8.17277L4.97892 2.52677C4.93236 2.48032 4.89542 2.42515 4.87021 2.3644C4.84501 2.30366 4.83203 2.23854 4.83203 2.17277C4.83203 2.107 4.84501 2.04188 4.87021 1.98114C4.89542 1.92039 4.93236 1.86521 4.97892 1.81877Z" fill="#281414"/>
</svg>
