<svg width="16" height="16" viewBox="0 0 16 16" fill="none" xmlns="http://www.w3.org/2000/svg">
<path d="M0.0358652 3.31498C0.0852188 3.19194 0.181417 3.09353 0.303307 3.0414C0.425198 2.98927 0.562802 2.98768 0.685865 3.03698L2.44287 3.73998C2.80043 3.88298 3.1993 3.88298 3.55687 3.73998L4.57087 3.33398C5.16691 3.09556 5.83182 3.09556 6.42787 3.33398L7.44287 3.73998C7.80043 3.88298 8.1993 3.88298 8.55687 3.73998L9.57087 3.33398C10.1669 3.09556 10.8318 3.09556 11.4279 3.33398L12.4429 3.73998C12.8004 3.88298 13.1993 3.88298 13.5569 3.73998L15.3139 3.03698C15.3751 3.01095 15.4409 2.99739 15.5074 2.99712C15.574 2.99684 15.6399 3.00985 15.7013 3.03538C15.7628 3.0609 15.8185 3.09844 15.8653 3.14578C15.912 3.19312 15.9489 3.24932 15.9736 3.31107C15.9984 3.37283 16.0105 3.43891 16.0094 3.50544C16.0083 3.57196 15.994 3.6376 15.9672 3.6985C15.9404 3.7594 15.9017 3.81434 15.8534 3.8601C15.8051 3.90586 15.7481 3.94151 15.6859 3.96498L13.9279 4.66798C13.3318 4.9064 12.6669 4.9064 12.0709 4.66798L11.0569 4.26198C10.6993 4.11898 10.3004 4.11898 9.94287 4.26198L8.92787 4.66798C8.33182 4.9064 7.66691 4.9064 7.07087 4.66798L6.05687 4.26198C5.6993 4.11898 5.30043 4.11898 4.94287 4.26198L3.92787 4.66798C3.33182 4.9064 2.66691 4.9064 2.07087 4.66798L0.313865 3.96498C0.190824 3.91563 0.0924186 3.81943 0.040287 3.69754C-0.0118447 3.57565 -0.0134352 3.43804 0.0358652 3.31498V3.31498ZM0.0358652 6.31498C0.0852188 6.19194 0.181417 6.09353 0.303307 6.0414C0.425198 5.98927 0.562802 5.98768 0.685865 6.03698L2.44287 6.73998C2.80043 6.88298 3.1993 6.88298 3.55687 6.73998L4.57087 6.33398C5.16691 6.09556 5.83182 6.09556 6.42787 6.33398L7.44287 6.73998C7.80043 6.88298 8.1993 6.88298 8.55687 6.73998L9.57087 6.33398C10.1669 6.09556 10.8318 6.09556 11.4279 6.33398L12.4429 6.73998C12.8004 6.88298 13.1993 6.88298 13.5569 6.73998L15.3139 6.03698C15.3751 6.01095 15.4409 5.99739 15.5074 5.99712C15.574 5.99684 15.6399 6.00985 15.7013 6.03538C15.7628 6.0609 15.8185 6.09844 15.8653 6.14578C15.912 6.19312 15.9489 6.24932 15.9736 6.31107C15.9984 6.37283 16.0105 6.43891 16.0094 6.50544C16.0083 6.57196 15.994 6.6376 15.9672 6.6985C15.9404 6.7594 15.9017 6.81434 15.8534 6.8601C15.8051 6.90586 15.7481 6.94151 15.6859 6.96498L13.9279 7.66798C13.3318 7.9064 12.6669 7.9064 12.0709 7.66798L11.0569 7.26198C10.6993 7.11898 10.3004 7.11898 9.94287 7.26198L8.92787 7.66798C8.33182 7.9064 7.66691 7.9064 7.07087 7.66798L6.05687 7.26198C5.6993 7.11898 5.30043 7.11898 4.94287 7.26198L3.92787 7.66798C3.33182 7.9064 2.66691 7.9064 2.07087 7.66798L0.313865 6.96498C0.190824 6.91563 0.0924186 6.81943 0.040287 6.69754C-0.0118447 6.57565 -0.0134352 6.43804 0.0358652 6.31498V6.31498ZM0.0358652 9.31498C0.0852188 9.19194 0.181417 9.09353 0.303307 9.0414C0.425198 8.98927 0.562802 8.98768 0.685865 9.03698L2.44287 9.73998C2.80043 9.88298 3.1993 9.88298 3.55687 9.73998L4.57087 9.33398C5.16691 9.09556 5.83182 9.09556 6.42787 9.33398L7.44287 9.73998C7.80043 9.88298 8.1993 9.88298 8.55687 9.73998L9.57087 9.33398C10.1669 9.09556 10.8318 9.09556 11.4279 9.33398L12.4429 9.73998C12.8004 9.88298 13.1993 9.88298 13.5569 9.73998L15.3139 9.03698C15.3751 9.01095 15.4409 8.99739 15.5074 8.99712C15.574 8.99684 15.6399 9.00985 15.7013 9.03538C15.7628 9.0609 15.8185 9.09844 15.8653 9.14578C15.912 9.19312 15.9489 9.24932 15.9736 9.31107C15.9984 9.37283 16.0105 9.43891 16.0094 9.50544C16.0083 9.57196 15.994 9.6376 15.9672 9.6985C15.9404 9.7594 15.9017 9.81434 15.8534 9.8601C15.8051 9.90586 15.7481 9.94151 15.6859 9.96498L13.9279 10.668C13.3318 10.9064 12.6669 10.9064 12.0709 10.668L11.0569 10.262C10.6993 10.119 10.3004 10.119 9.94287 10.262L8.92787 10.668C8.33182 10.9064 7.66691 10.9064 7.07087 10.668L6.05687 10.262C5.6993 10.119 5.30043 10.119 4.94287 10.262L3.92787 10.668C3.33182 10.9064 2.66691 10.9064 2.07087 10.668L0.313865 9.96498C0.190824 9.91563 0.0924186 9.81943 0.040287 9.69754C-0.0118447 9.57565 -0.0134352 9.43804 0.0358652 9.31498V9.31498ZM0.0358652 12.315C0.0852188 12.1919 0.181417 12.0935 0.303307 12.0414C0.425198 11.9893 0.562802 11.9877 0.685865 12.037L2.44287 12.74C2.80043 12.883 3.1993 12.883 3.55687 12.74L4.57087 12.334C5.16691 12.0956 5.83182 12.0956 6.42787 12.334L7.44287 12.74C7.80043 12.883 8.1993 12.883 8.55687 12.74L9.57087 12.334C10.1669 12.0956 10.8318 12.0956 11.4279 12.334L12.4429 12.74C12.8004 12.883 13.1993 12.883 13.5569 12.74L15.3139 12.037C15.3751 12.0109 15.4409 11.9974 15.5074 11.9971C15.574 11.9968 15.6399 12.0098 15.7013 12.0354C15.7628 12.0609 15.8185 12.0984 15.8653 12.1458C15.912 12.1931 15.9489 12.2493 15.9736 12.3111C15.9984 12.3728 16.0105 12.4389 16.0094 12.5054C16.0083 12.572 15.994 12.6376 15.9672 12.6985C15.9404 12.7594 15.9017 12.8143 15.8534 12.8601C15.8051 12.9059 15.7481 12.9415 15.6859 12.965L13.9279 13.668C13.3318 13.9064 12.6669 13.9064 12.0709 13.668L11.0569 13.262C10.6993 13.119 10.3004 13.119 9.94287 13.262L8.92787 13.668C8.33182 13.9064 7.66691 13.9064 7.07087 13.668L6.05687 13.262C5.6993 13.119 5.30043 13.119 4.94287 13.262L3.92787 13.668C3.33182 13.9064 2.66691 13.9064 2.07087 13.668L0.313865 12.965C0.190824 12.9156 0.0924186 12.8194 0.040287 12.6975C-0.0118447 12.5756 -0.0134352 12.438 0.0358652 12.315V12.315Z" fill="#F9F3EA"/>
</svg>
