<svg width="16" height="17" viewBox="0 0 16 17" fill="none" xmlns="http://www.w3.org/2000/svg">
<g clip-path="url(#clip0_11106_8693)">
<path d="M11 2.00098V3.00098H14.5C14.6326 3.00098 14.7598 3.05366 14.8536 3.14742C14.9473 3.24119 15 3.36837 15 3.50098C15 3.63358 14.9473 3.76076 14.8536 3.85453C14.7598 3.9483 14.6326 4.00098 14.5 4.00098H13.962L13.109 14.661C13.0688 15.1622 12.8412 15.6298 12.4717 15.9708C12.1022 16.3118 11.6178 16.5011 11.115 16.501H4.885C4.38219 16.5011 3.8978 16.3118 3.52827 15.9708C3.15875 15.6298 2.93122 15.1622 2.891 14.661L2.038 4.00098H1.5C1.36739 4.00098 1.24021 3.9483 1.14645 3.85453C1.05268 3.76076 1 3.63358 1 3.50098C1 3.36837 1.05268 3.24119 1.14645 3.14742C1.24021 3.05366 1.36739 3.00098 1.5 3.00098H5V2.00098C5 1.60315 5.15804 1.22162 5.43934 0.940316C5.72064 0.659012 6.10218 0.500977 6.5 0.500977H9.5C9.89782 0.500977 10.2794 0.659012 10.5607 0.940316C10.842 1.22162 11 1.60315 11 2.00098ZM6 2.00098V3.00098H10V2.00098C10 1.86837 9.94732 1.74119 9.85355 1.64742C9.75979 1.55365 9.63261 1.50098 9.5 1.50098H6.5C6.36739 1.50098 6.24021 1.55365 6.14645 1.64742C6.05268 1.74119 6 1.86837 6 2.00098ZM4.5 5.52998L5 14.03C5.00267 14.0964 5.01857 14.1617 5.04676 14.2219C5.07495 14.2821 5.11488 14.3361 5.16419 14.3807C5.21351 14.4253 5.27123 14.4597 5.33397 14.4817C5.39672 14.5037 5.46322 14.513 5.5296 14.509C5.59598 14.505 5.6609 14.4878 5.72055 14.4584C5.7802 14.4291 5.8334 14.3881 5.87701 14.3379C5.92063 14.2877 5.9538 14.2293 5.97457 14.1661C5.99535 14.1029 6.00331 14.0363 5.998 13.97L5.498 5.46998C5.49533 5.40353 5.47943 5.33829 5.45124 5.27806C5.42305 5.21783 5.38312 5.16384 5.33381 5.11923C5.28449 5.07462 5.22677 5.0403 5.16403 5.01827C5.10128 4.99625 5.03478 4.98696 4.9684 4.99095C4.90202 4.99494 4.8371 5.01213 4.77745 5.04151C4.7178 5.0709 4.6646 5.11189 4.62099 5.16209C4.57737 5.21228 4.5442 5.27067 4.52343 5.33384C4.50265 5.39701 4.49469 5.46369 4.5 5.52998ZM11.03 5.00198C10.8977 4.99433 10.7677 5.03954 10.6687 5.12767C10.5697 5.21581 10.5097 5.33965 10.502 5.47198L10.002 13.972C9.99771 14.1023 10.0445 14.2292 10.1325 14.3255C10.2204 14.4219 10.3425 14.48 10.4727 14.4876C10.6029 14.4952 10.7309 14.4515 10.8295 14.366C10.928 14.2806 10.9892 14.16 11 14.03L11.5 5.52998C11.5076 5.39764 11.4624 5.26769 11.3743 5.16868C11.2862 5.06967 11.1623 5.00971 11.03 5.00198ZM8 5.00098C7.86739 5.00098 7.74021 5.05366 7.64645 5.14742C7.55268 5.24119 7.5 5.36837 7.5 5.50098V14.001C7.5 14.1336 7.55268 14.2608 7.64645 14.3545C7.74021 14.4483 7.86739 14.501 8 14.501C8.13261 14.501 8.25979 14.4483 8.35355 14.3545C8.44732 14.2608 8.5 14.1336 8.5 14.001V5.50098C8.5 5.36837 8.44732 5.24119 8.35355 5.14742C8.25979 5.05366 8.13261 5.00098 8 5.00098Z" fill="#281414"/>
</g>
<defs>
<clipPath id="clip0_11106_8693">
<rect width="16" height="16" fill="white" transform="translate(0 0.5)"/>
</clipPath>
</defs>
</svg>
