<svg width="16" height="17" viewBox="0 0 16 17" fill="none" xmlns="http://www.w3.org/2000/svg">
<path d="M3 10.001C2.60218 10.001 2.22064 9.84294 1.93934 9.56164C1.65804 9.28033 1.5 8.8988 1.5 8.50098C1.5 8.10315 1.65804 7.72162 1.93934 7.44032C2.22064 7.15901 2.60218 7.00098 3 7.00098C3.39782 7.00098 3.77936 7.15901 4.06066 7.44032C4.34196 7.72162 4.5 8.10315 4.5 8.50098C4.5 8.8988 4.34196 9.28033 4.06066 9.56164C3.77936 9.84294 3.39782 10.001 3 10.001ZM8 10.001C7.60218 10.001 7.22064 9.84294 6.93934 9.56164C6.65804 9.28033 6.5 8.8988 6.5 8.50098C6.5 8.10315 6.65804 7.72162 6.93934 7.44032C7.22064 7.15901 7.60218 7.00098 8 7.00098C8.39782 7.00098 8.77936 7.15901 9.06066 7.44032C9.34196 7.72162 9.5 8.10315 9.5 8.50098C9.5 8.8988 9.34196 9.28033 9.06066 9.56164C8.77936 9.84294 8.39782 10.001 8 10.001ZM13 10.001C12.6022 10.001 12.2206 9.84294 11.9393 9.56164C11.658 9.28033 11.5 8.8988 11.5 8.50098C11.5 8.10315 11.658 7.72162 11.9393 7.44032C12.2206 7.15901 12.6022 7.00098 13 7.00098C13.3978 7.00098 13.7794 7.15901 14.0607 7.44032C14.342 7.72162 14.5 8.10315 14.5 8.50098C14.5 8.8988 14.342 9.28033 14.0607 9.56164C13.7794 9.84294 13.3978 10.001 13 10.001Z" fill="#281414"/>
</svg>
