<svg width="17" height="16" viewBox="0 0 17 16" fill="none" xmlns="http://www.w3.org/2000/svg">
<path fill-rule="evenodd" clip-rule="evenodd" d="M4.97892 1.64689C5.02537 1.60033 5.08055 1.56339 5.14129 1.53818C5.20204 1.51297 5.26716 1.5 5.33292 1.5C5.39869 1.5 5.46381 1.51297 5.52456 1.53818C5.5853 1.56339 5.64048 1.60033 5.68692 1.64689L11.6869 7.64689C11.7335 7.69334 11.7704 7.74852 11.7956 7.80926C11.8208 7.87001 11.8338 7.93513 11.8338 8.00089C11.8338 8.06666 11.8208 8.13178 11.7956 8.19253C11.7704 8.25327 11.7335 8.30845 11.6869 8.35489L5.68692 14.3549C5.59304 14.4488 5.4657 14.5015 5.33292 14.5015C5.20015 14.5015 5.07281 14.4488 4.97892 14.3549C4.88504 14.261 4.83229 14.1337 4.83229 14.0009C4.83229 13.8681 4.88504 13.7408 4.97892 13.6469L10.6259 8.00089L4.97892 2.35489C4.93236 2.30845 4.89542 2.25327 4.87021 2.19253C4.84501 2.13178 4.83203 2.06666 4.83203 2.00089C4.83203 1.93513 4.84501 1.87001 4.87021 1.80926C4.89542 1.74852 4.93236 1.69334 4.97892 1.64689Z" fill="#281414"/>
</svg>
