<svg width="18" height="18" viewBox="0 0 18 18" fill="none" xmlns="http://www.w3.org/2000/svg">
<path d="M14.916 4.21973C15.0256 4.21973 15.1343 4.24178 15.2354 4.28418C15.3363 4.32659 15.4282 4.38864 15.5049 4.4668C15.8266 4.79192 15.8316 5.31769 15.5166 5.64844L8.86426 13.5117C8.78873 13.5947 8.6969 13.6617 8.59473 13.708C8.49272 13.7542 8.38245 13.7791 8.27051 13.7812C8.15836 13.7834 8.04622 13.7631 7.94238 13.7207C7.83863 13.6783 7.74454 13.6142 7.66602 13.5342L3.61816 9.43262C3.46233 9.27351 3.37507 9.05963 3.375 8.83691C3.375 8.614 3.46212 8.39943 3.61816 8.24023C3.69483 8.16201 3.78674 8.1001 3.8877 8.05762C3.98868 8.01519 4.0975 7.99323 4.20703 7.99316C4.31672 7.99316 4.42622 8.01513 4.52734 8.05762C4.62828 8.1001 4.72022 8.16202 4.79688 8.24023L8.22949 11.7197L14.3047 4.49219C14.3117 4.48349 14.3192 4.47459 14.3271 4.4668C14.4038 4.38855 14.4957 4.32665 14.5967 4.28418C14.6977 4.24174 14.8064 4.21977 14.916 4.21973Z" fill="#F9F3EA"/>
</svg>
