<svg width="19" height="18" viewBox="0 0 19 18" fill="none" xmlns="http://www.w3.org/2000/svg">
<path d="M2.75098 5.0625C2.82483 5.0625 2.89856 5.07721 2.9668 5.10547C3.03514 5.13383 3.09716 5.17613 3.14941 5.22852L9.50098 11.5811L15.8535 5.22852C15.9058 5.17622 15.9678 5.13475 16.0361 5.10645C16.1043 5.07822 16.1772 5.06354 16.251 5.06348C16.3249 5.06348 16.3985 5.07816 16.4668 5.10645C16.5351 5.13475 16.5971 5.17622 16.6494 5.22852C16.7017 5.28081 16.7432 5.3428 16.7715 5.41113C16.7997 5.4793 16.8144 5.5522 16.8145 5.62598C16.8145 5.69992 16.7998 5.77348 16.7715 5.8418C16.7432 5.91013 16.7017 5.97212 16.6494 6.02441L9.89941 12.7744C9.84716 12.8268 9.78514 12.8691 9.7168 12.8975C9.64856 12.9257 9.57483 12.9404 9.50098 12.9404C9.42729 12.9404 9.35421 12.9257 9.28613 12.8975C9.2178 12.8691 9.15577 12.8268 9.10352 12.7744L2.35352 6.02441C2.30113 5.97216 2.25883 5.91014 2.23047 5.8418C2.20221 5.77356 2.1875 5.69983 2.1875 5.62598C2.18756 5.55229 2.20228 5.47921 2.23047 5.41113C2.25883 5.34279 2.30113 5.28077 2.35352 5.22852C2.40577 5.17613 2.46779 5.13383 2.53613 5.10547C2.60421 5.07728 2.67729 5.06256 2.75098 5.0625Z" fill="#93908F"/>
</svg>
