<svg width="24" height="24" viewBox="0 0 24 24" fill="none" xmlns="http://www.w3.org/2000/svg">
<path d="M12.0039 0.000976562C13.0389 0.00105663 14.7682 0.400389 16.3955 0.839844C17.8493 1.23994 19.2938 1.67475 20.7266 2.14453C21.1392 2.28111 21.5053 2.53121 21.7822 2.86621C22.0592 3.2013 22.2356 3.60801 22.292 4.03906C23.186 10.7546 21.1117 15.7319 18.5947 19.0244C17.5275 20.4327 16.2546 21.6725 14.8193 22.7031C14.323 23.0598 13.7967 23.3734 13.2471 23.6406C12.8257 23.8386 12.3758 24.0009 12.0039 24.001C11.6319 24.001 11.1798 23.8386 10.7598 23.6406C10.3039 23.4261 9.76727 23.1125 9.18848 22.7031C7.75302 21.6724 6.47948 20.4329 5.41211 19.0244C2.89512 15.7319 0.820858 10.7545 1.71484 4.03906C1.77137 3.60819 1.94859 3.20203 2.22559 2.86719C2.5026 2.53233 2.86859 2.28276 3.28125 2.14648C4.26821 1.824 5.9464 1.29081 7.61133 0.84082C9.23883 0.39832 10.9689 0.000976562 12.0039 0.000976562ZM12.0068 15.001C11.6091 15.001 11.2276 15.1592 10.9463 15.4404C10.665 15.7217 10.5069 16.1032 10.5068 16.501C10.5068 16.8988 10.665 17.2802 10.9463 17.5615C11.2276 17.8428 11.609 18.001 12.0068 18.001C12.4046 18.0009 12.7861 17.8428 13.0674 17.5615C13.3486 17.2802 13.5068 16.8987 13.5068 16.501C13.5068 16.1032 13.3486 15.7217 13.0674 15.4404C12.7861 15.1592 12.4046 15.001 12.0068 15.001ZM12.0039 5.99316C11.8136 5.99316 11.625 6.03391 11.4512 6.11133C11.2774 6.18874 11.1214 6.30198 10.9941 6.44336C10.8671 6.58466 10.7706 6.75091 10.7119 6.93164C10.6532 7.1125 10.6334 7.30406 10.6533 7.49316L11.1787 12.7539C11.1964 12.9606 11.2906 13.1537 11.4434 13.2939C11.5961 13.4342 11.7965 13.5117 12.0039 13.5117C12.2111 13.5116 12.4108 13.434 12.5635 13.2939C12.7162 13.1537 12.8105 12.9606 12.8281 12.7539L13.3535 7.49316C13.3734 7.30405 13.3536 7.11252 13.2949 6.93164C13.2362 6.75087 13.1398 6.58467 13.0127 6.44336C12.8854 6.30192 12.7295 6.18875 12.5557 6.11133C12.3819 6.03397 12.1941 5.99321 12.0039 5.99316Z" fill="#50B15C"/>
</svg>
