<svg width="16" height="17" viewBox="0 0 16 17" fill="none" xmlns="http://www.w3.org/2000/svg">
<path d="M7 14.502C7 14.502 6 14.502 6 13.502C6 12.502 7 9.50195 11 9.50195C15 9.50195 16 12.502 16 13.502C16 14.502 15 14.502 15 14.502H7ZM11 8.50195C11.7956 8.50195 12.5587 8.18588 13.1213 7.62327C13.6839 7.06066 14 6.2976 14 5.50195C14 4.7063 13.6839 3.94324 13.1213 3.38063C12.5587 2.81802 11.7956 2.50195 11 2.50195C10.2044 2.50195 9.44129 2.81802 8.87868 3.38063C8.31607 3.94324 8 4.7063 8 5.50195C8 6.2976 8.31607 7.06066 8.87868 7.62327C9.44129 8.18588 10.2044 8.50195 11 8.50195Z" fill="#281414"/>
<path fill-rule="evenodd" clip-rule="evenodd" d="M5.216 14.502C5.06776 14.1898 4.99382 13.8475 5 13.502C5 12.147 5.68 10.752 6.936 9.78195C6.30909 9.58879 5.65595 9.49433 5 9.50195C1 9.50195 0 12.502 0 13.502C0 14.502 1 14.502 1 14.502H5.216Z" fill="#281414"/>
<path d="M4.5 8.50195C5.16304 8.50195 5.79893 8.23856 6.26777 7.76972C6.73661 7.30088 7 6.66499 7 6.00195C7 5.33891 6.73661 4.70303 6.26777 4.23419C5.79893 3.76535 5.16304 3.50195 4.5 3.50195C3.83696 3.50195 3.20107 3.76535 2.73223 4.23419C2.26339 4.70303 2 5.33891 2 6.00195C2 6.66499 2.26339 7.30088 2.73223 7.76972C3.20107 8.23856 3.83696 8.50195 4.5 8.50195Z" fill="#281414"/>
</svg>
