<svg width="28" height="32" viewBox="0 0 28 32" fill="none" xmlns="http://www.w3.org/2000/svg">
<path d="M24.0039 23.001C24.2691 23.001 24.5234 23.1064 24.7109 23.2939C24.8984 23.4815 25.0039 23.7358 25.0039 24.001C25.0039 24.2662 24.8985 24.5205 24.7109 24.708C24.5234 24.8955 24.2691 25.001 24.0039 25.001H4.00391C3.73871 25.001 3.48441 24.8955 3.29688 24.708C3.10935 24.5205 3.00392 24.2662 3.00391 24.001C3.00391 23.7358 3.10934 23.4815 3.29688 23.2939C3.48441 23.1064 3.73869 23.001 4.00391 23.001H24.0039ZM24.0039 15.001C24.2691 15.001 24.5234 15.1064 24.7109 15.2939C24.8984 15.4815 25.0039 15.7358 25.0039 16.001C25.0039 16.2662 24.8985 16.5205 24.7109 16.708C24.5234 16.8955 24.2691 17.001 24.0039 17.001H4.00391C3.73871 17.001 3.48441 16.8955 3.29688 16.708C3.10935 16.5205 3.00392 16.2662 3.00391 16.001C3.00391 15.7358 3.10934 15.4815 3.29688 15.2939C3.48441 15.1064 3.73869 15.001 4.00391 15.001H24.0039ZM24.0039 7.00098C24.2691 7.00099 24.5234 7.10642 24.7109 7.29395C24.8984 7.48148 25.0039 7.73578 25.0039 8.00098C25.0039 8.26618 24.8985 8.52048 24.7109 8.70801C24.5234 8.89553 24.2691 9.00097 24.0039 9.00098H4.00391C3.73871 9.00098 3.48441 8.89552 3.29688 8.70801C3.10935 8.52048 3.00392 8.26618 3.00391 8.00098C3.00391 7.73576 3.10934 7.48148 3.29688 7.29395C3.48441 7.10641 3.73869 7.00098 4.00391 7.00098H24.0039Z" fill="#281414"/>
</svg>
