<svg width="14" height="15" viewBox="0 0 14 15" fill="none" xmlns="http://www.w3.org/2000/svg">
<g id="wrapper">
<g id="Union">
<path d="M12.25 0.500122H1.75C1.28587 0.500122 0.840752 0.684497 0.512563 1.01269C0.184374 1.34087 0 1.78599 0 2.25012V12.7501C0 13.2143 0.184374 13.6594 0.512563 13.9876C0.840752 14.3157 1.28587 14.5001 1.75 14.5001H12.25C12.7141 14.5001 13.1592 14.3157 13.4874 13.9876C13.8156 13.6594 14 13.2143 14 12.7501V2.25012C14 1.78599 13.8156 1.34087 13.4874 1.01269C13.1592 0.684497 12.7141 0.500122 12.25 0.500122ZM0.875 3.875C0.875 3.46112 1.267 3.12512 1.75 3.12512H12.25C12.733 3.12512 13.125 3.46112 13.125 3.875V12.8752C13.125 13.2891 12.733 13.6251 12.25 13.6251H1.75C1.267 13.6251 0.875 13.2891 0.875 12.8752V3.875Z" fill="#605E5D"/>
<path d="M5.6875 6.62512C5.91956 6.62512 6.14212 6.53293 6.30622 6.36884C6.47031 6.20475 6.5625 5.98219 6.5625 5.75012C6.5625 5.51806 6.47031 5.2955 6.30622 5.1314C6.14212 4.96731 5.91956 4.87512 5.6875 4.87512C5.45544 4.87512 5.23288 4.96731 5.06878 5.1314C4.90469 5.2955 4.8125 5.51806 4.8125 5.75012C4.8125 5.98219 4.90469 6.20475 5.06878 6.36884C5.23288 6.53293 5.45544 6.62512 5.6875 6.62512ZM8.3125 6.62512C8.54456 6.62512 8.76712 6.53293 8.93122 6.36884C9.09531 6.20475 9.1875 5.98219 9.1875 5.75012C9.1875 5.51806 9.09531 5.2955 8.93122 5.1314C8.76712 4.96731 8.54456 4.87512 8.3125 4.87512C8.08044 4.87512 7.85788 4.96731 7.69378 5.1314C7.52969 5.2955 7.4375 5.51806 7.4375 5.75012C7.4375 5.98219 7.52969 6.20475 7.69378 6.36884C7.85788 6.53293 8.08044 6.62512 8.3125 6.62512ZM10.9375 6.62512C11.1696 6.62512 11.3921 6.53293 11.5562 6.36884C11.7203 6.20475 11.8125 5.98219 11.8125 5.75012C11.8125 5.51806 11.7203 5.2955 11.5562 5.1314C11.3921 4.96731 11.1696 4.87512 10.9375 4.87512C10.7054 4.87512 10.4829 4.96731 10.3188 5.1314C10.1547 5.2955 10.0625 5.51806 10.0625 5.75012C10.0625 5.98219 10.1547 6.20475 10.3188 6.36884C10.4829 6.53293 10.7054 6.62512 10.9375 6.62512ZM3.0625 9.25012C3.29456 9.25012 3.51712 9.15793 3.68122 8.99384C3.84531 8.82975 3.9375 8.60719 3.9375 8.37512C3.9375 8.14306 3.84531 7.9205 3.68122 7.7564C3.51712 7.59231 3.29456 7.50012 3.0625 7.50012C2.83044 7.50012 2.60788 7.59231 2.44378 7.7564C2.27969 7.9205 2.1875 8.14306 2.1875 8.37512C2.1875 8.60719 2.27969 8.82975 2.44378 8.99384C2.60788 9.15793 2.83044 9.25012 3.0625 9.25012ZM5.6875 9.25012C5.91956 9.25012 6.14212 9.15793 6.30622 8.99384C6.47031 8.82975 6.5625 8.60719 6.5625 8.37512C6.5625 8.14306 6.47031 7.9205 6.30622 7.7564C6.14212 7.59231 5.91956 7.50012 5.6875 7.50012C5.45544 7.50012 5.23288 7.59231 5.06878 7.7564C4.90469 7.9205 4.8125 8.14306 4.8125 8.37512C4.8125 8.60719 4.90469 8.82975 5.06878 8.99384C5.23288 9.15793 5.45544 9.25012 5.6875 9.25012ZM8.3125 9.25012C8.54456 9.25012 8.76712 9.15793 8.93122 8.99384C9.09531 8.82975 9.1875 8.60719 9.1875 8.37512C9.1875 8.14306 9.09531 7.9205 8.93122 7.7564C8.76712 7.59231 8.54456 7.50012 8.3125 7.50012C8.08044 7.50012 7.85788 7.59231 7.69378 7.7564C7.52969 7.9205 7.4375 8.14306 7.4375 8.37512C7.4375 8.60719 7.52969 8.82975 7.69378 8.99384C7.85788 9.15793 8.08044 9.25012 8.3125 9.25012ZM10.9375 9.25012C11.1696 9.25012 11.3921 9.15793 11.5562 8.99384C11.7203 8.82975 11.8125 8.60719 11.8125 8.37512C11.8125 8.14306 11.7203 7.9205 11.5562 7.7564C11.3921 7.59231 11.1696 7.50012 10.9375 7.50012C10.7054 7.50012 10.4829 7.59231 10.3188 7.7564C10.1547 7.9205 10.0625 8.14306 10.0625 8.37512C10.0625 8.60719 10.1547 8.82975 10.3188 8.99384C10.4829 9.15793 10.7054 9.25012 10.9375 9.25012ZM3.0625 11.8751C3.29456 11.8751 3.51712 11.7829 3.68122 11.6188C3.84531 11.4547 3.9375 11.2322 3.9375 11.0001C3.9375 10.7681 3.84531 10.5455 3.68122 10.3814C3.51712 10.2173 3.29456 10.1251 3.0625 10.1251C2.83044 10.1251 2.60788 10.2173 2.44378 10.3814C2.27969 10.5455 2.1875 10.7681 2.1875 11.0001C2.1875 11.2322 2.27969 11.4547 2.44378 11.6188C2.60788 11.7829 2.83044 11.8751 3.0625 11.8751ZM5.6875 11.8751C5.91956 11.8751 6.14212 11.7829 6.30622 11.6188C6.47031 11.4547 6.5625 11.2322 6.5625 11.0001C6.5625 10.7681 6.47031 10.5455 6.30622 10.3814C6.14212 10.2173 5.91956 10.1251 5.6875 10.1251C5.45544 10.1251 5.23288 10.2173 5.06878 10.3814C4.90469 10.5455 4.8125 10.7681 4.8125 11.0001C4.8125 11.2322 4.90469 11.4547 5.06878 11.6188C5.23288 11.7829 5.45544 11.8751 5.6875 11.8751ZM8.3125 11.8751C8.54456 11.8751 8.76712 11.7829 8.93122 11.6188C9.09531 11.4547 9.1875 11.2322 9.1875 11.0001C9.1875 10.7681 9.09531 10.5455 8.93122 10.3814C8.76712 10.2173 8.54456 10.1251 8.3125 10.1251C8.08044 10.1251 7.85788 10.2173 7.69378 10.3814C7.52969 10.5455 7.4375 10.7681 7.4375 11.0001C7.4375 11.2322 7.52969 11.4547 7.69378 11.6188C7.85788 11.7829 8.08044 11.8751 8.3125 11.8751Z" fill="#605E5D"/>
</g>
</g>
</svg>
