<svg width="16" height="16" viewBox="0 0 16 16" fill="none" xmlns="http://www.w3.org/2000/svg">
<g clip-path="url(#clip0_12743_22646)">
<path fill-rule="evenodd" clip-rule="evenodd" d="M8 2.00098C8.13261 2.00098 8.25979 2.05366 8.35355 2.14742C8.44732 2.24119 8.5 2.36837 8.5 2.50098V7.50098H13.5C13.6326 7.50098 13.7598 7.55366 13.8536 7.64742C13.9473 7.74119 14 7.86837 14 8.00098C14 8.13358 13.9473 8.26076 13.8536 8.35453C13.7598 8.4483 13.6326 8.50098 13.5 8.50098H8.5V13.501C8.5 13.6336 8.44732 13.7608 8.35355 13.8545C8.25979 13.9483 8.13261 14.001 8 14.001C7.86739 14.001 7.74021 13.9483 7.64645 13.8545C7.55268 13.7608 7.5 13.6336 7.5 13.501V8.50098H2.5C2.36739 8.50098 2.24021 8.4483 2.14645 8.35453C2.05268 8.26076 2 8.13358 2 8.00098C2 7.86837 2.05268 7.74119 2.14645 7.64742C2.24021 7.55366 2.36739 7.50098 2.5 7.50098H7.5V2.50098C7.5 2.36837 7.55268 2.24119 7.64645 2.14742C7.74021 2.05366 7.86739 2.00098 8 2.00098Z" fill="#F9F3EA"/>
</g>
<defs>
<clipPath id="clip0_12743_22646">
<rect width="16" height="16" fill="white"/>
</clipPath>
</defs>
</svg>
